<svg xmlns="http://www.w3.org/2000/svg" data-name="Layer 1" viewBox="0 0 512 512"><path fill="#f66" d="M176.78,269.86A22.76,22.76,0,0,1,154,247.09V228.67a60.55,60.55,0,0,1,49.22-59.48l30.42-5.8H278.3l30.46,5.8A60.55,60.55,0,0,1,358,228.67v18.42a22.76,22.76,0,0,1-22.76,22.77Z"/><path fill="#ff4e4e" d="M308.76,169.19l-30.46-5.8h-30l30.43,5.8A60.55,60.55,0,0,1,328,228.67v18.42a22.76,22.76,0,0,1-22.76,22.77h30A22.76,22.76,0,0,0,358,247.09V228.67A60.55,60.55,0,0,0,308.76,169.19Z"/><path fill="#ffcd85" d="M233.66,153.61v18.52A22.34,22.34,0,0,0,256,194.47h0a22.34,22.34,0,0,0,22.34-22.34V153.54"/><path fill="#ffc166" d="M257.7,153.57v18.56a22.34,22.34,0,0,1-12,19.81,22.33,22.33,0,0,0,32.66-19.81V153.54Z"/><path fill="#595f74" d="M309.42,68.6V26.87c0-9.36-7.59-19.37-16.95-19.37H202.58V34.7a17,17,0,0,0,16.95,16.95"/><path fill="#4a4f60" d="M292.47,7.5h-30c9.36,0,16.95,10,16.95,19.37V62.94l30,5.66V26.87C309.42,17.51,301.83,7.5,292.47,7.5Z"/><path fill="#ffcd85" d="M256,51.65h0a53.42,53.42,0,0,1,53.42,53.42v45.08a8.34,8.34,0,0,1-8.34,8.34H210.92a8.34,8.34,0,0,1-8.34-8.34V105.07A53.42,53.42,0,0,1,256,51.65Z" transform="rotate(-180 256 105.07)"/><path fill="#ffc166" d="M301.08,51.65h-30A8.33,8.33,0,0,1,279.42,60v45.08A53.43,53.43,0,0,1,241,156.34a53.42,53.42,0,0,0,15,2.15h0a53.42,53.42,0,0,0,53.42-53.42V60A8.33,8.33,0,0,0,301.08,51.65Z"/><circle cx="386.42" cy="223.68" r="34.73" fill="#595f74"/><path fill="#66c1ff" d="M256,454.39a66.91,66.91,0,0,1,47.45-36L337.07,412h49.35l33.66,6.42a66.93,66.93,0,0,1,54.42,65.76V512H247.18Z"/><path fill="#4eb7ff" d="M420.08,418.38,386.42,412h-30l33.64,6.41a66.93,66.93,0,0,1,54.42,65.76V512h30V484.14A66.93,66.93,0,0,0,420.08,418.38Z"/><path fill="#ffcd85" d="M337.07,401.15v20.48a24.68,24.68,0,0,0,24.69,24.69h0a24.69,24.69,0,0,0,24.7-24.69V401.08"/><path fill="#ffc166" d="M361.76,401.12v20.51A24.68,24.68,0,0,1,349.42,443a24.56,24.56,0,0,0,12.34,3.31h0a24.69,24.69,0,0,0,24.7-24.69V401.08Z"/><path fill="#676e87" d="M420.82,307.18v-8.49a59,59,0,0,0-59.06-59.05h0a59,59,0,0,0-59.05,59.05v16Z"/><path fill="#595f74" d="M361.76,239.64h0a59.35,59.35,0,0,0-15,1.92,59.09,59.09,0,0,1,44.06,57.13v8.49l-88.11,5.62v1.91l118.11-7.53v-8.49A59,59,0,0,0,361.76,239.64Z"/><path fill="#ffcd85" d="M361.76,406.55h0a59.06,59.06,0,0,0,59.06-59.05V303.45c-2,1.08-17.24,9-33.4,1.84a37.09,37.09,0,0,1-16.68-15,61.17,61.17,0,0,1-27.15,16.11,62.2,62.2,0,0,1-40.88-3V347.5A59.05,59.05,0,0,0,361.76,406.55Z"/><path fill="#ffc166" d="M390.82,306.57V347.5a59.07,59.07,0,0,1-44.06,57.12,58.91,58.91,0,0,0,15,1.93h0a59.06,59.06,0,0,0,59.06-59.05V303.45C419,304.45,405.66,311.33,390.82,306.57Z"/><path fill="#63ea86" d="M37.5,512V484.14a66.93,66.93,0,0,1,54.42-65.76L125.54,412h49.35l33.67,6.42A66.93,66.93,0,0,1,263,484.14V512"/><path fill="#3ce568" d="M208.56,418.38,174.89,412h-30l33.64,6.41A66.93,66.93,0,0,1,233,484.14V512h30V484.14A66.93,66.93,0,0,0,208.56,418.38Z"/><path fill="#ffcd85" d="M125.54,401.15v20.48a24.69,24.69,0,0,0,24.7,24.69h0a24.68,24.68,0,0,0,24.69-24.69V401.08"/><path fill="#ffc166" d="M154,401.11v20.52A24.69,24.69,0,0,1,139.78,444a24.57,24.57,0,0,0,10.46,2.32h0a24.68,24.68,0,0,0,24.69-24.69V401.08Z"/><path fill="#676e87" d="M209.29,307.18V261.05c0-10.35-8.39-21.41-18.74-21.41H91.18v30.07a18.74,18.74,0,0,0,18.74,18.74"/><path fill="#595f74" d="M190.55,239.64h-30c10.35,0,18.74,11.06,18.74,21.41v40.47l30,5.66V261.05C209.29,250.7,200.9,239.64,190.55,239.64Z"/><path fill="#ffcd85" d="M150.24,288.45h0a59.05,59.05,0,0,1,59.05,59.05v49.84a9.22,9.22,0,0,1-9.22,9.22H100.4a9.22,9.22,0,0,1-9.22-9.22V347.5a59.05,59.05,0,0,1,59.05-59.05Z" transform="rotate(180 150.235 347.5)"/><path fill="#ffc166" d="M200.07,288.44h-30a9.22,9.22,0,0,1,9.22,9.22V347.5a59.07,59.07,0,0,1-44,57.12,58.85,58.85,0,0,0,15,1.93h0a59.05,59.05,0,0,0,59-59.05V297.66A9.22,9.22,0,0,0,200.07,288.44Z"/><path fill="#272a33" d="M421.49,411,394,405.76v0a66.59,66.59,0,0,0,34.36-58.22V298.69a66.77,66.77,0,0,0-15.22-42.31,42.2,42.2,0,1,0-57-62.1,68.2,68.2,0,0,0-46-32.46l-23.06-4.39a60.94,60.94,0,0,0,29.82-52.36V26.87a28.63,28.63,0,0,0-6.71-18C305.51,3.23,299,0,292.47,0H202.58a7.5,7.5,0,0,0-7.5,7.5V34.7a24.26,24.26,0,0,0,4.56,14.19A15.76,15.76,0,0,0,195.08,60v45.08a60.94,60.94,0,0,0,29.82,52.36l-23.06,4.39a68.11,68.11,0,0,0-55.32,66.85v3.47H91.18a7.5,7.5,0,0,0-7.5,7.5v30.07A26.09,26.09,0,0,0,89,285.49a16.65,16.65,0,0,0-5.3,12.17V347.5A66.59,66.59,0,0,0,118,405.72v0L90.51,411A74.52,74.52,0,0,0,30,484.14V504.5a7.5,7.5,0,0,0,15,0V484.14a59.51,59.51,0,0,1,48.32-58.4L118,421v.6a32.2,32.2,0,0,0,64.39,0V421l24.72,4.71a59.51,59.51,0,0,1,48.32,58.4V504.5a7.5,7.5,0,1,0,15,0V484.14a74.09,74.09,0,0,0-6.11-29.5,59.84,59.84,0,0,1,40.49-28.9L329.57,421v.6a32.2,32.2,0,0,0,64.39,0V421l24.72,4.71A59.51,59.51,0,0,1,467,484.14V504.5a7.5,7.5,0,0,0,15,0V484.14A74.52,74.52,0,0,0,421.49,411ZM386.42,196.45a27.23,27.23,0,1,1-27.23,27.23A27.27,27.27,0,0,1,386.42,196.45Zm0,69.46a42.07,42.07,0,0,0,13.24-2.14,51.7,51.7,0,0,1,13.65,34.82c-5,1.86-13.82,3.82-22.86-.16a29.79,29.79,0,0,1-13.27-11.94,7.5,7.5,0,0,0-11.8-1.41,52.88,52.88,0,0,1-55.16,13.2A51.34,51.34,0,0,1,352,248.07,42.22,42.22,0,0,0,386.42,265.91ZM210.08,15h82.39c4.59,0,9.45,6.1,9.45,11.87V44.19c-.28,0-.56,0-.84,0H219.53a9.46,9.46,0,0,1-9.45-9.45Zm0,90.07V60a.85.85,0,0,1,.84-.84h90.16a.85.85,0,0,1,.84.84v45.08a46,46,0,0,1-26.11,41.42,6.53,6.53,0,0,0-1.14.52,45.9,45.9,0,0,1-64.59-41.94Zm60.76,59.08v8a14.84,14.84,0,1,1-29.68,0v-8a60.76,60.76,0,0,0,29.68,0Zm-172.16,83h91.88c5.56,0,11.23,7,11.23,13.91v20c-.56,0-1.14-.08-1.72-.08H109.92a11.25,11.25,0,0,1-11.24-11.24Zm68.75,174.49a17.2,17.2,0,0,1-34.39,0v-9.84a66.57,66.57,0,0,0,34.36,0,6.92,6.92,0,0,0,0,.91Zm5-27.61a6.48,6.48,0,0,0-1.2.54A51.52,51.52,0,0,1,98.68,347.5V297.66A1.72,1.72,0,0,1,100.4,296h99.67a1.72,1.72,0,0,1,1.72,1.71V347.5A51.62,51.62,0,0,1,172.44,394Zm157.13,11.74L302,411A74.93,74.93,0,0,0,256,440.07,74.35,74.35,0,0,0,210,411l-27.53-5.25v0a66.59,66.59,0,0,0,34.36-58.22V261.05a30.91,30.91,0,0,0-7.23-19.4c-5.05-6-12-9.51-19-9.51h-29v-3.47a53.11,53.11,0,0,1,43.12-52.12l21.53-4.09a29.83,29.83,0,0,0,59.66,0l21.52,4.1a53.15,53.15,0,0,1,39.41,32.61,42.32,42.32,0,0,0-1.26,25,66.31,66.31,0,0,0-50.29,64.56v1a7.65,7.65,0,0,0,.24,1.86,7.28,7.28,0,0,0-.24,1.88V347.5a66.59,66.59,0,0,0,34.36,58.22ZM379,421.63a17.2,17.2,0,0,1-34.39,0v-9.84a66.57,66.57,0,0,0,34.36,0,6.92,6.92,0,0,0,0,.91ZM384,394a6.88,6.88,0,0,0-1.21.54,51.52,51.52,0,0,1-72.55-47.06V313.9a67.59,67.59,0,0,0,59.41-12.5,43.13,43.13,0,0,0,14.78,10.76,44.33,44.33,0,0,0,28.92,2.06V347.5A51.63,51.63,0,0,1,384,394Z"/></svg>