<svg xmlns="http://www.w3.org/2000/svg" data-name="Layer 1" viewBox="0 0 512 512"><rect width="497" height="333" x="7.5" y="66.5" fill="#ffe966" rx="15"/><path fill="#f7f7f7" d="M52.5,324.5v-183a30,30,0,0,0,30-30h347a30,30,0,0,0,30,30v183a30,30,0,0,0-30,30H82.5A30,30,0,0,0,52.5,324.5Z"/><path fill="#66c1ff" d="M427.73,503.34,396.85,483a7,7,0,0,0-7.7,0l-30.88,20.33a7,7,0,0,1-10.85-5.85V357.28h91.16V497.49A7,7,0,0,1,427.73,503.34Z"/><path fill="#ffe236" d="M477.68,298.9c-1.92-2.42-4.1-5.15-4.77-6.75-.76-1.82-1.18-5.31-1.58-8.69-1-8.25-2.23-18.51-10.12-26.41s-18.16-9.12-26.41-10.11c-3.37-.41-6.87-.83-8.69-1.59-1.59-.66-4.33-2.84-6.75-4.77-6.25-5-14.81-11.82-26.36-11.82s-20.11,6.83-26.37,11.82c-2.41,1.93-5.15,4.11-6.74,4.77-1.82.76-5.32,1.18-8.69,1.59-8.25,1-18.52,2.22-26.41,10.11s-9.13,18.16-10.12,26.41c-.4,3.38-.82,6.87-1.58,8.69-.67,1.6-2.85,4.33-4.77,6.75-5,6.25-11.82,14.82-11.82,26.36s6.83,20.12,11.82,26.37c1.92,2.41,4.1,5.15,4.77,6.74.76,1.83,1.18,5.32,1.58,8.7,1,8.25,2.23,18.51,10.12,26.41a29.46,29.46,0,0,0,8.8,6H452.41a29.46,29.46,0,0,0,8.8-6c7.89-7.9,9.13-18.16,10.12-26.41.4-3.38.82-6.87,1.58-8.7.67-1.59,2.85-4.33,4.77-6.74,5-6.25,11.82-14.82,11.82-26.37S482.67,305.15,477.68,298.9Z"/><path fill="#f2f2f2" d="M434.8,246.94c-3.37-.41-6.87-.83-8.69-1.59-1.59-.66-4.33-2.84-6.75-4.77-6.25-5-14.81-11.82-26.36-11.82s-20.11,6.83-26.37,11.82c-2.41,1.93-5.15,4.11-6.74,4.77-1.82.76-5.32,1.18-8.69,1.59-8.25,1-18.52,2.22-26.41,10.11s-9.13,18.16-10.12,26.41c-.4,3.38-.82,6.87-1.58,8.69-.67,1.6-2.85,4.33-4.77,6.75-5,6.25-11.82,14.82-11.82,26.36s6.83,20.12,11.82,26.37c.74.94,1.53,1.92,2.25,2.87H429.5a30,30,0,0,1,30-30v-69C451.87,249,442.47,247.86,434.8,246.94Z"/><path fill="#4eb7ff" d="M347.42,403.11c1.29.18,2.56.34,3.78.48,3.37.41,6.87.83,8.69,1.59,1.59.66,4.33,2.84,6.74,4.77,6.26,5,14.82,11.81,26.37,11.81s20.11-6.83,26.37-11.81c2.41-1.93,5.15-4.11,6.74-4.77,1.82-.76,5.32-1.18,8.69-1.59,1.22-.14,2.49-.3,3.78-.48V357.28H347.42Z"/><path fill="#fff099" d="M393,406.76c-10.36,0-18.33-11.68-27.35-15.43-9.34-3.89-23.21-1.42-30.25-8.46s-4.58-20.91-8.46-30.25c-3.75-9-15.44-17-15.44-27.36s11.69-18.33,15.44-27.35c3.88-9.34,1.41-23.2,8.46-30.25s20.91-4.58,30.25-8.46c9-3.75,17-15.44,27.35-15.44s18.33,11.69,27.35,15.44c9.34,3.88,23.21,1.41,30.25,8.46s4.58,20.91,8.46,30.25c3.75,9,15.44,17,15.44,27.35s-11.69,18.34-15.44,27.36c-3.88,9.34-1.41,23.2-8.46,30.25s-20.91,4.57-30.25,8.46C411.33,395.08,403.36,406.76,393,406.76Z"/><path fill="#f66" d="M393,406.76c-10.36,0-18.33-11.68-27.35-15.43-9.34-3.89-23.21-1.42-30.25-8.46s-4.58-20.91-8.46-30.25c-3.75-9-15.44-17-15.44-27.36s11.69-18.33,15.44-27.35c3.88-9.34,1.41-23.2,8.46-30.25s20.91-4.58,30.25-8.46c9-3.75,17-15.44,27.35-15.44s18.33,11.69,27.35,15.44c9.34,3.88,23.21,1.41,30.25,8.46s4.58,20.91,8.46,30.25c3.75,9,15.44,17,15.44,27.35s-11.69,18.34-15.44,27.36c-3.88,9.34-1.41,23.2-8.46,30.25s-20.91,4.57-30.25,8.46C411.33,395.08,403.36,406.76,393,406.76Z"/><path fill="#ff4e4e" d="M459.06,297.91c-3.88-9.34-1.41-23.2-8.46-30.25s-20.91-4.58-30.25-8.46c-9-3.75-17-15.44-27.35-15.44-5.5,0-10.33,3.3-15,7,4.12,3.23,8.12,6.73,12.35,8.49,9.34,3.88,23.21,1.41,30.25,8.46s4.58,20.91,8.46,30.25c3.75,9,15.44,17,15.44,27.35s-11.69,18.34-15.44,27.36c-3.88,9.34-1.41,23.2-8.46,30.25s-20.91,4.57-30.25,8.46c-4.23,1.76-8.23,5.26-12.35,8.48,4.67,3.66,9.5,6.95,15,6.95,10.36,0,18.33-11.68,27.35-15.43,9.34-3.89,23.21-1.42,30.25-8.46s4.58-20.91,8.46-30.25c3.75-9,15.44-17,15.44-27.36S462.81,306.93,459.06,297.91Z"/><circle cx="393" cy="325.26" r="36.5" fill="#ffe966"/><path fill="#ffe236" d="M393,288.76A36.53,36.53,0,0,0,380.53,291a36.52,36.52,0,0,1,0,68.63A36.51,36.51,0,1,0,393,288.76Z"/><path fill="#272a33" d="M489.5,59H22.5A22.52,22.52,0,0,0,0,81.5v303A22.52,22.52,0,0,0,22.5,407H339.92v90.49a14.5,14.5,0,0,0,22.47,12.11L393,489.45l30.61,20.15a14.5,14.5,0,0,0,22.47-12.11V407H489.5A22.52,22.52,0,0,0,512,384.5V81.5A22.52,22.52,0,0,0,489.5,59ZM431.08,496.56,401,476.74a14.51,14.51,0,0,0-15.94,0l-30.11,19.82V396.5a32.49,32.49,0,0,1,7.85,1.75c2.56,1.07,5.47,3.38,8.54,5.83,6,4.78,12.77,10.18,21.69,10.18s15.71-5.4,21.69-10.18c3.07-2.45,6-4.76,8.54-5.83a32.38,32.38,0,0,1,7.85-1.75Zm14.22-119c-2.39,2.39-7.88,3.05-13.18,3.68-4.89.59-9.95,1.2-14.65,3.15-4.51,1.88-8.39,5-12.13,8-4.46,3.55-8.67,6.9-12.34,6.9s-7.88-3.35-12.34-6.9c-3.74-3-7.62-6.08-12.13-8-4.7-1.95-9.76-2.56-14.65-3.15-5.3-.63-10.79-1.29-13.18-3.69s-3.05-7.87-3.69-13.18a67.5,67.5,0,0,0-2.16-11.86c-.05-.17-.1-.33-.16-.49-.25-.77-.51-1.54-.83-2.29-1.87-4.51-5-8.39-7.95-12.14-3.55-4.45-6.91-8.66-6.91-12.34s3.36-7.88,6.91-12.33c3-3.75,6.08-7.63,7.95-12.14,1.95-4.69,2.56-9.75,3.15-14.64.64-5.31,1.3-10.79,3.69-13.19s7.88-3,13.18-3.69c4.89-.58,9.95-1.19,14.65-3.14,4.51-1.88,8.38-5,12.13-8,4.46-3.55,8.67-6.91,12.34-6.91s7.88,3.36,12.34,6.91c3.74,3,7.62,6.08,12.13,8,4.7,1.95,9.76,2.56,14.65,3.14,5.3.64,10.79,1.3,13.18,3.69s3.05,7.88,3.69,13.19c.59,4.89,1.2,10,3.15,14.64.13.31.27.61.41.91l.21.46a58.77,58.77,0,0,0,7.33,10.77c3.55,4.45,6.91,8.66,6.91,12.33s-3.36,7.89-6.91,12.34c-3,3.75-6.08,7.63-7.95,12.14-1.95,4.69-2.56,9.75-3.15,14.64C448.35,369.69,447.69,375.17,445.3,377.57ZM314.18,347l0,.05h-225A37.63,37.63,0,0,0,60,317.75V148.25A37.63,37.63,0,0,0,89.25,119h333.5A37.63,37.63,0,0,0,452,148.25v111c-5.51-3.39-12.12-4.19-18.09-4.91-4.06-.49-7.9-.95-10.68-2.1-2.56-1.07-5.47-3.38-8.54-5.83-6-4.78-12.77-10.19-21.69-10.19s-15.71,5.41-21.69,10.19c-3.07,2.45-6,4.76-8.54,5.83-2.78,1.15-6.62,1.61-10.68,2.1-7.47.9-15.94,1.92-22,8s-7.07,14.52-8,22c-.49,4.06-.95,7.89-2.11,10.67-1.06,2.57-3.38,5.47-5.83,8.55-4.77,6-10.18,12.76-10.18,21.68S309.41,341,314.18,347ZM497,384.5a7.5,7.5,0,0,1-7.5,7.5H450.65a21.5,21.5,0,0,0,5.26-3.83c6.06-6.06,7.07-14.53,8-22,.49-4.06.95-7.89,2.11-10.67,1.06-2.57,3.38-5.47,5.83-8.55,4.77-6,10.18-12.76,10.18-21.69s-5.41-15.7-10.18-21.68A63.83,63.83,0,0,1,467,297V141.5a7.5,7.5,0,0,0-7.5-7.5A22.52,22.52,0,0,1,437,111.5a7.5,7.5,0,0,0-7.5-7.5H82.5a7.5,7.5,0,0,0-7.5,7.5A22.52,22.52,0,0,1,52.5,134a7.5,7.5,0,0,0-7.5,7.5v183a7.5,7.5,0,0,0,7.5,7.5A22.52,22.52,0,0,1,75,354.5a7.5,7.5,0,0,0,7.5,7.5H321.58c.2,1.34.37,2.74.54,4.17.89,7.47,1.91,15.94,8,22a21.5,21.5,0,0,0,5.26,3.83H22.5a7.5,7.5,0,0,1-7.5-7.5V81.5A7.5,7.5,0,0,1,22.5,74h467a7.5,7.5,0,0,1,7.5,7.5Zm-228.63-70c-15,5.61-28.56,6.82-40.42,3.59a62.35,62.35,0,0,1-12.6-5.19c-5.18-2.62-10.54-5.33-18.66-6.65-13.68-2.23-28.06.69-42.77,8.68a7.5,7.5,0,1,0,7.16,13.18c11.71-6.36,22.89-8.73,33.2-7.06,5.83,1,9.75,2.94,14.3,5.23A75.88,75.88,0,0,0,224,332.54a66.61,66.61,0,0,0,17.57,2.3c10.11,0,20.84-2.11,32-6.32a7.5,7.5,0,0,0-5.26-14ZM301,269H97.5a7.5,7.5,0,0,0,0,15H301a7.5,7.5,0,0,0,0-15Zm0-30H97.5a7.5,7.5,0,0,0,0,15H301a7.5,7.5,0,0,0,0-15Zm92,42.26a44,44,0,1,0,44,44A44.05,44.05,0,0,0,393,281.26Zm0,73a29,29,0,1,1,29-29A29,29,0,0,1,393,354.26ZM180,216.5a7.5,7.5,0,0,0,7.5,7.5h227a7.5,7.5,0,0,0,0-15h-227A7.5,7.5,0,0,0,180,216.5ZM97.5,224h47a7.5,7.5,0,0,0,0-15h-47a7.5,7.5,0,0,0,0,15Zm60-60h197a7.5,7.5,0,0,0,0-15h-197a7.5,7.5,0,0,0,0,15Z"/></svg>