<svg xmlns="http://www.w3.org/2000/svg" data-name="Layer 1" viewBox="0 0 512 512"><rect width="465" height="462.21" x="23.5" y="42.29" fill="#f7f7f7"/><rect width="30" height="462.21" x="458.5" y="42.29" fill="#dedede"/><rect width="497" height="35" x="7.5" y="7.29" fill="#676e87" rx="10"/><path fill="#595f74" d="M494.5,7.29h-30a10,10,0,0,1,10,10v15a10,10,0,0,1-10,10h30a10,10,0,0,0,10-10v-15A10,10,0,0,0,494.5,7.29Z"/><rect width="497" height="35" x="7.5" y="142.29" fill="#676e87" rx="10"/><path fill="#595f74" d="M494.5,142.29h-30a10,10,0,0,1,10,10v15a10,10,0,0,1-10,10h30a10,10,0,0,0,10-10v-15A10,10,0,0,0,494.5,142.29Z"/><rect width="497" height="35" x="7.5" y="277.29" fill="#676e87" rx="10"/><path fill="#595f74" d="M494.5,277.29h-30a10,10,0,0,1,10,10v15a10,10,0,0,1-10,10h30a10,10,0,0,0,10-10v-15A10,10,0,0,0,494.5,277.29Z"/><rect width="174.01" height="117.16" x="168.99" y="387.34" fill="#8cd0ff"/><path fill="#66c1ff" d="M248.5,504.5V387.34a7.5,7.5,0,1,1,15,0V504.5Z"/><rect width="465" height="100" x="23.5" y="177.29" fill="#b3e0ff"/><rect width="93" height="100" x="302.5" y="177.29" fill="#8cd0ff"/><rect width="93" height="100" x="116.5" y="177.29" fill="#8cd0ff"/><rect width="465" height="100" x="23.5" y="42.29" fill="#b3e0ff"/><rect width="93" height="100" x="302.5" y="42.29" fill="#8cd0ff"/><rect width="93" height="100" x="116.5" y="42.29" fill="#8cd0ff"/><rect width="79.89" height="49.24" x="376.05" y="418.56" fill="#8cd0ff" rx="6"/><path fill="#66c1ff" d="M450,418.56H420a6,6,0,0,1,6,6v37.23a6,6,0,0,1-6,6h30a6,6,0,0,0,6-6V424.56A6,6,0,0,0,450,418.56Z"/><rect width="79.89" height="49.24" x="56.05" y="418.56" fill="#8cd0ff" rx="6"/><path fill="#66c1ff" d="M130,418.56H100a6,6,0,0,1,6,6v37.23a6,6,0,0,1-6,6h30a6,6,0,0,0,6-6V424.56A6,6,0,0,0,130,418.56Z"/><rect width="204.01" height="30" x="153.99" y="357.34" fill="#676e87" rx="8"/><path fill="#595f74" d="M350,357.34H320a8,8,0,0,1,8,8v14a8,8,0,0,1-8,8h30a8,8,0,0,0,8-8v-14A8,8,0,0,0,350,357.34Z"/><polygon fill="#d9f0ff" points="405.19 277.29 400.53 277.29 460.53 177.29 465.19 177.29 405.19 277.29"/><polygon fill="#d9f0ff" points="423.15 277.29 410.58 277.29 470.58 177.29 483.15 177.29 423.15 277.29"/><polygon fill="#b3e0ff" points="313.63 277.29 308.97 277.29 368.97 177.29 373.63 177.29 313.63 277.29"/><polygon fill="#b3e0ff" points="331.59 277.29 319.02 277.29 379.02 177.29 391.59 177.29 331.59 277.29"/><polygon fill="#b3e0ff" points="258.83 497 254.18 497 319.98 387.34 324.63 387.34 258.83 497"/><polygon fill="#b3e0ff" points="276.8 497 264.23 497 330.03 387.34 342.6 387.34 276.8 497"/><polygon fill="#b3e0ff" points="168.99 496.75 234.63 387.33 229.98 387.33 168.99 488.98 168.99 496.75"/><polygon fill="#b3e0ff" points="186.8 497 174.23 497 240.03 387.34 252.6 387.34 186.8 497"/><polygon fill="#d9f0ff" points="218.29 277.29 213.64 277.29 273.64 177.29 278.29 177.29 218.29 277.29"/><polygon fill="#d9f0ff" points="236.26 277.29 223.69 277.29 283.69 177.29 296.26 177.29 236.26 277.29"/><polygon fill="#d9f0ff" points="34.77 277.29 30.12 277.29 90.12 177.29 94.78 177.29 34.77 277.29"/><polygon fill="#d9f0ff" points="52.74 277.29 40.17 277.29 100.17 177.29 112.74 177.29 52.74 277.29"/><polygon fill="#b3e0ff" points="128.66 277.29 124 277.29 184 177.29 188.66 177.29 128.66 277.29"/><polygon fill="#b3e0ff" points="146.62 277.29 134.06 277.29 194.06 177.29 206.62 177.29 146.62 277.29"/><polygon fill="#d9f0ff" points="405.19 142.29 400.53 142.29 460.53 42.29 465.19 42.29 405.19 142.29"/><polygon fill="#d9f0ff" points="423.15 142.29 410.58 142.29 470.58 42.29 483.15 42.29 423.15 142.29"/><polygon fill="#b3e0ff" points="313.63 142.29 308.97 142.29 368.97 42.29 373.63 42.29 313.63 142.29"/><polygon fill="#b3e0ff" points="331.59 142.29 319.02 142.29 379.02 42.29 391.59 42.29 331.59 142.29"/><polygon fill="#d9f0ff" points="218.29 142.29 213.64 142.29 273.64 42.29 278.29 42.29 218.29 142.29"/><polygon fill="#d9f0ff" points="236.26 142.29 223.69 142.29 283.69 42.29 296.26 42.29 236.26 142.29"/><polygon fill="#d9f0ff" points="52.74 142.29 40.17 142.29 100.17 42.29 112.74 42.29 52.74 142.29"/><polygon fill="#b3e0ff" points="128.66 142.29 124 142.29 184 42.29 188.66 42.29 128.66 142.29"/><polygon fill="#d9f0ff" points="34.77 142.29 30.12 142.29 90.12 42.29 94.78 42.29 34.77 142.29"/><polygon fill="#b3e0ff" points="146.62 142.29 134.06 142.29 194.06 42.29 206.62 42.29 146.62 142.29"/><path fill="#272a33" d="M512,32.29v-15A17.52,17.52,0,0,0,494.5-.21H17.5A17.52,17.52,0,0,0,0,17.29v15A17.52,17.52,0,0,0,16,49.72v85.15A17.51,17.51,0,0,0,0,152.29v15a17.52,17.52,0,0,0,16,17.43v85.15A17.51,17.51,0,0,0,0,287.29v15a17.52,17.52,0,0,0,16,17.43V497H7.5a7.5,7.5,0,0,0,0,15h497a7.5,7.5,0,0,0,0-15H496V319.72a17.52,17.52,0,0,0,16-17.43v-15a17.51,17.51,0,0,0-16-17.42V184.72a17.52,17.52,0,0,0,16-17.43v-15a17.51,17.51,0,0,0-16-17.42V49.72A17.52,17.52,0,0,0,512,32.29ZM248.5,497h-72V394.84h72Zm87,0h-72V394.84h72ZM350,379.84H162a.51.51,0,0,1-.5-.5v-14a.5.5,0,0,1,.5-.5H350a.5.5,0,0,1,.5.5v14A.51.51,0,0,1,350,379.84ZM481,497H350.51V394.81a15.51,15.51,0,0,0,15-15.47v-14a15.52,15.52,0,0,0-15.5-15.5H162a15.52,15.52,0,0,0-15.5,15.5v14a15.51,15.51,0,0,0,15,15.47V497H31V319.79H481Zm16-209.71v15a2.5,2.5,0,0,1-2.5,2.5H17.5a2.5,2.5,0,0,1-2.5-2.5v-15a2.5,2.5,0,0,1,2.5-2.5h477A2.5,2.5,0,0,1,497,287.29ZM31,269.79v-85h78v85Zm93,0v-85h78v85Zm93,0v-85h78v85Zm93,0v-85h78v85Zm93,0v-85h78v85Zm94-117.5v15a2.5,2.5,0,0,1-2.5,2.5H17.5a2.5,2.5,0,0,1-2.5-2.5v-15a2.5,2.5,0,0,1,2.5-2.5h477A2.5,2.5,0,0,1,497,152.29ZM31,134.79v-85h78v85Zm93,0v-85h78v85Zm93,0v-85h78v85Zm93,0v-85h78v85Zm93,0v-85h78v85Zm91.5-100H17.5a2.5,2.5,0,0,1-2.5-2.5v-15a2.5,2.5,0,0,1,2.5-2.5h477a2.5,2.5,0,0,1,2.5,2.5v15A2.5,2.5,0,0,1,494.5,34.79ZM56.05,475.29H136a7.5,7.5,0,0,0,7.5-7.5V418.56a7.5,7.5,0,0,0-7.5-7.5H56.05a7.5,7.5,0,0,0-7.5,7.5v49.23A7.5,7.5,0,0,0,56.05,475.29Zm7.5-49.23h64.9v34.23H63.55Zm312.5,49.23H456a7.5,7.5,0,0,0,7.5-7.5V418.56a7.5,7.5,0,0,0-7.5-7.5h-79.9a7.5,7.5,0,0,0-7.5,7.5v49.23A7.5,7.5,0,0,0,376.05,475.29Zm7.5-49.23h64.9v34.23h-64.9Z"/></svg>