<svg xmlns="http://www.w3.org/2000/svg" data-name="Layer 1" viewBox="0 0 512 512"><path fill="#66c1ff" d="M333.64,504.5H37.81a30,30,0,0,1-30-30V433.88l2.25-23.24c.06-.68.14-1.35.22-2C14,378.47,36.52,354,66,346.75l73.42-13.46,63.14-95.15,63.88,94.5,7.3,1.42,65.38,12.69c29.49,7.26,52,31.72,55.73,61.87.09.67.16,1.34.23,2l2.25,23.24C401,471.72,371.45,504.5,333.64,504.5Z"/><polygon fill="#ffcd85" points="146.79 322.21 202.58 238.14 259.02 321.63 202.58 371.73 146.79 322.21"/><path fill="#ffc166" d="M202.58,238.14l-7.43,11.2,40.42,59.79a17.2,17.2,0,0,1-2.83,22.51l-37.66,33.43,7.5,6.66L259,321.63Z"/><path fill="#ff4e4e" d="M321.76,504.5V443.25a7.5,7.5,0,0,1,15,0V504.5Z"/><path fill="#f66" d="M246.89 408.32l42.52-52.8a4 4 0 0 0 .28-4.63l-20.26-32.27a4 4 0 0 0-6-.87l-60.81 54 38.42 37A4 4 0 0 0 246.89 408.32zM157.64 407.47l-41.36-51.35a5 5 0 0 1-.3-5.86L135.6 320a5 5 0 0 1 7.51-1l59.53 52.77L165 407.94A5 5 0 0 1 157.64 407.47z"/><path fill="#4eb7ff" d="M246.89 408.32l42.52-52.8a4 4 0 0 0 .28-4.63l-20.26-32.27a4 4 0 0 0-6-.87l-60.81 54 38.42 37A4 4 0 0 0 246.89 408.32zM157.64 407.47l-41.36-51.35a5 5 0 0 1-.3-5.86L135.6 320a5 5 0 0 1 7.51-1l59.53 52.77L165 407.94A5 5 0 0 1 157.64 407.47z"/><path fill="#676e87" d="M248.47,176.72l-122.4-1.3V119.74c0-15.86,13.71-32.81,30.62-32.81H274.08a5,5,0,0,1,5,5V148C279.08,163.86,265.38,176.72,248.47,176.72Z"/><path fill="#595f74" d="M274.08,86.93h-30a5,5,0,0,1,5,5V148c0,15.85-13.7,28.71-30.61,28.71l-92.4,21.67v7l122.4-28.7c16.91,0,30.61-12.86,30.61-28.71V91.93A5,5,0,0,0,274.08,86.93Z"/><path fill="#ffcd85" d="M141.07,161.72h123a15,15,0,0,1,15,15v62.64a76.51,76.51,0,0,1-76.51,76.51h0a76.51,76.51,0,0,1-76.51-76.51V176.72a15,15,0,0,1,15-15Z"/><path fill="#ffc166" d="M264.08,161.72h-30a15,15,0,0,1,15,15v62.63a76.53,76.53,0,0,1-61.5,75,77.15,77.15,0,0,0,15,1.48h0a76.51,76.51,0,0,0,76.5-76.51V176.72A15,15,0,0,0,264.08,161.72Z"/><path fill="#ffcd85" d="M279.08,186h13.44a12.91,12.91,0,0,1,12.91,12.91V219a12.91,12.91,0,0,1-12.91,12.91H279.08a0,0,0,0,1,0,0V186A0,0,0,0,1,279.08,186Z"/><path fill="#ffc166" d="M99.72,186h13.44a12.91,12.91,0,0,1,12.91,12.91V219a12.91,12.91,0,0,1-12.91,12.91H99.72a0,0,0,0,1,0,0V186A0,0,0,0,1,99.72,186Z" transform="rotate(180 112.895 208.98)"/><rect width="227.41" height="171.27" x="277.09" y="333.23" fill="#ffc166" rx="16.9"/><path fill="#ffb74e" d="M487.6,333.23h-30a16.9,16.9,0,0,1,16.9,16.9V487.6a16.89,16.89,0,0,1-16.9,16.9h30a16.89,16.89,0,0,0,16.9-16.9V350.13A16.9,16.9,0,0,0,487.6,333.23Z"/><path fill="#ffae36" d="M504.5,384.63,402,435.78a28,28,0,0,1-22.36,0L277.09,384.63v-34.5A16.9,16.9,0,0,1,294,333.23H487.6a16.9,16.9,0,0,1,16.9,16.9Z"/><path fill="#ffa41f" d="M499.55,338.18a17.12,17.12,0,0,0-2.5-2.06,16.8,16.8,0,0,0-9.45-2.89h-30a16.9,16.9,0,0,1,16.9,16.9v49.46l30-15v-34.5A16.84,16.84,0,0,0,499.55,338.18Z"/><rect width="45.99" height="45.99" x="367.8" y="415.11" fill="#676e87" rx="7"/><path fill="#595f74" d="M406.79,415.11h-15a7,7,0,0,1,7,7v32a7,7,0,0,1-7,7h15a7,7,0,0,0,7-7v-32A7,7,0,0,0,406.79,415.11Z"/><path fill="#272a33" d="M235.91,213.2a7.5,7.5,0,0,0,7.5-7.5V196a7.5,7.5,0,0,0-15,0v9.68A7.5,7.5,0,0,0,235.91,213.2ZM487.6,325.73H457.29V310.89a26.2,26.2,0,0,0-26.18-26.17H350.47a26.2,26.2,0,0,0-26.17,26.17v14.84H294a24.27,24.27,0,0,0-9.9,2.11l-8.29-13.21a11.5,11.5,0,0,0-15.17-4L256.16,304a83.87,83.87,0,0,0,30.42-64.56h5.94A20.43,20.43,0,0,0,312.93,219v-20.1a20.43,20.43,0,0,0-20.41-20.41h-5.94V170.6a16.3,16.3,0,0,0-2.76-9.09,34.71,34.71,0,0,0,2.76-13.5V91.93a12.51,12.51,0,0,0-12.5-12.5H156.69c-21.82,0-38.12,21.28-38.12,40.31v58.78h-5.94a20.44,20.44,0,0,0-20.41,20.41V219a20.44,20.44,0,0,0,20.41,20.41h5.94a83.88,83.88,0,0,0,31,65l-4.45,6.71A13.41,13.41,0,0,0,130,312.62l-20.09,16.7a13.74,13.74,0,0,0-2,2.13l-43.2,7.92-.44.1c-32.65,8-57.32,35.45-61.4,68.31-.09.73-.18,1.46-.24,2.14L.34,433.16q0,.36,0,.72V474.5A37.54,37.54,0,0,0,37.81,512H288.64a7.42,7.42,0,0,0,1.89-.25A24.58,24.58,0,0,0,294,512H487.6A24.42,24.42,0,0,0,512,487.6V350.13A24.43,24.43,0,0,0,487.6,325.73Zm-201-132.21h5.94a5.41,5.41,0,0,1,5.41,5.41V219a5.41,5.41,0,0,1-5.41,5.41h-5.94Zm-168,30.92h-5.94a5.42,5.42,0,0,1-5.41-5.41v-20.1a5.42,5.42,0,0,1,5.41-5.41h5.94Zm15-104.7c0-11.47,10.31-25.31,23.12-25.31H271.58V148a19.32,19.32,0,0,1-1,6.22H136.07a17.21,17.21,0,0,0-2.5.2Zm0,119.61V171.72a2.5,2.5,0,0,1,2.5-2.5H270.19a1.38,1.38,0,0,1,1.39,1.38v68.75a69.08,69.08,0,0,1-69,69h0A69.09,69.09,0,0,1,133.57,239.35Zm115.56,81L202.6,361.68l-46-40.75,5.35-8.06a83.72,83.72,0,0,0,81.81-.37ZM138.61,325l53,47-29.36,28.26L120.57,340ZM83.4,497V443.25a7.5,7.5,0,0,0-15,0V497H37.81a22.52,22.52,0,0,1-22.5-22.5V434.24l2.22-22.94c0-.59.12-1.17.19-1.75C21,383,41.06,360.71,67.6,354.09l39.51-7.25c.12.18.22.36.34.54l43.43,62.81a13.53,13.53,0,0,0,9.76,5.76q.68.06,1.35.06a13.45,13.45,0,0,0,9.36-3.77l31.26-30.07L235.8,414.1a11.52,11.52,0,0,0,8,3.22l.72,0a11.5,11.5,0,0,0,8.23-4.26l16.85-20.93v95.5a24.31,24.31,0,0,0,1.89,9.4ZM269.58,350.13v18.06l-26.13,32.45L213.63,372l50.19-44.55.1-.09,1.36-1.21,7.51,12A24.17,24.17,0,0,0,269.58,350.13Zm69.72-39.24a11.18,11.18,0,0,1,11.17-11.17h80.64a11.18,11.18,0,0,1,11.18,11.17v14.84h-103ZM497,487.6a9.4,9.4,0,0,1-9.4,9.4H294a9.41,9.41,0,0,1-9.4-9.4V396.75l75.72,37.77v19.59a14.52,14.52,0,0,0,14.5,14.5h32a14.52,14.52,0,0,0,14.5-14.5V434.52L497,396.75Zm-121.7-34v-31h31v31ZM497,380l-76.3,38.06a14.52,14.52,0,0,0-13.91-10.44h-32a14.53,14.53,0,0,0-13.92,10.44L284.58,380V350.13a9.41,9.41,0,0,1,9.4-9.4H487.6a9.41,9.41,0,0,1,9.4,9.4ZM202.58,409.5a7.5,7.5,0,1,0,7.5,7.5A7.5,7.5,0,0,0,202.58,409.5Zm0,60a7.5,7.5,0,1,0,7.5,7.5A7.5,7.5,0,0,0,202.58,469.5Zm0-30a7.5,7.5,0,1,0,7.5,7.5A7.5,7.5,0,0,0,202.58,439.5ZM169.24,213.2a7.5,7.5,0,0,0,7.5-7.5V196a7.5,7.5,0,1,0-15,0v9.68A7.5,7.5,0,0,0,169.24,213.2Zm11,55.9a40.64,40.64,0,0,0,21.7,6.74h.72a41.31,41.31,0,0,0,22.43-6.75,7.5,7.5,0,0,0-8.26-12.52,25.61,25.61,0,0,1-28.33,0,7.5,7.5,0,0,0-8.26,12.52Z"/></svg>