<svg xmlns="http://www.w3.org/2000/svg" data-name="Layer 1" viewBox="0 0 512 512"><path fill="#66c1ff" d="M372.72,6.1H139.28A23.9,23.9,0,0,0,115.38,30V90.55a23.9,23.9,0,0,0,23.9,23.9h91a6.37,6.37,0,0,1,4.51,1.87L251.49,133a6.4,6.4,0,0,0,9,0l16.71-16.72a6.37,6.37,0,0,1,4.51-1.87h91a23.9,23.9,0,0,0,23.9-23.9V30A23.9,23.9,0,0,0,372.72,6.1Z"/><path fill="#4eb7ff" d="M372.72,6.1h-30A23.9,23.9,0,0,1,366.62,30V90.55a23.9,23.9,0,0,1-23.9,23.9h30a23.9,23.9,0,0,0,23.9-23.9V30A23.9,23.9,0,0,0,372.72,6.1Z"/><path fill="#f66" d="M409.05,449v31.91a23.58,23.58,0,0,1-23.58,23.58H126.53A23.58,23.58,0,0,1,103,480.92V449l1.77-18.27q.07-.8.18-1.59c2.94-23.68,20.62-42.9,43.8-48.61L206.39,370,256,295.2l50.2,74.25,57.1,11.09c23.18,5.71,40.86,24.93,43.8,48.61q.11.8.18,1.59Z"/><polygon fill="#ffcd85" points="211.73 361.91 256 295.2 300.81 361.47 256 401.24 211.73 361.91"/><path fill="#ffc166" d="M256,295.2l-9.39,14.16L273.38,349a17.23,17.23,0,0,1-2.84,22.54l-24,21.32,9.48,8.42,44.8-39.77Z"/><path fill="#ff4e4e" d="M292,427.71l34.26-51.22a5,5,0,0,0-1.23-6.84L309.81,358.7a5,5,0,0,0-6.24.32L256,401.24l28.36,27.29A5,5,0,0,0,292,427.71Z"/><path fill="#ff4e4e" d="M220.06,427.71,185.8,376.49a5,5,0,0,1,1.23-6.84l15.21-10.95a5,5,0,0,1,6.24.32l47.57,42.22-28.37,27.29A5,5,0,0,1,220.06,427.71Z"/><path fill="#676e87" d="M292.06,245.54l-96.18,22.55V200.76c0-12.45,10.78-25.78,24.06-25.78h92.25a3.93,3.93,0,0,1,3.93,3.93V223C316.12,235.44,305.34,245.54,292.06,245.54Z"/><path fill="#595f74" d="M312.19,175H290.36a3.92,3.92,0,0,1,3.92,3.93V223c0,12.46-10.77,22.56-24,22.56L195.88,263v5.12l96.18-22.55c13.28,0,24.06-10.1,24.06-22.56V178.91A3.93,3.93,0,0,0,312.19,175Z"/><path fill="#ffcd85" d="M205.88,233.75H306.12a10,10,0,0,1,10,10V299a55.89,55.89,0,0,1-55.89,55.89h-8.46A55.89,55.89,0,0,1,195.88,299V243.75a10,10,0,0,1,10-10Z"/><path fill="#ffc166" d="M306.12,233.75H281.55a10,10,0,0,1,10,10V299a55.89,55.89,0,0,1-47.83,55.3,56.18,56.18,0,0,0,8.05.59h8.46A55.89,55.89,0,0,0,316.12,299V243.75A10,10,0,0,0,306.12,233.75Z"/><path fill="#ffe966" d="M259.35 33.92l6.29 12.74a3.72 3.72 0 0 0 2.8 2.05l14.07 2a3.73 3.73 0 0 1 2.07 6.36L274.4 67a3.74 3.74 0 0 0-1.07 3.31l2.4 14a3.73 3.73 0 0 1-5.41 3.93l-12.58-6.62a3.75 3.75 0 0 0-3.48 0l-12.58 6.62a3.73 3.73 0 0 1-5.41-3.93l2.4-14A3.74 3.74 0 0 0 237.6 67l-10.18-9.92a3.73 3.73 0 0 1 2.07-6.36l14.07-2a3.72 3.72 0 0 0 2.8-2.05l6.29-12.74A3.74 3.74 0 0 1 259.35 33.92zM342.67 33.92L349 46.66a3.72 3.72 0 0 0 2.81 2.05l14.06 2a3.73 3.73 0 0 1 2.07 6.36L357.72 67a3.74 3.74 0 0 0-1.07 3.31l2.4 14a3.73 3.73 0 0 1-5.41 3.93l-12.58-6.62a3.75 3.75 0 0 0-3.48 0L325 88.28a3.73 3.73 0 0 1-5.41-3.93l2.4-14A3.74 3.74 0 0 0 320.92 67l-10.18-9.92a3.73 3.73 0 0 1 2.07-6.36l14.07-2a3.72 3.72 0 0 0 2.8-2.05L336 33.92A3.73 3.73 0 0 1 342.67 33.92z"/><path fill="#ffe236" d="M367.9 57.11a3.73 3.73 0 0 0-2.07-6.36l-14.06-2A3.72 3.72 0 0 1 349 46.66l-6.29-12.74a3.73 3.73 0 0 0-6.69 0l-6.3 12.74a3.12 3.12 0 0 1-.27.43l.26.53a13.22 13.22 0 0 0 9.94 7.22h0A8.29 8.29 0 0 1 344.2 69h0a13.18 13.18 0 0 0-3.79 11.68l.13.81a4.6 4.6 0 0 1 .52.19l12.58 6.62a3.73 3.73 0 0 0 5.41-3.93l-2.4-14A3.74 3.74 0 0 1 357.72 67zM284.58 57.11a3.73 3.73 0 0 0-2.07-6.36l-14.07-2a3.72 3.72 0 0 1-2.8-2.05l-6.29-12.74a3.74 3.74 0 0 0-6.7 0l-6.29 12.74a3.12 3.12 0 0 1-.27.43l.26.53a13.22 13.22 0 0 0 9.94 7.22h0A8.29 8.29 0 0 1 260.88 69h0a13.18 13.18 0 0 0-3.79 11.68l.13.81a4.6 4.6 0 0 1 .52.19l12.58 6.62a3.73 3.73 0 0 0 5.41-3.93l-2.4-14A3.74 3.74 0 0 1 274.4 67z"/><path fill="#ffe966" d="M176,33.92l6.3,12.74a3.72,3.72,0,0,0,2.8,2.05l14.07,2a3.73,3.73,0,0,1,2.07,6.36L191.08,67A3.74,3.74,0,0,0,190,70.34l2.4,14A3.73,3.73,0,0,1,187,88.28l-12.58-6.62a3.75,3.75,0,0,0-3.48,0l-12.58,6.62A3.73,3.73,0,0,1,153,84.35l2.4-14A3.74,3.74,0,0,0,154.28,67L144.1,57.11a3.73,3.73,0,0,1,2.07-6.36l14.06-2A3.72,3.72,0,0,0,163,46.66l6.29-12.74A3.73,3.73,0,0,1,176,33.92Z"/><path fill="#ffe236" d="M201.26,57.11a3.73,3.73,0,0,0-2.07-6.36l-14.07-2a3.72,3.72,0,0,1-2.8-2.05L176,33.92a3.73,3.73,0,0,0-6.69,0L163,46.66a3.12,3.12,0,0,1-.27.43l.26.53A13.22,13.22,0,0,0,173,54.84h0A8.29,8.29,0,0,1,177.56,69h0a13.21,13.21,0,0,0-3.8,11.68l.14.81a4.6,4.6,0,0,1,.52.19L187,88.28a3.73,3.73,0,0,0,5.41-3.93l-2.4-14A3.74,3.74,0,0,1,191.08,67Z"/><path fill="#272a33" d="M231,72.42l-2.07,12.06a11.22,11.22,0,0,0,16.29,11.84L256,90.62l10.83,5.7a11.23,11.23,0,0,0,16.29-11.84l-2.07-12.06,8.76-8.54a11.22,11.22,0,0,0-6.22-19.15L271.48,43l-5.41-11a11.23,11.23,0,0,0-20.14,0l-5.41,11-12.11,1.76a11.22,11.22,0,0,0-6.22,19.15Zm13.68-14.89a11.23,11.23,0,0,0,8.46-6.15L256,45.49l2.91,5.9a11.24,11.24,0,0,0,8.46,6.14l6.51.94-4.72,4.6A11.21,11.21,0,0,0,265.94,73l1.11,6.48-5.82-3.06a11.25,11.25,0,0,0-10.46,0L245,79.48,246.07,73a11.25,11.25,0,0,0-3.24-9.94l-4.71-4.59ZM416.51,448.29,414.74,430c-.06-.6-.12-1.19-.2-1.79-3.28-26.41-23.15-48.5-49.44-55l-.37-.08-33.39-6.48A12.47,12.47,0,0,0,329.4,365L314.19,354a12.45,12.45,0,0,0-10.66-1.9l-2.32-3.43a63.25,63.25,0,0,0,22.41-48.3V245.15a17.37,17.37,0,0,0-2.53-9,28.77,28.77,0,0,0,2.53-11.76V180.31a11.45,11.45,0,0,0-11.43-11.43H219.94c-18.06,0-31.56,17.57-31.56,33.28v98.22a63.28,63.28,0,0,0,22.87,48.7l-2.14,3.21A12.44,12.44,0,0,0,197.85,354L182.65,365a12.14,12.14,0,0,0-2.3,2.16l-33,6.05-.44.09c-26.29,6.47-46.16,28.56-49.44,55-.08.6-.14,1.19-.2,1.79l-1.77,18.27c0,.24,0,.48,0,.72v31.92A31.11,31.11,0,0,0,126.53,512H385.47a31.11,31.11,0,0,0,31.08-31.07V449C416.55,448.77,416.53,448.53,416.51,448.29ZM307.05,367.36l11.62,8.36-31.26,46.73-20.36-19.59Zm-51,25.23-35-31.08,2.82-4.25a63,63,0,0,0,28,6.51h8.46A63,63,0,0,0,288.71,357l2.79,4.12ZM203.38,202.16c0-8.28,7.39-18.28,16.56-18.28h88.68v40.5a13.44,13.44,0,0,1-.44,3.4,17.53,17.53,0,0,0-2.06-.13H205.88a17.21,17.21,0,0,0-2.5.2Zm0,98.22V245.15a2.5,2.5,0,0,1,2.5-2.5H306.12a2.5,2.5,0,0,1,2.5,2.5v55.23a48.45,48.45,0,0,1-48.39,48.39h-8.46A48.45,48.45,0,0,1,203.38,300.38Zm1.61,67,.27.23a7.57,7.57,0,0,0,1.69,1.54l.11.06L245,402.86l-20.37,19.59-31.26-46.73ZM401.55,480.93A16.1,16.1,0,0,1,385.47,497H363V467.73a7.5,7.5,0,0,0-15,0V497H164V467.73a7.5,7.5,0,0,0-15,0V497H126.53a16.1,16.1,0,0,1-16.08-16.07V449.37l1.74-17.9c0-.46.09-.93.15-1.39,2.51-20.21,17.75-37.14,37.94-42.2l29.55-5.42,34,50.82a12.48,12.48,0,0,0,19,2.05L256,413.07l23.14,22.26a12.46,12.46,0,0,0,8.66,3.5,12.22,12.22,0,0,0,1.35-.08,12.44,12.44,0,0,0,9.05-5.47h0l34.18-51.1,29.29,5.69c20.21,5.05,35.46,22,38,42.21.06.46.11.93.15,1.39l1.74,17.9ZM147.62,72.42l-2.06,12.06a11.22,11.22,0,0,0,16.29,11.84l10.83-5.7,10.82,5.7a11.24,11.24,0,0,0,16.3-11.84l-2.07-12.06,8.76-8.54a11.22,11.22,0,0,0-6.22-19.15L188.16,43l-5.41-11a11.23,11.23,0,0,0-20.14,0L157.2,43l-12.11,1.76a11.22,11.22,0,0,0-6.22,19.15Zm13.69-14.89a11.23,11.23,0,0,0,8.46-6.15l2.91-5.89,2.91,5.89a11.23,11.23,0,0,0,8.46,6.15l6.5.94-4.71,4.6A11.25,11.25,0,0,0,182.61,73l1.12,6.48-5.83-3.06a11.23,11.23,0,0,0-10.45,0l-5.82,3.06L162.74,73a11.23,11.23,0,0,0-3.23-10l-4.71-4.59Zm153,14.89L312.2,84.48a11.22,11.22,0,0,0,16.29,11.84l10.83-5.7,10.83,5.7a11.23,11.23,0,0,0,16.29-11.84l-2.06-12.06,8.76-8.54a11.23,11.23,0,0,0-6.23-19.15L354.8,43l-5.41-11a11.23,11.23,0,0,0-20.14,0l-5.41,11-12.11,1.76a11.22,11.22,0,0,0-6.22,19.15ZM328,57.53a11.23,11.23,0,0,0,8.46-6.15l2.91-5.89,2.91,5.89a11.23,11.23,0,0,0,8.46,6.15l6.51.94-4.72,4.6A11.21,11.21,0,0,0,349.26,73l1.11,6.48-5.82-3.06a11.25,11.25,0,0,0-10.46,0l-5.82,3.06L329.38,73a11.25,11.25,0,0,0-3.22-10l-4.71-4.59ZM256,432.8a7.5,7.5,0,1,0,7.5,7.5A7.5,7.5,0,0,0,256,432.8ZM235.41,310.48a7.5,7.5,0,0,0,2.13,10.39,33.5,33.5,0,0,0,17.9,5.56H256a34,34,0,0,0,18.53-5.57,7.5,7.5,0,0,0-8.26-12.52,18.51,18.51,0,0,1-20.49,0A7.5,7.5,0,0,0,235.41,310.48Zm-5.61-33.27a7.5,7.5,0,0,0,7.5-7.5V262.1a7.5,7.5,0,1,0-15,0v7.61A7.5,7.5,0,0,0,229.8,277.21Zm52.4,0a7.5,7.5,0,0,0,7.5-7.5V262.1a7.5,7.5,0,1,0-15,0v7.61A7.5,7.5,0,0,0,282.2,277.21ZM256,467.73a7.5,7.5,0,1,0,7.5,7.5A7.5,7.5,0,0,0,256,467.73ZM139.28,123.35H229.8l16.39,16.39a13.91,13.91,0,0,0,19.62,0l16.39-16.39h90.52A31.43,31.43,0,0,0,404.12,92V31.4A31.44,31.44,0,0,0,372.72,0H139.28a31.44,31.44,0,0,0-31.4,31.4V92A31.43,31.43,0,0,0,139.28,123.35ZM122.88,31.4A16.42,16.42,0,0,1,139.28,15H372.72a16.42,16.42,0,0,1,16.4,16.4V92a16.42,16.42,0,0,1-16.4,16.4h-91a13.78,13.78,0,0,0-9.81,4.07L256,128.33l-15.92-15.91a13.78,13.78,0,0,0-9.81-4.07h-91A16.42,16.42,0,0,1,122.88,92Z"/></svg>