<svg xmlns="http://www.w3.org/2000/svg" data-name="Layer 1" viewBox="0 0 512 512"><rect width="40.85" height="44.31" x="355.63" y="353.9" fill="#676e87" transform="rotate(-45 376.048 376.056)"/><path fill="#595f74" d="M374.83,346l-10.78,10.78,3.67,3.67a25.61,25.61,0,0,1,0,36.2h0l9.56,9.56,28.88-28.88Z"/><path fill="#ffcd85" d="M493.92,493.92h0a36.13,36.13,0,0,1-51.1,0l-65.54-65.54a15.7,15.7,0,0,1,0-22.22l28.88-28.88a15.7,15.7,0,0,1,22.22,0l65.54,65.54A36.13,36.13,0,0,1,493.92,493.92Z"/><path fill="#ffc166" d="M493.92,442.82l-65.54-65.54a15.7,15.7,0,0,0-22.22,0l-3.89,3.89,61.65,61.65a36.13,36.13,0,0,1,0,51.1h0a36.15,36.15,0,0,1-10.55,7.32,36.15,36.15,0,0,0,40.55-7.32h0A36.13,36.13,0,0,0,493.92,442.82Z"/><circle cx="214.59" cy="214.59" r="207.19" fill="#b3e0ff" transform="rotate(-45 214.588 214.595)"/><circle cx="214.59" cy="214.59" r="166.73" fill="#d9f0ff"/><path fill="#f66" d="M197,234l-23.9,4.55a47.59,47.59,0,0,0-38.69,46.75v14.47a17.89,17.89,0,0,0,17.89,17.89h124.5a17.89,17.89,0,0,0,17.89-17.89V285.31a47.59,47.59,0,0,0-38.68-46.75L232.12,234"/><path fill="#ff4e4e" d="M256.05,238.56,232.12,234h-30l23.91,4.55a47.59,47.59,0,0,1,38.68,46.75v14.47a17.89,17.89,0,0,1-17.89,17.89h30a17.89,17.89,0,0,0,17.89-17.89V285.31A47.59,47.59,0,0,0,256.05,238.56Z"/><path fill="#ffcd85" d="M197,226.32v14.55a17.56,17.56,0,0,0,17.55,17.56h0a17.55,17.55,0,0,0,17.55-17.56v-14.6"/><path fill="#ffc166" d="M217.14,226.29v14.58a17.54,17.54,0,0,1-10,15.86,17.52,17.52,0,0,0,25-15.86v-14.6Z"/><path fill="#676e87" d="M256.57,159.52V126.73c0-7.35-6-15.22-13.32-15.22H172.61v21.38a13.32,13.32,0,0,0,13.32,13.31"/><path fill="#595f74" d="M243.25,111.51H218.83c7.35,0,13.31,7.87,13.31,15.22v28.19l24.43,4.6V126.73C256.57,119.38,250.61,111.51,243.25,111.51Z"/><path fill="#ffcd85" d="M214.59,146.2h0a42,42,0,0,1,42,42v32.76a9.22,9.22,0,0,1-9.22,9.22H181.83a9.22,9.22,0,0,1-9.22-9.22V188.18A42,42,0,0,1,214.59,146.2Z" transform="rotate(-180 214.59 188.18)"/><path fill="#ffc166" d="M247.35,146.2H224.44a9.22,9.22,0,0,1,9.22,9.22v32.76a42,42,0,0,1-30.52,40.38,42,42,0,0,0,11.45,1.6h0a42,42,0,0,0,42-42V155.42A9.22,9.22,0,0,0,247.35,146.2Z"/><path fill="#272a33" d="M337.79,91.39c-67.93-67.93-178.47-67.93-246.4,0a174.23,174.23,0,0,0,246.4,246.4,174.23,174.23,0,0,0,0-246.4Zm-10.6,235.79a159.24,159.24,0,1,1,46.63-112.59A158.2,158.2,0,0,1,327.19,327.18Zm172,110.33L433.68,372a23.19,23.19,0,0,0-26.63-4.41l-22.19-22.19c64.7-84.12,58.55-205.57-18.46-282.59-83.71-83.7-219.91-83.7-303.62,0a214.72,214.72,0,0,0,282.6,322.09l22.19,22.19a23.23,23.23,0,0,0,4.4,26.62l65.54,65.54a43.64,43.64,0,0,0,61.71-61.71ZM341.29,369l-.2.18a199.61,199.61,0,1,1,14.7-295.74c77.86,77.86,77.86,204.54,0,282.4Q348.81,362.77,341.29,369ZM357,375.26c3.21-2.86,6.36-5.8,9.42-8.86s6-6.22,8.85-9.42l20.3,20.3-18.27,18.27ZM488.61,488.61h0a28.62,28.62,0,0,1-40.49,0l-65.54-65.54a8.22,8.22,0,0,1,0-11.61l28.88-28.87h0a8.21,8.21,0,0,1,11.6,0l65.54,65.54a28.62,28.62,0,0,1,0,40.49ZM257.45,231.19l-14.22-2.7a49.45,49.45,0,0,0,20.84-40.31V126.73c0-13.39-11-22.72-20.82-22.72H172.61a7.5,7.5,0,0,0-7.5,7.5v21.38a20.69,20.69,0,0,0,3.8,11.94,16.66,16.66,0,0,0-3.8,10.59v32.76A49.45,49.45,0,0,0,186,228.49l-14.22,2.7A55.17,55.17,0,0,0,127,285.31v14.47a25.42,25.42,0,0,0,25.39,25.39h124.5a25.42,25.42,0,0,0,25.39-25.39V285.31A55.16,55.16,0,0,0,257.45,231.19ZM180.11,119h63.14c2.72,0,5.82,4.11,5.82,7.72v12.06a16.37,16.37,0,0,0-1.72-.09H185.93a5.82,5.82,0,0,1-5.82-5.81Zm0,69.17V155.42a1.73,1.73,0,0,1,1.72-1.72h65.52a1.73,1.73,0,0,1,1.72,1.72v32.76a34.53,34.53,0,0,1-19.54,31.07,7.1,7.1,0,0,0-1,.46,34.46,34.46,0,0,1-48.41-31.53Zm44.54,48.45v4.24a10.06,10.06,0,1,1-20.11,0v-4.24a49.59,49.59,0,0,0,20.11,0Zm62.58,63.15a10.4,10.4,0,0,1-10.39,10.39H152.34A10.41,10.41,0,0,1,142,299.78V285.31a40.14,40.14,0,0,1,32.59-39.38l15.1-2.88a25,25,0,0,0,49.9,0l15.1,2.88a40.14,40.14,0,0,1,32.59,39.38Z"/></svg>