<svg xmlns="http://www.w3.org/2000/svg" data-name="Layer 1" viewBox="0 0 512 512"><circle cx="256" cy="256" r="248.5" fill="none" stroke="#000" stroke-linecap="round" stroke-linejoin="round" stroke-width="15"/><path fill="#66c1ff" d="M504.5,256a247.51,247.51,0,0,1-21.37,101C444.44,443.89,357.29,504.5,256,504.5a250.88,250.88,0,0,1-32-2.05A248.57,248.57,0,0,1,143.7,34.26h0A248.47,248.47,0,0,1,504.5,256Z"/><path fill="#63ea86" d="M473.17 135.11l-.1 0c-15.6-12-41.59-27.65-74.49-29.24-10.24-.5-18.56-.9-28.48 3-26.6 10.5-24.63 36.21-46.48 45.72-21 9.16-53.06-1.56-63.44-20.43-10.88-19.78 7.88-37.78-3.26-52.62C246.24 67.3 224 77.26 192.34 66.81 169 59.12 153 44.49 143.71 34.26A248.71 248.71 0 0 1 473.17 135.11zM483.13 357C444.44 443.89 357.29 504.5 256 504.5a250.88 250.88 0 0 1-32-2.05h0a136.15 136.15 0 0 1 25.23-49.91c29-35.71 57.58-30.78 76.19-57.53 28-40.28-9.07-91.27 9.68-107.52 13.08-11.33 50.15-3 148.07 69.48zM123.37 396A357.15 357.15 0 0 1 96 429.7c-3.54 3.78-6.56 6.81-8.62 8.84h0a248.51 248.51 0 0 1-27.81-334.8h0c10.53 4 25.85 11.72 35.83 27.07 21.93 33.74-7 65.79 10.52 106.49 16 37.22 48.61 29.87 56.25 62.4C169.38 330.25 146.77 362.57 123.37 396z"/><rect width="220.22" height="146.52" x="145.89" y="206.7" fill="#ffc166" rx="14.45"/><path fill="#ffb74e" d="M366.11,221.16a14.45,14.45,0,0,0-14.45-14.46h-30a14.45,14.45,0,0,1,14.45,14.46V338.77a14.45,14.45,0,0,1-14.45,14.45h30a14.45,14.45,0,0,0,14.45-14.45Z"/><path fill="#ffae36" d="M366.11,250.67,265.56,294.43a23.9,23.9,0,0,1-19.12,0L145.89,250.67V221.16a14.45,14.45,0,0,1,14.45-14.46H351.66a14.45,14.45,0,0,1,14.45,14.46Z"/><path fill="#ffa41f" d="M359.32,208.91a14.44,14.44,0,0,0-7.66-2.21h-30a14.45,14.45,0,0,1,14.45,14.46v42.57l30-13.06V221.16A14.45,14.45,0,0,0,359.32,208.91Z"/><path fill="#272a33" d="M437,75A256,256,0,0,0,75,437,256,256,0,0,0,437,75ZM256,15A239.42,239.42,0,0,1,426.41,85.59a243.76,243.76,0,0,1,24.73,28.92c-38.26-18.74-67.36-21.82-88.5-9.46-11.17,6.54-17.24,15.88-22.59,24.13-6.12,9.42-10.95,16.87-22,20.17-18.56,5.54-43.88-3.61-51.11-18.48-3.48-7.16-1.65-13.76.47-21.41,2.41-8.71,5.14-18.59-1.36-28.64-7.47-11.55-20.11-12.72-34.75-14.08-10.62-1-22.66-2.09-36.42-7a113.33,113.33,0,0,1-38.33-23.38A240.26,240.26,0,0,1,256,15ZM153.39,275.14v-13l90.05,39.2a31.64,31.64,0,0,0,25.12,0l90.05-39.2v76.66a7,7,0,0,1-6.95,7H160.34a7,7,0,0,1-7-7V276.84A8.05,8.05,0,0,0,153.39,275.14Zm109.18,12.42a16.58,16.58,0,0,1-13.14,0l-96-41.81V221.16a7,7,0,0,1,7-7H351.66a7,7,0,0,1,6.95,7v24.59ZM213,199.2V174.75a8.48,8.48,0,0,1,8.47-8.47h69a8.48,8.48,0,0,1,8.47,8.47V199.2ZM85.59,85.59A241.75,241.75,0,0,1,142.2,43.43c14.19,14,30.18,24.22,47.63,30.44,15.53,5.54,29.13,6.8,40.07,7.81,13.15,1.22,20.17,2.09,23.53,7.28,2.72,4.2,1.64,8.78-.5,16.5-2.43,8.78-5.45,19.71.5,32a42.61,42.61,0,0,0,11.12,13.86H221.5A23.5,23.5,0,0,0,198,174.75V199.2H160.34a22,22,0,0,0-22,22v41c-9.88-6.19-19.07-12.78-25.55-27.81-7.64-17.74-5.54-33.44-3.31-50.07,2.48-18.56,5-37.75-7.82-57.54-7-10.76-17.09-19.45-30.1-25.92Q78.24,93,85.59,85.59Zm0,340.82A241.1,241.1,0,0,1,62,112.88c12,5.42,21.1,12.81,27.1,22C99,150,97,165,94.66,182.29c-2.29,17.08-4.88,36.45,4.4,58,8.92,20.69,22.86,29.33,34.06,36.27,1.83,1.13,3.58,2.23,5.27,3.33v58.89A21.78,21.78,0,0,0,143,352.2c-7.08,12.8-16.19,25.82-25.77,39.52a298.84,298.84,0,0,1-30,36.32Zm12.68,11.81a313.44,313.44,0,0,0,31.25-37.9c9.22-13.18,18.71-26.76,26.18-40.09a22.2,22.2,0,0,0,4.64.49H328.71c-.48,11.79-3.55,21.46-9.5,30-7.76,11.15-17.34,15.95-29.48,22-14.13,7.07-30.14,15.08-46.37,35.07a141.39,141.39,0,0,0-24.74,46.31A238.66,238.66,0,0,1,98.27,438.22Zm328.14-11.81A239.42,239.42,0,0,1,256,497q-11.19,0-22.2-1A125.94,125.94,0,0,1,255,457.26c14.19-17.47,28-24.4,41.44-31.1,12.93-6.47,25.14-12.59,35.09-26.87,7.65-11,11.65-23.68,12.18-38.57h8a22,22,0,0,0,21.95-22V297.4c23.86,9.88,57.47,30.68,100.2,62A241,241,0,0,1,426.41,426.41Zm-52.8-145.12V221.16a22,22,0,0,0-21.95-22H314V174.75a23.37,23.37,0,0,0-1.82-9.06,53.58,53.58,0,0,0,10.18-2c16.35-4.88,23.76-16.3,30.3-26.38,4.88-7.51,9.48-14.6,17.59-19.34,20-11.69,52.77-4.06,97.48,22.63A242.11,242.11,0,0,1,480,345.33C433.72,311.59,398.79,290.55,373.61,281.29Z"/></svg>