<svg xmlns="http://www.w3.org/2000/svg" data-name="Layer 1" viewBox="0 0 512 512"><rect width="461" height="185" x="25.5" y="319.5" fill="#f7f7f7"/><rect width="30" height="185" x="456.5" y="319.5" fill="#eee"/><rect width="497" height="32.27" x="7.5" y="302.23" fill="#cecece" rx="8"/><rect width="377" height="32.27" x="67.5" y="242.23" fill="#cecece" rx="8"/><path fill="#bebebe" d="M436.5 242.23h-30a8 8 0 0 1 8 8V266.5a8 8 0 0 1-8 8h30a8 8 0 0 0 8-8V250.23A8 8 0 0 0 436.5 242.23zM496.5 302.23h-30a8 8 0 0 1 8 8V326.5a8 8 0 0 1-8 8h30a8 8 0 0 0 8-8V310.23A8 8 0 0 0 496.5 302.23z"/><rect width="341" height="230" x="85.5" y="274.5" fill="#eee"/><path fill="#eee" d="M263.5,7.5v88a7.5,7.5,0,0,1-15,0V7.5Z"/><path fill="#676e87" d="M504.5 512H7.5a7.5 7.5 0 0 1 0-15h497a7.5 7.5 0 0 1 0 15zM296.21 367.61H215.79a7.5 7.5 0 0 1-7.5-7.5V329.88a20.25 20.25 0 0 1 20.23-20.23h55a20.25 20.25 0 0 1 20.23 20.23v30.23A7.5 7.5 0 0 1 296.21 367.61zm-72.92-15h65.42V329.88a5.23 5.23 0 0 0-5.23-5.23h-55a5.23 5.23 0 0 0-5.23 5.23z"/><rect width="155.01" height="116.74" x="178.49" y="345.11" fill="#ffc166" rx="11.52"/><path fill="#ffb74e" d="M322,345.11H300.91a11.52,11.52,0,0,1,11.52,11.52v93.7a11.52,11.52,0,0,1-11.52,11.52H322a11.52,11.52,0,0,0,11.52-11.52v-93.7A11.52,11.52,0,0,0,322,345.11Z"/><path fill="#ffae36" d="M333.51,380.14,263.62,415a19.14,19.14,0,0,1-15.24,0l-69.89-34.87V356.63A11.52,11.52,0,0,1,190,345.11H322a11.52,11.52,0,0,1,11.52,11.52Z"/><path fill="#ffa41f" d="M300.91,345.11a11.52,11.52,0,0,1,11.52,11.52v34l21.08-10.52V356.63a11.48,11.48,0,0,0-2-6.44c-.21-.31-.43-.6-.66-.89a11.52,11.52,0,0,0-3.4-2.8c-.33-.18-.66-.34-1-.49a11.48,11.48,0,0,0-4.48-.9Z"/><rect width="31.35" height="31.35" x="240.32" y="400.92" fill="#676e87" rx="7"/><path fill="#595f74" d="M264.68,400.92H251.56a7,7,0,0,1,7,7v17.35a7,7,0,0,1-7,7h13.12a7,7,0,0,0,7-7V407.92A7,7,0,0,0,264.68,400.92Z"/><path fill="#f66" d="M248.5,57.05V7.5H309a2,2,0,0,1,1.2,3.6Z"/><path fill="#ff4e4e" d="M309,7.5H294a2,2,0,0,1,1.2,3.6L248.5,45.88V57.05L310.17,11.1A2,2,0,0,0,309,7.5Z"/><path fill="#eee" d="M256,95.46h0A135.08,135.08,0,0,1,391.08,230.54v11.7a0,0,0,0,1,0,0H120.92a0,0,0,0,1,0,0v-11.7A135.08,135.08,0,0,1,256,95.46Z"/><path fill="#dedede" d="M256,95.46h0a137.65,137.65,0,0,0-15,.83A135.1,135.1,0,0,1,361.08,230.54v11.69h30V230.54A135.08,135.08,0,0,0,256,95.46Z"/><path fill="#272a33" d="M190,469.35H322a19,19,0,0,0,19-19v-93.7a19,19,0,0,0-19-19H303.71v-7.73a20.25,20.25,0,0,0-20.23-20.23h-55a20.25,20.25,0,0,0-20.23,20.23v7.73H190a19,19,0,0,0-19,19v93.7A19,19,0,0,0,190,469.35Zm33.28-139.47a5.23,5.23,0,0,1,5.23-5.23h55a5.23,5.23,0,0,1,5.23,5.23v7.73H223.29ZM186,356.63a4,4,0,0,1,4-4H322a4,4,0,0,1,4,4V375.5L276.83,400a14.49,14.49,0,0,0-12.15-6.62H247.32A14.49,14.49,0,0,0,235.17,400L186,375.5Zm78.19,51.79v16.35H247.82V408.42ZM186,392.26l46.83,23.37v9.64a14.52,14.52,0,0,0,14.5,14.5h17.36a14.52,14.52,0,0,0,14.5-14.5v-9.64L326,392.26v58.07a4,4,0,0,1-4,4H190a4,4,0,0,1-4-4ZM496.5,342A15.51,15.51,0,0,0,512,326.5V310.23a15.51,15.51,0,0,0-15.5-15.5H434V282h2.5A15.51,15.51,0,0,0,452,266.5V250.23a15.52,15.52,0,0,0-15.5-15.5H398.58v-4.19c0-76.1-59.93-138.47-135.08-142.38V55.26l51.15-38.14A9.5,9.5,0,0,0,309,0H256a7.5,7.5,0,0,0-7.5,7.5V88.16c-75.15,3.91-135.08,66.28-135.08,142.38v4.19H75.5A15.52,15.52,0,0,0,60,250.23V266.5A15.51,15.51,0,0,0,75.5,282H78v12.73H15.5A15.52,15.52,0,0,0,0,310.23V326.5A15.51,15.51,0,0,0,15.5,342H18V497H7.5a7.5,7.5,0,0,0,0,15h497a7.5,7.5,0,0,0,0-15H494V342ZM263.5,15h28.9L263.5,36.55ZM78,497H33V342H78Zm0-170H15.5a.5.5,0,0,1-.5-.5V310.23a.5.5,0,0,1,.5-.5H78Zm50.42-96.46a127.58,127.58,0,1,1,255.16,0v4.19H128.42ZM75.5,267a.5.5,0,0,1-.5-.5V250.23a.5.5,0,0,1,.5-.5h361a.5.5,0,0,1,.5.5V266.5a.5.5,0,0,1-.5.5ZM419,497H93V282H419Zm60,0H434V342h45ZM434,327V309.73h62.5a.51.51,0,0,1,.5.5V326.5a.5.5,0,0,1-.5.5Z"/></svg>