<svg xmlns="http://www.w3.org/2000/svg" data-name="Layer 1" viewBox="0 0 512 512"><rect width="497" height="302" x="7.5" y="202.5" fill="#ffc166" rx="30"/><rect width="222" height="417" x="145" y="145" fill="#fff8cc" rx="8" transform="rotate(90 256 353.5)"/><circle cx="256" cy="38.44" r="30.94" fill="#595f74"/><path fill="#272a33" d="M329.74,330h27.09c2.51,0,3.58-2.67,3.58-5.1,0-2.82-1.29-5.25-3.58-5.25H336.44V306.67h11.41c2.51,0,3.58-2.43,3.58-4.49,0-2.43-1.29-4.64-3.58-4.64H336.44V284.68h20.39c2.29,0,3.58-2.44,3.58-5.25,0-2.44-1.07-5.1-3.58-5.1H329.74c-2.59,0-5.17,1.22-5.17,3.65V326.3C324.57,328.74,327.15,330,329.74,330Zm58.05,103.47c15.42,0,27.49-7.15,27.49-26.37V395.33a5.16,5.16,0,0,0-5.25-5.48H391.26c-3.36,0-5.26,3.46-5.26,6.7,0,3.47,1.9,6.71,5.26,6.71h6.59v3.8c0,7.6-3.8,11.17-10.06,11.17s-9.94-3.57-9.94-11.17V377.45c0-7.6,3.69-11.18,10-11.18,9.5,0,9.84,6,10,10.06s4,5.25,8.72,5.25c5.92,0,8.71-1.56,8.71-8.27,0-14.19-12.07-22.23-28-22.23-14.63,0-26.81,7.15-26.81,26.37v29.61C360.42,426.28,372.37,433.43,387.79,433.43ZM176.61,351.08c-4.36,0-8.71,1.56-8.71,5.25V427.4c0,3.57,4.35,5.36,8.71,5.36s8.72-1.79,8.72-5.36V356.33C185.33,352.64,181,351.08,176.61,351.08Zm63.25,46.59c7.82-3,13.52-10.17,13.52-22.68,0-18.21-12.18-23.91-27.49-23.91H202.76a5.2,5.2,0,0,0-5.37,5.25V427.4c0,3.57,4.36,5.36,8.72,5.36s8.72-1.79,8.72-5.36V400.47h7.37l15.31,29.72a6,6,0,0,0,5.59,3.24c5.14,0,11-4.69,11-9.05a3.73,3.73,0,0,0-.56-2Zm-14-10.61H214.83V366.27h11.06c6.26,0,10.05,2.57,10.05,10.39S232.15,387.06,225.89,387.06Zm114.64-36c-4.36,0-8.72,1.56-8.72,5.25v38l-18.1-34.53c-4.24-8.15-6.59-8.71-12.85-8.71-4.36,0-8.71,1.67-8.71,5.36v71c0,3.57,4.35,5.36,8.71,5.36s8.72-1.79,8.72-5.36v-38l21.23,38.67c2.12,3.91,5.7,4.69,9.72,4.69,4.36,0,8.72-1.79,8.72-5.36V356.33C349.25,352.64,344.89,351.08,340.53,351.08ZM229.82,330h27.09c2.51,0,3.58-2.67,3.58-5.1,0-2.82-1.3-5.25-3.58-5.25H236.52V306.67h11.41c2.51,0,3.58-2.43,3.58-4.49,0-2.43-1.3-4.64-3.58-4.64H236.52V284.68h20.39c2.28,0,3.58-2.44,3.58-5.25,0-2.44-1.07-5.1-3.58-5.1H229.82c-2.59,0-5.17,1.22-5.17,3.65V326.3C224.65,328.74,227.23,330,229.82,330ZM464.5,235H47.5a7.5,7.5,0,0,0-7.5,7.5v222a7.5,7.5,0,0,0,7.5,7.5h417a7.5,7.5,0,0,0,7.5-7.5v-222A7.5,7.5,0,0,0,464.5,235ZM457,457H55V250H457ZM286.06,330c3,0,5.93-1.22,5.93-3.66V308h5l10.42,20.24a4.07,4.07,0,0,0,3.81,2.2c3.5,0,7.45-3.19,7.45-6.16a2.46,2.46,0,0,0-.38-1.37L309,306.06c5.33-2.05,9.21-6.92,9.21-15.45,0-12.4-8.3-16.28-18.72-16.28H283.78a3.54,3.54,0,0,0-3.66,3.58V326.3C280.12,328.74,283.09,330,286.06,330ZM292,284.68h7.54c4.26,0,6.85,1.75,6.85,7.08s-2.59,7.07-6.85,7.07H292ZM489.28,198,290.93,54.47a38.44,38.44,0,1,0-69.86,0L22.72,198A37.56,37.56,0,0,0,0,232.5v242A37.54,37.54,0,0,0,37.5,512h437A37.54,37.54,0,0,0,512,474.5v-242A37.56,37.56,0,0,0,489.28,198ZM256,15a23.44,23.44,0,1,1-23.44,23.44A23.47,23.47,0,0,1,256,15ZM229.88,66.61a38.35,38.35,0,0,0,52.24,0L459.5,195H52.5ZM497,474.5A22.52,22.52,0,0,1,474.5,497H37.5A22.52,22.52,0,0,1,15,474.5v-242A22.52,22.52,0,0,1,37.5,210h437A22.52,22.52,0,0,1,497,232.5ZM107.45,432.76c4.36,0,8.71-1.79,8.71-5.36V397.11H138.4V427.4c0,3.57,4.36,5.36,8.72,5.36s8.71-1.79,8.71-5.36V356.33c0-3.69-4.36-5.25-8.71-5.25s-8.72,1.56-8.72,5.25V383.7H116.16V356.33c0-3.69-4.35-5.25-8.71-5.25s-8.72,1.56-8.72,5.25V427.4C98.73,431,103.09,432.76,107.45,432.76Zm58.6-106.3c.83,2.66,4.33,4,7.83,4s7.08-1.29,7.69-4l4-18,3.95,18c.61,2.66,4.27,4,7.69,4s6.93-1.29,7.84-4L220.15,280a3.28,3.28,0,0,0,.15-1c0-2.59-4.26-4.72-7.68-4.72-1.83,0-3.35.61-3.81,2.21l-11.56,39-6-25.72c-.45-2.05-3.11-3.12-5.7-3.12s-5.25,1.07-5.71,3.12l-6,25.72-11.57-39c-.45-1.6-2-2.21-3.8-2.21-3.43,0-7.69,2.13-7.69,4.72a3.62,3.62,0,0,0,.15,1Zm100.3-41.86-1.9,4.11a2.62,2.62,0,0,0-.31,1.22c0,1.9,2.21,3,3.81,3a2.33,2.33,0,0,0,2.28-1.37c4.49-10.43,4.72-11.26,4.72-12.18a5.82,5.82,0,0,0-11.64.08A6,6,0,0,0,266.35,284.6Zm5,148.16c4.36,0,8.72-1.79,8.72-5.36V356.33c0-3.69-4.36-5.25-8.72-5.25s-8.71,1.56-8.71,5.25V427.4C262.65,431,267,432.76,271.36,432.76Z"/></svg>