<svg xmlns="http://www.w3.org/2000/svg" data-name="Layer 1" viewBox="0 0 512 512"><rect width="460" height="454" x="26" y="50.5" fill="#f7f7f7" rx="30"/><path fill="#f66" d="M456,50.5H56a30,30,0,0,0-30,30v79H486v-79A30,30,0,0,0,456,50.5Z"/><rect width="55" height="55" x="71" y="204.5" fill="#dedede" rx="10"/><rect width="55" height="55" x="171" y="204.5" fill="#dedede" rx="10"/><rect width="55" height="55" x="271" y="204.5" fill="#dedede" rx="10"/><rect width="55" height="55" x="371" y="204.5" fill="#dedede" rx="10"/><rect width="55" height="55" x="71" y="304.5" fill="#dedede" rx="10"/><rect width="55" height="55" x="171" y="304.5" fill="#dedede" rx="10"/><path fill="#63ea86" d="M287.89,367.78a7.49,7.49,0,0,1-5.3-2.19l-17.68-17.68a7.5,7.5,0,0,1,10.61-10.61L287,348.75,320.7,302a7.5,7.5,0,0,1,12.17,8.78L294,364.67a7.5,7.5,0,0,1-5.49,3.09C288.29,367.78,288.09,367.78,287.89,367.78Z"/><rect width="55" height="55" x="371" y="304.5" fill="#dedede" rx="10"/><rect width="55" height="55" x="71" y="404.5" fill="#dedede" rx="10"/><rect width="55" height="55" x="171" y="404.5" fill="#dedede" rx="10"/><rect width="55" height="55" x="271" y="404.5" fill="#dedede" rx="10"/><rect width="55" height="55" x="371" y="404.5" fill="#dedede" rx="10"/><path fill="#cecece" d="M399.16,504.5V447.66a30,30,0,0,1,30-30H486Z"/><path fill="#ff4e4e" d="M113,91.5h0A25.5,25.5,0,0,0,138.46,66V50.5h-51V66A25.5,25.5,0,0,0,113,91.5Z"/><rect width="51" height="84" x="72.46" y="7.5" fill="#eee" rx="25.5"/><path fill="#ff4e4e" d="M429,91.5h0A25.5,25.5,0,0,0,454.54,66V50.5h-51V66A25.5,25.5,0,0,0,429,91.5Z"/><rect width="51" height="84" x="388.54" y="7.5" fill="#eee" rx="25.5"/><path fill="#cecece" d="M414,7.5h0a25.44,25.44,0,0,0-7.5,1.12,25.53,25.53,0,0,1,18,24.38V66a25.53,25.53,0,0,1-18,24.38A25.44,25.44,0,0,0,414,91.5h0A25.5,25.5,0,0,0,439.54,66V33A25.5,25.5,0,0,0,414,7.5Z"/><path fill="#ff4e4e" d="M271,91.5A25.5,25.5,0,0,0,296.5,66V50.5h-51V66A25.5,25.5,0,0,0,271,91.5Z"/><rect width="51" height="84" x="230.5" y="7.5" fill="#eee" rx="25.5"/><path fill="#cecece" d="M256 7.5h0a25.44 25.44 0 0 0-7.5 1.12A25.53 25.53 0 0 1 266.5 33V66a25.53 25.53 0 0 1-18 24.38A25.44 25.44 0 0 0 256 91.5h0A25.5 25.5 0 0 0 281.5 66V33A25.5 25.5 0 0 0 256 7.5zM98 7.5h0a25.44 25.44 0 0 0-7.5 1.12 25.53 25.53 0 0 1 18 24.38V66a25.53 25.53 0 0 1-18 24.38A25.44 25.44 0 0 0 98 91.5h0A25.5 25.5 0 0 0 123.46 66V33A25.5 25.5 0 0 0 98 7.5z"/><path fill="#272a33" d="M81,367h35a17.52,17.52,0,0,0,17.5-17.5v-35A17.52,17.52,0,0,0,116,297H81a17.52,17.52,0,0,0-17.5,17.5v35A17.52,17.52,0,0,0,81,367Zm-2.5-52.5A2.5,2.5,0,0,1,81,312h35a2.5,2.5,0,0,1,2.5,2.5v35A2.5,2.5,0,0,1,116,352H81a2.5,2.5,0,0,1-2.5-2.5ZM381,267h35a17.52,17.52,0,0,0,17.5-17.5v-35A17.52,17.52,0,0,0,416,197H381a17.52,17.52,0,0,0-17.5,17.5v35A17.52,17.52,0,0,0,381,267Zm-2.5-52.5A2.5,2.5,0,0,1,381,212h35a2.5,2.5,0,0,1,2.5,2.5v35A2.5,2.5,0,0,1,416,252H381a2.5,2.5,0,0,1-2.5-2.5ZM81,467h35a17.52,17.52,0,0,0,17.5-17.5v-35A17.52,17.52,0,0,0,116,397H81a17.52,17.52,0,0,0-17.5,17.5v35A17.52,17.52,0,0,0,81,467Zm-2.5-52.5A2.5,2.5,0,0,1,81,412h35a2.5,2.5,0,0,1,2.5,2.5v35A2.5,2.5,0,0,1,116,452H81a2.5,2.5,0,0,1-2.5-2.5ZM456,43h-9V33a33,33,0,0,0-66,0V43H289V33a33,33,0,0,0-66,0V43H131V33a33,33,0,0,0-66,0V43H56A37.54,37.54,0,0,0,18.5,80.5v394A37.54,37.54,0,0,0,56,512H456a37.54,37.54,0,0,0,37.5-37.5V80.5A37.54,37.54,0,0,0,456,43ZM396,33a18,18,0,0,1,36,0V66a18,18,0,0,1-36,0ZM238,33a18,18,0,0,1,36,0V66a18,18,0,0,1-36,0ZM80,33a18,18,0,1,1,36,0V66a18,18,0,0,1-36,0Zm311.7,414.66V452H381a2.5,2.5,0,0,1-2.5-2.5v-35A2.5,2.5,0,0,1,381,412h35a2.45,2.45,0,0,1,1,.2A37.55,37.55,0,0,0,391.66,447.66Zm15,0a22.52,22.52,0,0,1,22.5-22.5h38.73l-61.23,61.23ZM478.5,474.5A22.52,22.52,0,0,1,456,497H417.27l61.23-61.23Zm0-64.34H432.93A17.52,17.52,0,0,0,416,397H381a17.52,17.52,0,0,0-17.5,17.5v35A17.52,17.52,0,0,0,381,467h10.66v30H56a22.52,22.52,0,0,1-22.5-22.5V167h445Zm0-258.16H33.5V80.5A22.52,22.52,0,0,1,56,58h9v8a33,33,0,0,0,66,0V58h92v8a33,33,0,0,0,66,0V58h92v8a33,33,0,0,0,66,0V58h9a22.52,22.52,0,0,1,22.5,22.5ZM316,397H281a17.52,17.52,0,0,0-17.5,17.5v35A17.52,17.52,0,0,0,281,467h35a17.52,17.52,0,0,0,17.5-17.5v-35A17.52,17.52,0,0,0,316,397Zm2.5,52.5A2.5,2.5,0,0,1,316,452H281a2.5,2.5,0,0,1-2.5-2.5v-35A2.5,2.5,0,0,1,281,412h35a2.5,2.5,0,0,1,2.5,2.5ZM181,467h35a17.52,17.52,0,0,0,17.5-17.5v-35A17.52,17.52,0,0,0,216,397H181a17.52,17.52,0,0,0-17.5,17.5v35A17.52,17.52,0,0,0,181,467Zm-2.5-52.5A2.5,2.5,0,0,1,181,412h35a2.5,2.5,0,0,1,2.5,2.5v35A2.5,2.5,0,0,1,216,452H181a2.5,2.5,0,0,1-2.5-2.5ZM381,367h35a17.52,17.52,0,0,0,17.5-17.5v-35A17.52,17.52,0,0,0,416,297H381a17.52,17.52,0,0,0-17.5,17.5v35A17.52,17.52,0,0,0,381,367Zm-2.5-52.5A2.5,2.5,0,0,1,381,312h35a2.5,2.5,0,0,1,2.5,2.5v35A2.5,2.5,0,0,1,416,352H381a2.5,2.5,0,0,1-2.5-2.5ZM181,267h35a17.52,17.52,0,0,0,17.5-17.5v-35A17.52,17.52,0,0,0,216,197H181a17.52,17.52,0,0,0-17.5,17.5v35A17.52,17.52,0,0,0,181,267Zm-2.5-52.5A2.5,2.5,0,0,1,181,212h35a2.5,2.5,0,0,1,2.5,2.5v35A2.5,2.5,0,0,1,216,252H181a2.5,2.5,0,0,1-2.5-2.5ZM282.59,365.59a7.49,7.49,0,0,0,5.3,2.19c.2,0,.4,0,.6,0a7.5,7.5,0,0,0,5.49-3.09l38.89-53.89A7.5,7.5,0,0,0,320.7,302L287,348.75,275.52,337.3a7.5,7.5,0,0,0-10.61,10.61ZM81,267h35a17.52,17.52,0,0,0,17.5-17.5v-35A17.52,17.52,0,0,0,116,197H81a17.52,17.52,0,0,0-17.5,17.5v35A17.52,17.52,0,0,0,81,267Zm-2.5-52.5A2.5,2.5,0,0,1,81,212h35a2.5,2.5,0,0,1,2.5,2.5v35A2.5,2.5,0,0,1,116,252H81a2.5,2.5,0,0,1-2.5-2.5ZM281,267h35a17.52,17.52,0,0,0,17.5-17.5v-35A17.52,17.52,0,0,0,316,197H281a17.52,17.52,0,0,0-17.5,17.5v35A17.52,17.52,0,0,0,281,267Zm-2.5-52.5A2.5,2.5,0,0,1,281,212h35a2.5,2.5,0,0,1,2.5,2.5v35A2.5,2.5,0,0,1,316,252H281a2.5,2.5,0,0,1-2.5-2.5ZM181,367h35a17.52,17.52,0,0,0,17.5-17.5v-35A17.52,17.52,0,0,0,216,297H181a17.52,17.52,0,0,0-17.5,17.5v35A17.52,17.52,0,0,0,181,367Zm-2.5-52.5A2.5,2.5,0,0,1,181,312h35a2.5,2.5,0,0,1,2.5,2.5v35A2.5,2.5,0,0,1,216,352H181a2.5,2.5,0,0,1-2.5-2.5Z"/></svg>