<svg xmlns="http://www.w3.org/2000/svg" data-name="Layer 1" viewBox="0 0 512 512"><polygon fill="#676e87" points="62 512 62 323.5 135.62 323.5 249.42 323.5 465 323.5 465 512 62 512"/><rect width="30" height="188.5" x="435" y="323.5" fill="#595f74"/><path fill="#595f74" d="M7.5,289h497a0,0,0,0,1,0,0v0a35.65,35.65,0,0,1-35.65,35.65H43.15A35.65,35.65,0,0,1,7.5,289v0A0,0,0,0,1,7.5,289Z"/><path fill="#4a4f60" d="M474.5,289h0a35.65,35.65,0,0,1-35.65,35.65h30A35.65,35.65,0,0,0,504.5,289h-30Z"/><path fill="#f66" d="M260.57,289a15,15,0,0,1-14.94-16.38l4.94-53.72c.05-.58.12-1.16.2-1.74,2.41-17.51,15.67-31.58,32.83-35.8l80-19.69,80,19.69c17.16,4.22,30.43,18.29,32.83,35.8.08.58.15,1.16.2,1.74l6.73,53.22A15,15,0,0,1,468.42,289Z"/><path fill="#ff4e4e" d="M483.3,272.09l-6.73-53.22c-.05-.58-.12-1.16-.2-1.74-2.4-17.51-15.67-31.58-32.83-35.8l-80-19.69-15,3.7,65,16c17.16,4.22,30.43,18.29,32.83,35.8.08.58.15,1.16.2,1.74l6.73,53.22A15,15,0,0,1,438.42,289h30A15,15,0,0,0,483.3,272.09Z"/><path fill="#ffcd85" d="M341.13,144H386a0,0,0,0,1,0,0v29.15a22.06,22.06,0,0,1-22.06,22.06h-.75a22.06,22.06,0,0,1-22.06-22.06V144A0,0,0,0,1,341.13,144Z"/><path fill="#ffc166" d="M368.42,144v29.15a22.06,22.06,0,0,1-13.64,20.39,21.79,21.79,0,0,0,8.41,1.67H364A22.06,22.06,0,0,0,386,173.18V144Z"/><path fill="#676e87" d="M392.15,63.42,315.92,81.3V27.93c0-9.87,8.54-20.43,19.07-20.43H408.1a3.12,3.12,0,0,1,3.12,3.11V45.54C411.22,55.41,402.68,63.42,392.15,63.42Z"/><path fill="#595f74" d="M408.1,7.5h-30a3.12,3.12,0,0,1,3.12,3.11V45.54c0,9.87-8.54,17.88-19.07,17.88L315.92,74.26v7l76.23-17.88c10.53,0,19.07-8,19.07-17.88V10.61A3.12,3.12,0,0,0,408.1,7.5Z"/><path fill="#ffcd85" d="M325.92,63.42h75.3a10,10,0,0,1,10,10v41.85a44.15,44.15,0,0,1-44.15,44.15h-7a44.15,44.15,0,0,1-44.15-44.15V73.42a10,10,0,0,1,10-10Z"/><path fill="#ffc166" d="M401.22,63.42h-30a10,10,0,0,1,10,10v41.85a44.17,44.17,0,0,1-32.65,42.63,44.5,44.5,0,0,0,11.5,1.52h7a44.15,44.15,0,0,0,44.15-44.15V73.42A10,10,0,0,0,401.22,63.42Z"/><path fill="#ffcd85" d="M364,252.89H408.8a0,0,0,0,1,0,0V289a0,0,0,0,1,0,0H364a18,18,0,0,1-18-18v0a18,18,0,0,1,18-18Z"/><path fill="#ffcd85" d="M334.61,252.89H364.4a0,0,0,0,1,0,0V289a0,0,0,0,1,0,0H334.61a18,18,0,0,1-18-18v0A18,18,0,0,1,334.61,252.89Z" transform="rotate(180 340.49 270.93)"/><path fill="#ffc166" d="M346.36,252.89h-15a18,18,0,0,1,0,36.08h15a18,18,0,0,0,0-36.08Z"/><path fill="#66c1ff" d="M228.37,369.49H81.88c-11.62,0-21-10.78-21-24.08V325.92c0-30.75,19.11-57.16,45.52-62.92l11.54-2.51,37.24-78.76,35.46,78.37L203.9,263c26.41,5.76,45.52,32.17,45.52,62.92v19.49C249.42,358.71,240,369.49,228.37,369.49Z"/><path fill="#4eb7ff" d="M203.9,263l-13.31-2.9-35.46-78.37L139.8,214.15l20.79,46L173.9,263c26.41,5.76,45.52,32.17,45.52,62.92v19.49c0,13.3-9.42,24.08-21,24.08h30c11.63,0,21-10.78,21-24.08V325.92C249.42,295.17,230.31,268.76,203.9,263Z"/><path fill="#ffcd85" d="M117.89,260.49h0c.62.92,14.78,21.14,39.15,19.57,20.9-1.35,32.19-17.63,33.49-19.57.1-.1.2-.23.31-.33l-.25-.06-35.46-78.37Z"/><path fill="#ffc166" d="M190.59,260.1l-35.46-78.37-7.67,16.21s15.35,34,23.34,51.88a17.59,17.59,0,0,1-5.19,21.08,43.09,43.09,0,0,1-18.71,8.55,40.77,40.77,0,0,0,10.14.61c20.9-1.35,32.19-17.63,33.49-19.57.1-.1.2-.23.31-.33Z"/><path fill="#ffcd85" d="M116.27,153.69H194a10.54,10.54,0,0,1,10.54,10.54V202.3a49.39,49.39,0,0,1-49.39,49.39h0a49.39,49.39,0,0,1-49.39-49.39V164.23a10.54,10.54,0,0,1,10.54-10.54Z"/><path fill="#ffc166" d="M194,153.69H166.26a10.54,10.54,0,0,1,10.54,10.54V202.3a49.42,49.42,0,0,1-35.53,47.41,49.5,49.5,0,0,0,13.86,2h0a49.39,49.39,0,0,0,49.39-49.39V164.23A10.54,10.54,0,0,0,194,153.69Z"/><path fill="#676e87" d="M105.74,174.13V141.61c0-11.27,8.05-20.49,17.9-20.49h80.88v53c0,21.54-15.27,39-34.1,39H139.83C121,213.13,105.74,195.67,105.74,174.13Z"/><path fill="#595f74" d="M177.82,121.12v53c0,21.54-15.27,39-34.1,39h26.7c18.83,0,34.1-17.46,34.1-39v-53Z"/><path fill="#ffc97a" d="M37.5,512V389.89a33.17,33.17,0,0,1,33.16-33.17H239.59a33.16,33.16,0,0,1,33.16,33.17V512Z"/><path fill="#ffc166" d="M239.59,356.72h-30a33.16,33.16,0,0,1,33.16,33.17V512h30V389.89A33.16,33.16,0,0,0,239.59,356.72Z"/><path fill="#272a33" d="M504.5,281.47H489.62a22.54,22.54,0,0,0,1.12-10.32L484,218c-.07-.65-.14-1.29-.23-1.93C481,195.93,465.57,179,445.33,174.05l-51.82-12.76v-1.67a51.69,51.69,0,0,0,25.21-44.35V73.42a17.42,17.42,0,0,0-5.38-12.59,24.55,24.55,0,0,0,5.38-15.29V10.61A10.62,10.62,0,0,0,408.1,0H335c-15.2,0-26.57,14.75-26.57,27.93v87.34a51.69,51.69,0,0,0,25.21,44.35v1.67L281.81,174c-20.24,5-35.7,21.89-38.47,42.07-.09.68-.17,1.36-.24,2.08l-4.94,53.72a21.91,21.91,0,0,0,0,3.24,61.34,61.34,0,0,0-32.61-19.47l-9.63-2.1-3.69-8.16A56.78,56.78,0,0,0,212,202.3V121.12a7.5,7.5,0,0,0-7.5-7.5H123.64c-14,0-25.4,12.55-25.4,28V202.3a56.74,56.74,0,0,0,18.87,42.28L112.69,254l-7.94,1.73C89.44,259,76.3,268.45,67.13,281.47H7.5A7.5,7.5,0,0,0,0,289a43.2,43.2,0,0,0,43.15,43.15H53.33v13.29a34.9,34.9,0,0,0,.79,7.35A40.71,40.71,0,0,0,30,389.89V504.5a7.5,7.5,0,0,0,15,0V389.89a25.7,25.7,0,0,1,25.66-25.67H239.59a26.94,26.94,0,0,1,3.62.26,7.36,7.36,0,0,0,3.24.76l.21,0a25.71,25.71,0,0,1,18.59,24.67V504.5a7.5,7.5,0,0,0,15,0V389.89a40.71,40.71,0,0,0-24.12-37.14,35.26,35.26,0,0,0,.79-7.34V332.12H457.5V504.5a7.5,7.5,0,0,0,15,0V332A43.2,43.2,0,0,0,512,289,7.5,7.5,0,0,0,504.5,281.47ZM53.83,317.12H43.15A28.2,28.2,0,0,1,16,296.47H59A77.9,77.9,0,0,0,53.83,317.12Zm59.41-175.51c0-7,4.76-13,10.4-13H197v45.51c0,17.37-11.93,31.5-26.6,31.5H139.83c-14.66,0-26.59-14.13-26.59-31.5Zm.82,69a38.75,38.75,0,0,0,25.77,10h30.59a38.72,38.72,0,0,0,25.77-10,41.89,41.89,0,0,1-82.13,0Zm67.88,48.59c-4.37,4.92-13.06,12.56-25.41,13.4-14.44,1-25-8-29.81-13.22l2.94-6.21a56.76,56.76,0,0,0,49.81.56Zm60,86.23a19.81,19.81,0,0,1-.38,3.86c-.65,0-1.3,0-1.95,0H70.66c-.65,0-1.3,0-1.94,0a19.9,19.9,0,0,1-.39-3.86V325.92c0-27.21,16.66-50.59,39.62-55.59l7.06-1.54c6.11,6.83,19.67,18.87,39.25,18.87,1.07,0,2.17,0,3.29-.12,18.11-1.23,30.39-12.4,36.19-19.07l8.57,1.86c22.95,5,39.61,28.38,39.61,55.59Zm81.5-317.48C323.42,22.11,328.76,15,335,15h68.73V45.54c0,5.72-5.19,10.38-11.57,10.38H325.92a17.21,17.21,0,0,0-2.5.2Zm0,87.34V73.42a2.5,2.5,0,0,1,2.5-2.5h75.3a2.5,2.5,0,0,1,2.5,2.5v41.85a36.69,36.69,0,0,1-36.65,36.65h-7A36.69,36.69,0,0,1,323.42,115.27Zm55.09,50.36v7.55A14.57,14.57,0,0,1,364,187.74h-.76a14.58,14.58,0,0,1-14.56-14.56v-7.55a52,52,0,0,0,11.44,1.29h7A52,52,0,0,0,378.51,165.63ZM253.1,273.28,258,219.6c.05-.49.11-1,.17-1.45,1.94-14.14,12.87-26,27.19-29.54l48.46-11.93a29.59,29.59,0,0,0,29.34,26.06H364a29.59,29.59,0,0,0,29.34-26.06l48.46,11.93c14.32,3.53,25.25,15.4,27.19,29.54.06.48.12,1,.17,1.45,0,.07,0,.14,0,.21L475.86,273a7.51,7.51,0,0,1-7.44,8.44H416.3V260.39h23.22c.25,0,.5,0,.74-.05l.25,0,.66-.12.12,0,.13,0,.45-.14.28-.1.39-.17.3-.15.32-.17.33-.2a2.48,2.48,0,0,0,.26-.19l.33-.24.23-.2.31-.28a2.39,2.39,0,0,0,.22-.23l.27-.29.22-.27.21-.29c.07-.1.15-.21.22-.33l.16-.26.19-.38a2.24,2.24,0,0,0,.13-.27c.06-.12.11-.25.16-.38s.08-.2.11-.3.08-.25.11-.37l.09-.35c0-.11.05-.23.07-.34l.06-.41,0-.3c0-.16,0-.31,0-.46s0-.1,0-.15,0-.1,0-.16,0-.28,0-.43,0-.24,0-.36,0-.23-.05-.34l-.09-.45,0-.14-6-23a7.5,7.5,0,1,0-14.51,3.78l3.53,13.57H349a7.3,7.3,0,0,0-.94.07c-.57,0-1.14-.07-1.72-.07H300.47l4.63-15.11a7.5,7.5,0,0,0-14.34-4.4l-6,19.62A7.5,7.5,0,0,0,286,260.39h23.1v21.08H260.57a7.51,7.51,0,0,1-7.47-8.19Zm116.52-12.89H401.3v21.08H369.62a25.5,25.5,0,0,0,0-21.08ZM356.9,270.93a10.55,10.55,0,0,1-10.54,10.54H324.08V260.39h22.28A10.55,10.55,0,0,1,356.9,270.93Zm112,46.19H256.43a78.3,78.3,0,0,0-5.17-20.65H496A28.2,28.2,0,0,1,468.85,317.12Z"/></svg>