<svg xmlns="http://www.w3.org/2000/svg" data-name="Layer 1" viewBox="0 0 512 512"><path fill="#ffe64e" d="M311.89,439.56a57.22,57.22,0,0,1,.64,8.54,56.53,56.53,0,1,1-112.43-8.45"/><path fill="#ffdf1f" d="M311.89,439.56l-30,0a57.06,57.06,0,0,1,.64,8.52A56.43,56.43,0,0,1,241,502.48a56.55,56.55,0,0,0,71.53-54.38A57.22,57.22,0,0,0,311.89,439.56Z"/><path fill="#ffe966" d="M228.08,75.94a40,40,0,1,1,56.19-.35"/><path fill="#ffe236" d="M256,7.5a40,40,0,0,0-15,2.91,39.84,39.84,0,0,1,13.27,65.18l-26.37.16.18.19,56.19-.35A39.87,39.87,0,0,0,256,7.5Z"/><path fill="#ffe966" d="M436.32,439.56H75.68A15.54,15.54,0,0,1,63,415l19-26.62a60.63,60.63,0,0,0,11.3-35.24V235.87c0-89.65,72.84-162.32,162.7-162.32h0c89.86,0,162.7,72.67,162.7,162.32V353.13A60.63,60.63,0,0,0,430,388.37L449,415A15.54,15.54,0,0,1,436.32,439.56Z"/><path fill="#ffe236" d="M449,415l-19-26.62a60.63,60.63,0,0,1-11.3-35.24V235.87c0-89.65-72.84-162.32-162.7-162.32h0a165.3,165.3,0,0,0-22.5,1.55C312.71,86,373.7,153.84,373.7,235.87V353.13A60.63,60.63,0,0,0,385,388.37L404,415a15.54,15.54,0,0,1-12.69,24.57h45A15.54,15.54,0,0,0,449,415Z"/><ellipse cx="401.91" cy="139.29" fill="#f66" rx="102.59" ry="101.79"/><rect width="112.46" height="74.82" x="345.68" y="114.12" fill="#ffc166" rx="7.38"/><path fill="#ffb74e" d="M450.76,114.12h-30a7.37,7.37,0,0,1,7.38,7.38v60.06a7.37,7.37,0,0,1-7.38,7.38h30a7.37,7.37,0,0,0,7.38-7.38V121.5A7.37,7.37,0,0,0,450.76,114.12Z"/><path fill="#ffae36" d="M458.14,136.57,406.8,158.92a12.21,12.21,0,0,1-9.77,0l-51.35-22.35V121.5a7.38,7.38,0,0,1,7.39-7.38h97.69a7.37,7.37,0,0,1,7.38,7.38Z"/><path fill="#ffa41f" d="M428.14,121.5v28.13l30-13.06V121.5a7.33,7.33,0,0,0-1.26-4.13c-.13-.19-.27-.38-.42-.56a7.39,7.39,0,0,0-5.7-2.69h-30A7.37,7.37,0,0,1,428.14,121.5Z"/><path fill="#272a33" d="M512,139.29C512,79,462.62,30,401.91,30a110.28,110.28,0,0,0-89.43,45.63Q304.9,73,297.14,71.05a47,47,0,0,0,6.34-23.66,47.48,47.48,0,0,0-95,0,46.86,46.86,0,0,0,6.35,23.68c-74,18.41-129.07,85.31-129.07,164.8V353.13A53,53,0,0,1,75.9,384l-19,26.61a23,23,0,0,0,18.79,36.43H192c0,.35,0,.69,0,1a64,64,0,0,0,128.06,0c0-.35,0-.69,0-1H436.32a23,23,0,0,0,18.79-36.43L436.1,384a53,53,0,0,1-9.9-30.89V245.9C475.26,234.89,512,191.28,512,139.29ZM256,15a32.47,32.47,0,0,1,32.48,32.39,32,32,0,0,1-7.34,20.5,172.13,172.13,0,0,0-50.27,0,32,32,0,0,1-7.35-20.51A32.47,32.47,0,0,1,256,15Zm0,482a49,49,0,0,1-49-48.9c0-.35,0-.69,0-1h98c0,.35,0,.69,0,1A49,49,0,0,1,256,497Zm186.91-77.65a7.87,7.87,0,0,1,.6,8.33,8,8,0,0,1-7.19,4.38H75.68a8,8,0,0,1-7.19-4.38,7.87,7.87,0,0,1,.6-8.33l19-26.62a67.73,67.73,0,0,0,12.7-39.6V235.87c0-85.37,69.62-154.82,155.2-154.82a154.94,154.94,0,0,1,48.35,7.67,108,108,0,0,0-12.52,50.57c0,60.27,49.38,109.3,110.08,109.3,3.13,0,6.23-.14,9.29-.4V353.13a67.73,67.73,0,0,0,12.7,39.6Zm-41-185.76c-52.43,0-95.08-42.3-95.08-94.3S349.48,45,401.91,45,497,87.3,497,139.29,454.34,233.59,401.91,233.59Zm48.85-127H435.19V97.8a15.68,15.68,0,0,0-15.66-15.65H384.3A15.67,15.67,0,0,0,368.64,97.8v8.82H353.07a14.91,14.91,0,0,0-14.89,14.88v60.06a14.9,14.9,0,0,0,14.89,14.88h97.69a14.89,14.89,0,0,0,14.88-14.88V121.5A14.9,14.9,0,0,0,450.76,106.62ZM383.64,97.8a.66.66,0,0,1,.66-.65h35.23a.66.66,0,0,1,.66.65v8.82H383.64Zm67,83.64H353.18V148L394,165.8a19.84,19.84,0,0,0,15.75,0L450.64,148Zm0-49.78L403.8,152a4.69,4.69,0,0,1-3.78,0l-46.84-20.38v-10h97.46Zm.12,57.28v-7.5h0Z"/></svg>