<svg xmlns="http://www.w3.org/2000/svg" data-name="Layer 1" viewBox="0 0 512 512"><path fill="#63ea86" d="M402.9,377.22H426a0,0,0,0,1,0,0v23.1a50.07,50.07,0,0,1-50.07,50.07h-23.1a0,0,0,0,1,0,0v-23.1A50.07,50.07,0,0,1,402.9,377.22Z"/><path fill="#3ce568" d="M402.9,377.22a50.71,50.71,0,0,0-6.9.48v22.61a50.08,50.08,0,0,1-43.17,49.59v.48h23.1A50.07,50.07,0,0,0,426,400.31V377.22Z"/><path fill="#63ea86" d="M279.66,377.22h23.1a50.07,50.07,0,0,1,50.07,50.07v23.1a0,0,0,0,1,0,0h-23.1a50.07,50.07,0,0,1-50.07-50.07v-23.1A0,0,0,0,1,279.66,377.22Z" transform="rotate(180 316.25 413.8)"/><path fill="#3ce568" d="M302.76,377.22h-23.1v.48a50.07,50.07,0,0,1,43.17,49.59V449.9a50.71,50.71,0,0,0,6.9.48h23.1V427.29A50.07,50.07,0,0,0,302.76,377.22Z"/><path fill="#ffc166" d="M352.83,512a7.5,7.5,0,0,1-7.5-7.5V325.31a7.5,7.5,0,0,1,15,0V504.5A7.5,7.5,0,0,1,352.83,512Z"/><circle cx="352.83" cy="173.62" r="151.68" fill="#fff8cc"/><rect width="170.84" height="135.3" x="267.41" y="119.97" fill="#ffc166" rx="13.35"/><path fill="#ffb74e" d="M438.25,133.32A13.35,13.35,0,0,0,424.9,120h-30a13.35,13.35,0,0,1,13.35,13.35v108.6a13.34,13.34,0,0,1-13.35,13.35h30a13.34,13.34,0,0,0,13.35-13.35Z"/><path fill="#676e87" d="M399.44,142.47H306.23a7.49,7.49,0,0,1-7.5-7.5V106.73A22.27,22.27,0,0,1,321,84.48h63.71a22.27,22.27,0,0,1,22.25,22.25V135A7.5,7.5,0,0,1,399.44,142.47Zm-85.71-15h78.21V106.73a7.26,7.26,0,0,0-7.25-7.25H321a7.26,7.26,0,0,0-7.25,7.25Z"/><path fill="#ffae36" d="M438.25,160.57,361.66,201A22.05,22.05,0,0,1,344,201l-76.59-40.41V133.32A13.35,13.35,0,0,1,280.76,120H424.9a13.35,13.35,0,0,1,13.35,13.35Z"/><path fill="#ffa41f" d="M408.25,133.32V176.4l30-15.83V133.32A13.34,13.34,0,0,0,424.9,120h-30A13.35,13.35,0,0,1,408.25,133.32Z"/><rect width="30.22" height="30.22" x="337.72" y="184.59" fill="#676e87" rx="7"/><path fill="#595f74" d="M360.94,184.59H349.7a7,7,0,0,1,7,7v16.22a7,7,0,0,1-7,7h11.24a7,7,0,0,0,7-7V191.59A7,7,0,0,0,360.94,184.59Z"/><path fill="#63ea86" d="M209.25,377.22h23.1a0,0,0,0,1,0,0v23.1a50.07,50.07,0,0,1-50.07,50.07h-23.1a0,0,0,0,1,0,0v-23.1A50.07,50.07,0,0,1,209.25,377.22Z"/><path fill="#3ce568" d="M209.25,377.22a50.71,50.71,0,0,0-6.9.48v22.61a50.08,50.08,0,0,1-43.17,49.59v.48h23.1a50.07,50.07,0,0,0,50.07-50.07V377.22Z"/><path fill="#63ea86" d="M86,377.22h23.1a50.07,50.07,0,0,1,50.07,50.07v23.1a0,0,0,0,1,0,0h-23.1A50.07,50.07,0,0,1,86,400.31v-23.1A0,0,0,0,1,86,377.22Z" transform="rotate(180 122.6 413.8)"/><path fill="#3ce568" d="M109.11,377.22H86v.48a50.07,50.07,0,0,1,43.16,49.59V449.9a50.75,50.75,0,0,0,6.91.48h23.09V427.29A50.06,50.06,0,0,0,109.11,377.22Z"/><path fill="#fff099" d="M201.15,173.62a151.53,151.53,0,0,0,67.11,125.94,166.45,166.45,0,0,0,0-251.87A151.52,151.52,0,0,0,201.15,173.62Z"/><path fill="#ffb74e" d="M317,120H280.76a13.35,13.35,0,0,0-13.35,13.35v108.6a13.35,13.35,0,0,0,13.35,13.35h23.7A166.58,166.58,0,0,0,317,120Z"/><path fill="#ffa41f" d="M271.32,123.88a13.35,13.35,0,0,0-3.91,9.44v27.25L325,190.94a167.9,167.9,0,0,0,.91-17.32A166.06,166.06,0,0,0,317,120H280.76a13.39,13.39,0,0,0-4,.6,13.6,13.6,0,0,0-2.39,1c-.38.21-.75.43-1.1.67a13.44,13.44,0,0,0-1.89,1.55Z"/><path fill="#ffc166" d="M159.18,512a7.5,7.5,0,0,1-7.5-7.5V325.31a7.5,7.5,0,0,1,15,0V504.5A7.5,7.5,0,0,1,159.18,512Z"/><circle cx="159.18" cy="173.62" r="151.68" fill="#fff8cc"/><rect width="170.84" height="135.3" x="73.76" y="119.97" fill="#ffc166" rx="13.35"/><path fill="#ffb74e" d="M244.6,133.32A13.35,13.35,0,0,0,231.25,120h-30a13.35,13.35,0,0,1,13.35,13.35v108.6a13.34,13.34,0,0,1-13.35,13.35h30a13.34,13.34,0,0,0,13.35-13.35Z"/><path fill="#676e87" d="M205.79,142.47H112.58a7.5,7.5,0,0,1-7.5-7.5V106.73a22.27,22.27,0,0,1,22.25-22.25H191a22.27,22.27,0,0,1,22.25,22.25V135A7.5,7.5,0,0,1,205.79,142.47Zm-85.71-15h78.21V106.73A7.26,7.26,0,0,0,191,99.48H127.33a7.26,7.26,0,0,0-7.25,7.25Z"/><path fill="#ffae36" d="M244.6,160.57,168,201a22.05,22.05,0,0,1-17.66,0L73.76,160.57V133.32A13.35,13.35,0,0,1,87.11,120H231.26a13.35,13.35,0,0,1,13.34,13.35Z"/><path fill="#ffa41f" d="M214.6,133.32V176.4l30-15.83V133.32A13.34,13.34,0,0,0,231.25,120h-30A13.35,13.35,0,0,1,214.6,133.32Z"/><rect width="30.22" height="30.22" x="144.07" y="184.59" fill="#676e87" rx="7"/><path fill="#595f74" d="M167.29,184.59H156.05a7,7,0,0,1,7,7v16.22a7,7,0,0,1-7,7h11.24a7,7,0,0,0,7-7V191.59A7,7,0,0,0,167.29,184.59Z"/><path fill="#676e87" d="M504.5,512H7.5a7.5,7.5,0,0,1,0-15h497a7.5,7.5,0,0,1,0,15Z"/><path fill="#272a33" d="M504.5,497H360.32V457.88h15.59a57.63,57.63,0,0,0,57.57-57.57V377.22a7.49,7.49,0,0,0-7.5-7.5H402.89a57.4,57.4,0,0,0-42.57,18.85V332.63c84.3-3.93,151.68-73.74,151.68-159,0-87.77-71.41-159.18-159.18-159.18a159.48,159.48,0,0,0-96.88,32.87,158.39,158.39,0,0,0-96.76-32.87C71.41,14.44,0,85.85,0,173.62c0,85.27,67.38,155.08,151.68,159v55.94a57.4,57.4,0,0,0-42.57-18.85H86a7.49,7.49,0,0,0-7.5,7.5v23.09a57.63,57.63,0,0,0,57.57,57.57h15.59V497H7.5a7.5,7.5,0,0,0,0,15h497a7.5,7.5,0,0,0,0-15ZM151.68,442.88H136.09a42.61,42.61,0,0,1-42.57-42.57V384.72h15.59a42.61,42.61,0,0,1,42.57,42.57Zm251.21-58.16h15.59v15.59a42.61,42.61,0,0,1-42.57,42.57H360.32V427.29A42.61,42.61,0,0,1,402.89,384.72ZM15,173.62C15,94.12,79.68,29.44,159.18,29.44S303.37,94.12,303.37,173.62a143.25,143.25,0,0,1-22.14,76.68,7.43,7.43,0,0,0-1.26,2,144.18,144.18,0,0,1-120.79,65.54C79.68,317.81,15,253.13,15,173.62Zm409.89-46.15a5.86,5.86,0,0,1,5.85,5.85v22.73l-56.5,29.81a14.51,14.51,0,0,0-13.31-8.77H344.71a14.53,14.53,0,0,0-13.32,8.77l-13.12-6.92c.06-1.77.1-3.54.1-5.32a158.89,158.89,0,0,0-6.83-46.15Zm-111.18-15v-5.74A7.26,7.26,0,0,1,321,99.48h63.71a7.26,7.26,0,0,1,7.25,7.25v5.74Zm46.72,79.62v15.22H345.21V192.09Zm-43.53,3.08,13.31,7v5.62a14.51,14.51,0,0,0,14.5,14.5h16.22a14.52,14.52,0,0,0,14.5-14.5v-5.62L430.74,173v68.91a5.86,5.86,0,0,1-5.85,5.85H300A158,158,0,0,0,316.9,195.17ZM166.68,427.29a42.62,42.62,0,0,1,42.57-42.57h15.6v15.59a42.62,42.62,0,0,1-42.57,42.57h-15.6Zm178.64,15.59h-15.6a42.62,42.62,0,0,1-42.57-42.57V384.72h15.6a42.62,42.62,0,0,1,42.57,42.57Zm0-54.31a57.42,57.42,0,0,0-42.57-18.85h-23.1a7.49,7.49,0,0,0-7.5,7.5v23.09a57.63,57.63,0,0,0,57.57,57.57h15.6V497H166.68V457.88h15.6a57.63,57.63,0,0,0,57.57-57.57V377.22a7.49,7.49,0,0,0-7.5-7.5h-23.1a57.42,57.42,0,0,0-42.57,18.85V332.63a158.34,158.34,0,0,0,89.26-32.7,159.5,159.5,0,0,0,89.38,32.7ZM267.68,290A159.91,159.91,0,0,0,291,262.77h133.9a20.88,20.88,0,0,0,20.85-20.85V133.32a20.88,20.88,0,0,0-20.85-20.85h-18v-5.74a22.27,22.27,0,0,0-22.25-22.25H321a22.28,22.28,0,0,0-21,14.91,160.21,160.21,0,0,0-32.28-42.13,144.44,144.44,0,0,1,85.14-27.82C432.32,29.44,497,94.12,497,173.62S432.32,317.81,352.82,317.81A144.48,144.48,0,0,1,267.68,290ZM231.25,112.47h-18v-5.74A22.27,22.27,0,0,0,191,84.48H127.33a22.27,22.27,0,0,0-22.25,22.25v5.74h-18a20.88,20.88,0,0,0-20.85,20.85v108.6a20.88,20.88,0,0,0,20.85,20.85H231.25a20.87,20.87,0,0,0,20.85-20.85V133.32A20.88,20.88,0,0,0,231.25,112.47Zm-111.17-5.74a7.26,7.26,0,0,1,7.25-7.25H191a7.26,7.26,0,0,1,7.25,7.25v5.74H120.08Zm117,135.19a5.85,5.85,0,0,1-5.85,5.85H87.11a5.86,5.86,0,0,1-5.85-5.85V173l55.31,29.18v5.62a14.52,14.52,0,0,0,14.5,14.5h16.22a14.51,14.51,0,0,0,14.5-14.5v-5.62L237.1,173Zm-85.53-34.61V192.09h15.22v15.22Zm85.53-51.26-56.49,29.81a14.53,14.53,0,0,0-13.32-8.77H151.07a14.51,14.51,0,0,0-13.31,8.77l-56.5-29.81V133.32a5.86,5.86,0,0,1,5.85-5.85H231.25a5.86,5.86,0,0,1,5.85,5.85Z"/></svg>