<svg xmlns="http://www.w3.org/2000/svg" data-name="Layer 1" viewBox="0 0 512 512"><ellipse cx="256" cy="427.6" fill="#ffe966" rx="128.4" ry="76.9"/><path fill="#f66" d="M256,7.5C167.74,7.5,95.94,78.75,95.94,166.33,95.94,273.72,256,440.65,256,440.65S416.06,269.31,416.06,166.33C416.06,78.75,344.26,7.5,256,7.5Zm0,258.75c-56.66,0-102.59-45.58-102.59-101.8S199.34,62.66,256,62.66s102.59,45.58,102.59,101.79S312.66,266.25,256,266.25Z"/><rect width="112.46" height="74.82" x="199.77" y="138.9" fill="#ffc166" rx="7.38"/><path fill="#ffb74e" d="M304.85,138.9h-30a7.38,7.38,0,0,1,7.38,7.38v60.06a7.38,7.38,0,0,1-7.38,7.38h30a7.38,7.38,0,0,0,7.38-7.38V146.28A7.38,7.38,0,0,0,304.85,138.9Z"/><path fill="#676e87" d="M281.77,161.4H230.23a7.5,7.5,0,0,1-7.5-7.5V122.58a15.67,15.67,0,0,1,15.65-15.65h35.24a15.67,15.67,0,0,1,15.65,15.65V153.9A7.5,7.5,0,0,1,281.77,161.4Zm-44-15h36.54V122.58a.65.65,0,0,0-.65-.65H238.38a.65.65,0,0,0-.65.65Z"/><path fill="#ffae36" d="M312.23,161.35,260.88,183.7a12.18,12.18,0,0,1-9.76,0l-51.35-22.35V146.28a7.38,7.38,0,0,1,7.38-7.38h97.7a7.38,7.38,0,0,1,7.38,7.38Z"/><path fill="#ffa41f" d="M282.23,146.28v28.13l30-13.06V146.28a7.4,7.4,0,0,0-1.26-4.13c-.13-.19-.28-.38-.43-.56a7.36,7.36,0,0,0-5.69-2.69h-30A7.38,7.38,0,0,1,282.23,146.28Z"/><path fill="#272a33" d="M366.09,164.45c0-60.26-49.39-109.29-110.09-109.29s-110.09,49-110.09,109.29S195.3,273.75,256,273.75,366.09,224.72,366.09,164.45Zm-205.18,0c0-52,42.66-94.29,95.09-94.29s95.09,42.3,95.09,94.29-42.66,94.3-95.09,94.3S160.91,216.45,160.91,164.45Zm158.82,42.27V146.66a14.9,14.9,0,0,0-14.88-14.88H289.27V123a15.67,15.67,0,0,0-15.65-15.65H238.38A15.67,15.67,0,0,0,222.73,123v8.82H207.15a14.9,14.9,0,0,0-14.88,14.88v60.06a14.9,14.9,0,0,0,14.88,14.88h97.7A14.9,14.9,0,0,0,319.73,206.72Zm-14.88-.12ZM237.73,123a.65.65,0,0,1,.65-.65h35.24a.65.65,0,0,1,.65.65v8.82H237.73Zm67,83.64H207.27V173.18L248.12,191a19.86,19.86,0,0,0,15.76,0l40.85-17.78Zm0-49.78L257.89,177.2a4.69,4.69,0,0,1-3.78,0l-46.84-20.38v-10h97.46Zm28.88,201.32c2.83-3.82,5.68-7.7,8.51-11.66,54-75.23,81.44-135.84,81.44-180.15C423.56,74.61,348.4,0,256,0S88.44,74.61,88.44,166.33c0,46.15,27.4,107.33,81.46,181.83q3.81,5.26,7.62,10.36c-36.15,15.69-57.42,41-57.42,69.08,0,23.28,14.65,44.88,41.25,60.81,25.4,15.21,59,23.59,94.65,23.59s69.25-8.38,94.65-23.59c26.6-15.93,41.25-37.53,41.25-60.81C391.9,399.29,370.31,373.8,333.61,358.14ZM103.44,166.33C103.44,82.89,171.88,15,256,15S408.56,82.89,408.56,166.33c0,88.29-124.86,232.32-152.63,263.25C228,399.22,103.44,258.43,103.44,166.33Zm239.5,309.21C319.84,489.38,289,497,256,497s-63.84-7.62-86.94-21.46c-21.9-13.11-34-30.14-34-47.94,0-22.29,19.71-43.72,51.8-56.75,33.59,43.49,63.34,74.63,63.69,75a7.47,7.47,0,0,0,5.41,2.31h.05a7.46,7.46,0,0,0,5.43-2.38c.34-.37,29.58-31.78,62.81-75.25,32.59,13,52.61,34.56,52.61,57.08C376.9,445.4,364.84,462.43,342.94,475.54Z"/></svg>