<svg xmlns="http://www.w3.org/2000/svg" data-name="Layer 1" viewBox="0 0 512 512"><path fill="#676e87" d="M296.21,234.11H215.79a7.5,7.5,0,0,1-7.5-7.5V196.38a20.25,20.25,0,0,1,20.23-20.23h55a20.25,20.25,0,0,1,20.23,20.23v30.23A7.5,7.5,0,0,1,296.21,234.11Zm-72.92-15h65.42V196.38a5.23,5.23,0,0,0-5.23-5.23h-55a5.23,5.23,0,0,0-5.23,5.23Z"/><rect width="155.01" height="116.74" x="178.49" y="211.61" fill="#ffc166" rx="11.52"/><path fill="#ffb74e" d="M322,211.61h-26.6a11.52,11.52,0,0,1,11.52,11.52v93.7a11.52,11.52,0,0,1-11.52,11.52H322a11.52,11.52,0,0,0,11.52-11.52v-93.7A11.52,11.52,0,0,0,322,211.61Z"/><path fill="#ffae36" d="M333.51,246.64l-69.89,34.87a19.14,19.14,0,0,1-15.24,0l-69.89-34.87V223.13A11.52,11.52,0,0,1,190,211.61H322a11.52,11.52,0,0,1,11.52,11.52Z"/><path fill="#ffa41f" d="M295.39,211.61a11.52,11.52,0,0,1,11.52,11.52v36.78l26.6-13.27V223.13a11.48,11.48,0,0,0-2-6.44c-.21-.31-.43-.6-.66-.89a11.52,11.52,0,0,0-3.4-2.8c-.33-.18-.66-.34-1-.49a11.48,11.48,0,0,0-4.48-.9Z"/><rect width="31.35" height="31.35" x="240.32" y="267.42" fill="#676e87" rx="7"/><path fill="#595f74" d="M264.68,267.42h-14a7,7,0,0,1,7,7v17.35a7,7,0,0,1-7,7h14a7,7,0,0,0,7-7V274.42A7,7,0,0,0,264.68,267.42Z"/><circle cx="256" cy="39.5" r="32" fill="#ffe966"/><circle cx="256" cy="472.5" r="32" fill="#ffe966"/><circle cx="72.91" cy="72.91" r="32" fill="#66c1ff"/><circle cx="439.09" cy="439.09" r="32" fill="#f66"/><circle cx="439.09" cy="72.91" r="32" fill="#66c1ff"/><circle cx="72.91" cy="439.09" r="32" fill="#f66"/><circle cx="472.5" cy="256" r="32" fill="#63ea86"/><circle cx="39.5" cy="256" r="32" fill="#63ea86"/><path fill="#dedede" d="M256 156a7.5 7.5 0 0 1-7.5-7.5v-47a7.5 7.5 0 0 1 15 0v47A7.5 7.5 0 0 1 256 156zM256 418a7.5 7.5 0 0 1-7.5-7.5v-47a7.5 7.5 0 0 1 15 0v47A7.5 7.5 0 0 1 256 418zM150 157.49a7.52 7.52 0 0 1-5.31-2.2l-33.23-33.23a7.5 7.5 0 1 1 10.61-10.61l33.23 33.23a7.51 7.51 0 0 1-5.3 12.81zM395.25 402.75a7.48 7.48 0 0 1-5.31-2.2l-33.23-33.23a7.5 7.5 0 0 1 10.61-10.61l33.23 33.23a7.51 7.51 0 0 1-5.3 12.81zM362 157.49a7.51 7.51 0 0 1-5.3-12.81l33.23-33.23a7.5 7.5 0 1 1 10.61 10.61l-33.23 33.23A7.52 7.52 0 0 1 362 157.49zM116.75 402.75a7.51 7.51 0 0 1-5.3-12.81l33.23-33.23a7.5 7.5 0 1 1 10.61 10.61l-33.23 33.23A7.48 7.48 0 0 1 116.75 402.75zM410.5 263.5h-47a7.5 7.5 0 0 1 0-15h47a7.5 7.5 0 0 1 0 15zM148.5 263.5h-47a7.5 7.5 0 0 1 0-15h47a7.5 7.5 0 0 1 0 15z"/><path fill="#272a33" d="M72.91,112.41A39.5,39.5,0,1,0,45,100.84,39.24,39.24,0,0,0,72.91,112.41ZM55.59,55.59a24.49,24.49,0,1,1-7.18,17.32A24.32,24.32,0,0,1,55.59,55.59ZM362,157.49a7.52,7.52,0,0,0,5.31-2.2l33.23-33.23a7.5,7.5,0,1,0-10.61-10.61l-33.23,33.23a7.51,7.51,0,0,0,5.3,12.81ZM94,256a7.5,7.5,0,0,0,7.5,7.5h47a7.5,7.5,0,0,0,0-15h-47A7.5,7.5,0,0,0,94,256ZM256,79a39.5,39.5,0,1,0-39.5-39.5A39.55,39.55,0,0,0,256,79Zm0-64a24.5,24.5,0,1,1-24.5,24.5A24.53,24.53,0,0,1,256,15ZM363.5,248.5a7.5,7.5,0,0,0,0,15h47a7.5,7.5,0,0,0,0-15Zm-115-147v47a7.5,7.5,0,0,0,15,0v-47a7.5,7.5,0,0,0-15,0Zm190.59,10.91a39.5,39.5,0,1,0-27.93-11.57A39.24,39.24,0,0,0,439.09,112.41ZM421.76,55.59a24.5,24.5,0,1,1,0,34.65A24.34,24.34,0,0,1,421.76,55.59ZM144.68,356.71l-33.23,33.23a7.5,7.5,0,1,0,10.61,10.61l33.23-33.23a7.5,7.5,0,1,0-10.61-10.61Zm255.87,33.23-33.23-33.23a7.5,7.5,0,0,0-10.61,10.61l33.23,33.23a7.5,7.5,0,0,0,10.61-10.61Zm10.61,21.22a39.5,39.5,0,1,0,55.86,0A39.54,39.54,0,0,0,411.16,411.16Zm45.25,45.25a24.49,24.49,0,1,1,7.18-17.32A24.32,24.32,0,0,1,456.41,456.41ZM322,204.11H303.71v-7.73a20.25,20.25,0,0,0-20.23-20.23h-55a20.25,20.25,0,0,0-20.23,20.23v7.73H190a19,19,0,0,0-19,19v93.7a19,19,0,0,0,19,19H322a19,19,0,0,0,19-19v-93.7A19,19,0,0,0,322,204.11Zm-98.7-7.73a5.23,5.23,0,0,1,5.23-5.23h55a5.23,5.23,0,0,1,5.23,5.23v7.73H223.29ZM326,316.83a4,4,0,0,1-4,4H190a4,4,0,0,1-4-4V258.76l46.83,23.37v9.64a14.52,14.52,0,0,0,14.5,14.5h17.36a14.52,14.52,0,0,0,14.5-14.5v-9.64L326,258.76Zm-78.19-25.56V274.92h16.36v16.35ZM326,242l-49.18,24.54a14.49,14.49,0,0,0-12.15-6.62H247.32a14.49,14.49,0,0,0-12.15,6.62L186,242V223.13a4,4,0,0,1,4-4H322a4,4,0,0,1,4,4ZM472.5,216.5A39.5,39.5,0,1,0,512,256,39.55,39.55,0,0,0,472.5,216.5Zm0,64A24.5,24.5,0,1,1,497,256,24.53,24.53,0,0,1,472.5,280.5ZM79,256a39.5,39.5,0,1,0-39.5,39.5A39.55,39.55,0,0,0,79,256Zm-64,0a24.5,24.5,0,1,1,24.5,24.5A24.53,24.53,0,0,1,15,256ZM263.5,410.5v-47a7.5,7.5,0,0,0-15,0v47a7.5,7.5,0,0,0,15,0Zm-141.44-299a7.5,7.5,0,1,0-10.61,10.61l33.23,33.23a7.5,7.5,0,1,0,10.61-10.61ZM45,411.16a39.5,39.5,0,1,0,55.86,0A39.24,39.24,0,0,0,45,411.16Zm45.26,45.25a24.49,24.49,0,1,1,0-34.65A24.34,24.34,0,0,1,90.24,456.41ZM256,433a39.5,39.5,0,1,0,39.5,39.5A39.55,39.55,0,0,0,256,433Zm0,64a24.5,24.5,0,1,1,24.5-24.5A24.53,24.53,0,0,1,256,497Z"/></svg>