<svg xmlns="http://www.w3.org/2000/svg" data-name="Layer 1" viewBox="0 0 512 512"><polygon fill="#ffe236" points="490.2 243.33 255.66 397.28 21.59 243.6 38.49 232.24 61.63 216.69 452.36 218.38 473.46 232.29 490.2 243.33"/><rect width="390.73" height="396.98" x="61.63" y="7.5" fill="#fbfbfb" rx="30"/><rect width="300.73" height="47" x="106.63" y="52.5" fill="#dedede" rx="15"/><path fill="#ffdf1f" d="M490.2,243.33,255.66,397.28,21.59,243.6l16.9-11.36L201.08,335.49l13,8.27,20.48,13a39.93,39.93,0,0,0,42.82,0l20-12.7,13.11-8.33L473.46,232.29Z"/><path fill="#f2f2f2" d="M61.63,269.89l194,127.39,196.7-129.11V245.69L310.53,335.74l-13.11,8.33-20,12.7a39.93,39.93,0,0,1-42.82,0l-20.48-13-13-8.27L61.63,246.93Z"/><path fill="#ffe966" d="M491.5,245.83V475.66c0,15.93-13.2,28.84-29.48,28.84H50c-16.28,0-29.48-12.91-29.48-28.84V245.93c0-4.23,8.45-4.74,8.45-4.74l172.13,109.3,13,8.27,20.48,13a39.93,39.93,0,0,0,42.82,0l20-12.7,13.11-8.33,172.62-109.6S491.5,241.64,491.5,245.83Z"/><path fill="#ffdf1f" d="M483.15,241.14,461.5,254.89V475.66c0,15.93-13.2,28.84-29.48,28.84h30c16.28,0,29.48-12.91,29.48-28.84V245.83C491.5,241.64,483.15,241.14,483.15,241.14Z"/><path fill="#272a33" d="M152.63,137.5h-10.5V130a7.5,7.5,0,0,0-15,0v7.5h-10.5A17.52,17.52,0,0,0,99.13,155v29a17.52,17.52,0,0,0,17.5,17.5h10.5v34h-10.5a2.5,2.5,0,0,1-2.5-2.5V223a7.5,7.5,0,0,0-15,0v10a17.52,17.52,0,0,0,17.5,17.5h10.5V258a7.5,7.5,0,0,0,15,0v-7.5h10.5a17.52,17.52,0,0,0,17.5-17.5V204a17.52,17.52,0,0,0-17.5-17.5h-10.5v-34h10.5a2.5,2.5,0,0,1,2.5,2.5v10a7.5,7.5,0,0,0,15,0V155A17.52,17.52,0,0,0,152.63,137.5Zm-25.5,49h-10.5a2.5,2.5,0,0,1-2.5-2.5V155a2.5,2.5,0,0,1,2.5-2.5h10.5Zm25.5,15a2.5,2.5,0,0,1,2.5,2.5v29a2.5,2.5,0,0,1-2.5,2.5h-10.5v-34ZM407.36,169H209a7.5,7.5,0,0,0,0,15H407.36a7.5,7.5,0,0,0,0-15Zm-67.5,67.5a7.5,7.5,0,0,0-7.5-7.5H209a7.5,7.5,0,0,0,0,15H332.36A7.5,7.5,0,0,0,339.86,236.5Zm67.5-37.5H209a7.5,7.5,0,0,0,0,15H407.36a7.5,7.5,0,0,0,0-15ZM121.63,107H392.36a22.53,22.53,0,0,0,22.5-22.5v-17A22.53,22.53,0,0,0,392.36,45H121.63a22.52,22.52,0,0,0-22.5,22.5v17A22.52,22.52,0,0,0,121.63,107Zm-7.5-39.5a7.5,7.5,0,0,1,7.5-7.5H392.36a7.51,7.51,0,0,1,7.5,7.5v17a7.51,7.51,0,0,1-7.5,7.5H121.63a7.5,7.5,0,0,1-7.5-7.5ZM495.82,238.29a7.47,7.47,0,0,0-2.62-2.86l-33.34-21.17V37.5A37.55,37.55,0,0,0,422.36,0H91.63a37.54,37.54,0,0,0-37.5,37.5V212.57l-36,22.86a7.47,7.47,0,0,0-3.24,4.49,10.36,10.36,0,0,0-1.88,6V475.66C13,495.7,29.59,512,50,512H462c20.39,0,37-16.3,37-36.34V245.83A10.35,10.35,0,0,0,495.82,238.29Zm-36-6.26,11.82,7.5L459.86,247ZM69.13,37.5A22.52,22.52,0,0,1,91.63,15H422.36a22.53,22.53,0,0,1,22.5,22.5V256.57l-143.5,91.11a7.52,7.52,0,0,0-3.25,2.06l-24.72,15.7a32.56,32.56,0,0,1-34.78,0L69.13,257.82Zm-15,192.84v17.95l-14.14-9ZM484,475.66c0,11.77-9.86,21.34-22,21.34H50c-12.12,0-22-9.57-22-21.34V249.47l166.77,105.9L84.09,441.11A7.49,7.49,0,1,0,93.27,453l115-89,22.34,14.18a47.63,47.63,0,0,0,50.86,0l21.93-13.92L416,452.87a7.5,7.5,0,0,0,9.28-11.79L316.78,355.66,484,249.48ZM407.36,139H209a7.5,7.5,0,0,0,0,15H407.36a7.5,7.5,0,0,0,0-15Z"/></svg>