<svg xmlns="http://www.w3.org/2000/svg" data-name="Layer 1" viewBox="0 0 512 512"><rect width="272.71" height="497" x="119.65" y="7.5" fill="#f7f7f7" rx="30"/><path fill="#eee" d="M182.18,102.06H119.65V233.68l18.57,18.57a4.89,4.89,0,0,0,7.84-1.29l13.18-26.69a6.11,6.11,0,0,1,5.47-3.4h17.47a18.32,18.32,0,0,0,18.32-18.32V120.38A18.32,18.32,0,0,0,182.18,102.06Z"/><path fill="#595f74" d="M362.35,512H149.65a37.54,37.54,0,0,1-37.5-37.5V37.5A37.54,37.54,0,0,1,149.65,0h212.7a37.54,37.54,0,0,1,37.5,37.5v437A37.54,37.54,0,0,1,362.35,512ZM149.65,15a22.52,22.52,0,0,0-22.5,22.5v437a22.52,22.52,0,0,0,22.5,22.5h212.7a22.52,22.52,0,0,0,22.5-22.5V37.5A22.52,22.52,0,0,0,362.35,15Z"/><path fill="#595f74" d="M191 7.5l11.92 23.05a11 11 0 0 0 9.77 5.95h86.62a11 11 0 0 0 9.77-5.95L321 7.5zM314.31 467H197.69a7.5 7.5 0 0 1 0-15H314.31a7.5 7.5 0 0 1 0 15z"/><path fill="#63ea86" d="M40.82,87.06H182.18a18.32,18.32,0,0,1,18.32,18.32v82.17a18.32,18.32,0,0,1-18.32,18.32H164.71a6.11,6.11,0,0,0-5.47,3.4L146.06,236a4.89,4.89,0,0,1-7.84,1.29l-29.59-29.59a6.1,6.1,0,0,0-4.32-1.79H40.82A18.32,18.32,0,0,1,22.5,187.55V105.38A18.32,18.32,0,0,1,40.82,87.06Z"/><path fill="#f7f7f7" d="M152.1 137.39H70.9a7.5 7.5 0 0 1 0-15h81.2a7.5 7.5 0 1 1 0 15zM152.1 174H70.9a7.5 7.5 0 0 1 0-15h81.2a7.5 7.5 0 0 1 0 15z"/><rect width="155.01" height="116.74" x="178.49" y="256.61" fill="#ffc166" rx="11.52"/><path fill="#ffb74e" d="M322,256.61H292a11.52,11.52,0,0,1,11.52,11.52v93.7A11.52,11.52,0,0,1,292,373.35h30a11.52,11.52,0,0,0,11.52-11.52v-93.7A11.52,11.52,0,0,0,322,256.61Z"/><path fill="#676e87" d="M296.21,279.11H215.79a7.5,7.5,0,0,1-7.5-7.5V241.38a20.25,20.25,0,0,1,20.23-20.23h55a20.25,20.25,0,0,1,20.23,20.23v30.23A7.5,7.5,0,0,1,296.21,279.11Zm-72.92-15h65.42V241.38a5.23,5.23,0,0,0-5.23-5.23h-55a5.23,5.23,0,0,0-5.23,5.23Z"/><path fill="#ffae36" d="M333.51,291.64l-69.89,34.87a19.14,19.14,0,0,1-15.24,0l-69.89-34.87V268.13A11.52,11.52,0,0,1,190,256.61H322a11.52,11.52,0,0,1,11.52,11.52Z"/><path fill="#ffa41f" d="M292,256.61a11.52,11.52,0,0,1,11.52,11.52v38.48l30-15V268.13a11.48,11.48,0,0,0-2-6.44c-.21-.31-.43-.6-.66-.89a11.52,11.52,0,0,0-3.4-2.8c-.33-.18-.66-.34-1-.49a11.48,11.48,0,0,0-4.48-.9Z"/><rect width="31.35" height="31.35" x="240.32" y="312.42" fill="#676e87" rx="7"/><path fill="#595f74" d="M264.68,312.42H252.74a7,7,0,0,1,7,7v17.35a7,7,0,0,1-7,7h11.94a7,7,0,0,0,7-7V319.42A7,7,0,0,0,264.68,312.42Z"/><path fill="#272a33" d="M159.6,166.53a7.5,7.5,0,0,0-7.5-7.5H70.9a7.5,7.5,0,0,0,0,15h81.2A7.5,7.5,0,0,0,159.6,166.53ZM70.9,137.39h81.2a7.5,7.5,0,1,0,0-15H70.9a7.5,7.5,0,0,0,0,15ZM362.35,0H149.65a37.54,37.54,0,0,0-37.5,37.5V79.56H40.82A25.85,25.85,0,0,0,15,105.38v82.17a25.85,25.85,0,0,0,25.82,25.82h62.91l8.42,8.41V474.5a37.54,37.54,0,0,0,37.5,37.5h212.7a37.54,37.54,0,0,0,37.5-37.5V37.5A37.54,37.54,0,0,0,362.35,0ZM308.68,15l-6.27,12.11a3.49,3.49,0,0,1-3.1,1.89H212.69a3.49,3.49,0,0,1-3.1-1.89L203.32,15ZM125,213.37l-11-11a13.52,13.52,0,0,0-9.62-4H40.82A10.83,10.83,0,0,1,30,187.55V105.38A10.83,10.83,0,0,1,40.82,94.56H182.18A10.83,10.83,0,0,1,193,105.38v82.17a10.84,10.84,0,0,1-10.82,10.82H164.71a13.52,13.52,0,0,0-12.2,7.58L141,229.37l-16-16ZM384.85,474.5a22.52,22.52,0,0,1-22.5,22.5H149.65a22.52,22.52,0,0,1-22.5-22.5V236.78l5.77,5.78a12.38,12.38,0,0,0,19.86-3.28l12.8-25.91h16.6A25.85,25.85,0,0,0,208,187.55V105.38a25.85,25.85,0,0,0-25.82-25.82h-55V37.5A22.52,22.52,0,0,1,149.65,15h36.79l9.82,19a18.43,18.43,0,0,0,16.43,10h86.62a18.43,18.43,0,0,0,16.43-10l9.82-19h36.79a22.52,22.52,0,0,1,22.5,22.5ZM314.31,452H197.69a7.5,7.5,0,0,0,0,15H314.31a7.5,7.5,0,0,0,0-15ZM322,249.11H303.71v-7.73a20.25,20.25,0,0,0-20.23-20.23h-55a20.25,20.25,0,0,0-20.23,20.23v7.73H190a19,19,0,0,0-19,19v93.7a19,19,0,0,0,19,19H322a19,19,0,0,0,19-19v-93.7A19,19,0,0,0,322,249.11Zm-98.7-7.73a5.23,5.23,0,0,1,5.23-5.23h55a5.23,5.23,0,0,1,5.23,5.23v7.73H223.29ZM326,361.83a4,4,0,0,1-4,4H190a4,4,0,0,1-4-4V303.76l46.83,23.37v9.64a14.52,14.52,0,0,0,14.5,14.5h17.36a14.52,14.52,0,0,0,14.5-14.5v-9.64L326,303.76Zm-78.19-25.56V319.92h16.36v16.35ZM326,287l-49.18,24.54a14.49,14.49,0,0,0-12.15-6.62H247.32a14.49,14.49,0,0,0-12.15,6.62L186,287V268.13a4,4,0,0,1,4-4H322a4,4,0,0,1,4,4Z"/></svg>