<svg xmlns="http://www.w3.org/2000/svg" data-name="Layer 1" viewBox="0 0 512 512"><circle cx="256" cy="169.24" r="161.74" fill="none" stroke="#000" stroke-linecap="round" stroke-linejoin="round" stroke-width="15"/><circle cx="256" cy="169.24" r="161.74" fill="#66c1ff"/><path fill="#63ea86" d="M397.32 90.54a161.84 161.84 0 0 0-214.4-65.62A100.77 100.77 0 0 1 214.57 46.1C244 75.49 235.16 105.65 259 118.69c18.29 10 46.31 4.7 57.75-9.54 10.05-12.49 2.64-26 11.16-33.95 7.45-7 25.22-8 69.41 15.35zM403.82 235c-63.73-47.16-87.86-52.6-96.37-45.22-12.21 10.57 11.95 43.76-6.3 70-12.11 17.4-30.71 14.2-49.59 37.44a88.68 88.68 0 0 0-16.42 32.49h0A162 162 0 0 0 403.82 235zM158.34 157.08c-11.42-26.5 7.43-47.35-6.85-69.31-6.49-10-16.47-15-23.31-17.63A161.7 161.7 0 0 0 146.27 288h0c1.32-1.29 3.25-3.22 5.51-5.64a231.51 231.51 0 0 0 17.9-22c15.23-21.77 29.94-42.81 25.27-62.68C190 176.51 168.78 181.3 158.34 157.08z"/><path fill="#eee" d="M230.65,234V211a10,10,0,0,1,8.21-9.84L256,198l17.14,3.13a10,10,0,0,1,8.21,9.84v23"/><path fill="#dedede" d="M215.65,265.3V243a9,9,0,0,1,9-9h62.7a9,9,0,0,1,9,9V265.3"/><path fill="#eee" d="M202.75,265.3h106.5a15,15,0,0,1,15,15V504.5H187.75V280.3A15,15,0,0,1,202.75,265.3Z"/><rect width="76.5" height="35" x="217.75" y="295.3" fill="#b3e0ff" rx="6"/><path fill="#8cd0ff" d="M288.25,295.3h-15a6,6,0,0,1,6,6v23a6,6,0,0,1-6,6h15a6,6,0,0,0,6-6v-23A6,6,0,0,0,288.25,295.3Z"/><rect width="76.5" height="35" x="217.75" y="360.3" fill="#b3e0ff" rx="6"/><path fill="#8cd0ff" d="M288.25,360.3h-15a6,6,0,0,1,6,6v23a6,6,0,0,1-6,6h15a6,6,0,0,0,6-6v-23A6,6,0,0,0,288.25,360.3Z"/><path fill="#b3e0ff" d="M233.25,425.3h45.5a8,8,0,0,1,8,8v71.2a0,0,0,0,1,0,0h-61.5a0,0,0,0,1,0,0V433.3A8,8,0,0,1,233.25,425.3Z"/><path fill="#8cd0ff" d="M278.75,425.3h-15a8,8,0,0,1,8,8v71.2h15V433.3A8,8,0,0,0,278.75,425.3Z"/><path fill="#f7f7f7" d="M417.74,276.06V504.5H324.25V293.72l30-9.63L406,267.49A9,9,0,0,1,417.74,276.06Z"/><polygon fill="#eee" points="324.25 293.72 324.25 504.5 339.25 504.5 339.25 288.91 324.25 293.72"/><path fill="#eee" d="M406,267.49l-6.13,2a8.93,8.93,0,0,1,2.88,6.6V504.5h15V276.06A9,9,0,0,0,406,267.49Z"/><path fill="#b3e0ff" d="M385.75,352.73v-23a6,6,0,0,0-6-6H324.89a.64.64,0,0,0-.64.63v33.73a.64.64,0,0,0,.64.64h54.86A6,6,0,0,0,385.75,352.73Z"/><path fill="#8cd0ff" d="M339.25 358.09V324.36a.64.64 0 0 1 .64-.63h-15a.64.64 0 0 0-.64.63v33.73a.64.64 0 0 0 .64.64h15A.64.64 0 0 1 339.25 358.09zM379.75 323.73h-15a6 6 0 0 1 6 6v23a6 6 0 0 1-6 6h15a6 6 0 0 0 6-6v-23A6 6 0 0 0 379.75 323.73z"/><path fill="#b3e0ff" d="M385.75,417.73v-23a6,6,0,0,0-6-6H324.89a.64.64,0,0,0-.64.63v33.73a.64.64,0,0,0,.64.64h54.86A6,6,0,0,0,385.75,417.73Z"/><path fill="#8cd0ff" d="M339.25 423.09V389.36a.64.64 0 0 1 .64-.63h-15a.64.64 0 0 0-.64.63v33.73a.64.64 0 0 0 .64.64h15A.64.64 0 0 1 339.25 423.09zM379.75 388.73h-15a6 6 0 0 1 6 6v23a6 6 0 0 1-6 6h15a6 6 0 0 0 6-6v-23A6 6 0 0 0 379.75 388.73z"/><path fill="#f7f7f7" d="M94.26,504.5h93.49V293.73L106,267.5a9,9,0,0,0-11.75,8.57Z"/><polygon fill="#eee" points="172.75 288.91 172.75 504.5 187.75 504.5 187.75 293.73 172.75 288.91"/><path fill="#b3e0ff" d="M126.25,352.73v-23a6,6,0,0,1,6-6h54.86a.64.64,0,0,1,.64.63v33.73a.64.64,0,0,1-.64.64H132.25A6,6,0,0,1,126.25,352.73Z"/><path fill="#8cd0ff" d="M187.11,323.73h-15a.64.64,0,0,1,.64.63v33.73a.64.64,0,0,1-.64.64h15a.64.64,0,0,0,.64-.64V324.36A.64.64,0,0,0,187.11,323.73Z"/><path fill="#b3e0ff" d="M126.25,417.73v-23a6,6,0,0,1,6-6h54.86a.64.64,0,0,1,.64.63v33.73a.64.64,0,0,1-.64.64H132.25A6,6,0,0,1,126.25,417.73Z"/><path fill="#8cd0ff" d="M187.11,388.73h-15a.64.64,0,0,1,.64.63v33.73a.64.64,0,0,1-.64.64h15a.64.64,0,0,0,.64-.64V389.36A.64.64,0,0,0,187.11,388.73Z"/><path fill="#dedede" d="M504.5,512H7.5a7.5,7.5,0,0,1,0-15h497a7.5,7.5,0,0,1,0,15Z"/><path fill="#272a33" d="M504.5,497H425.24V276.07a16.51,16.51,0,0,0-21.55-15.71l-6.45,2.07a168.65,168.65,0,0,0,13.22-24,7.11,7.11,0,0,0,.4-.89A169.08,169.08,0,0,0,404,87.26a5.53,5.53,0,0,0-.46-.82A169.09,169.09,0,0,0,180.4,17.86a7.54,7.54,0,0,0-1.68.84,170.35,170.35,0,0,0-55.83,46.13,7.18,7.18,0,0,0-1.2,1.57,169,169,0,0,0-7,196l-6.42-2.05a16.5,16.5,0,0,0-21.54,15.71V497H7.5a7.5,7.5,0,0,0,0,15h497a7.5,7.5,0,0,0,0-15ZM256,15A154,154,0,0,1,375.58,71.94c-26-10.69-43.07-11.33-52.83-2.22-6.24,5.84-6.81,13.14-7.32,19.57-.44,5.64-.82,10.51-4.56,15.16-9.44,11.74-33.82,15.6-48.31,7.66C253.19,107,250.15,98.19,245.93,86,241.4,73,235.77,56.69,219.87,40.8a104.79,104.79,0,0,0-19.62-15.37A153.44,153.44,0,0,1,256,15ZM101.76,169.23a153.39,153.39,0,0,1,28.92-89.8A36.36,36.36,0,0,1,145.2,91.85c5.88,9,4.69,17.88,3.2,29.06-1.54,11.46-3.28,24.45,3,39.13,6.13,14.22,15.59,20.08,23.19,24.79,6.76,4.19,11.22,7,13,14.57,3.91,16.61-9.71,36.07-24.12,56.67a191.47,191.47,0,0,1-13.91,17.54l-10.05-3.22A154,154,0,0,1,101.76,169.23Zm78.49,247h-46.5v-20h46.5Zm0-65h-46.5v-20h46.5Zm0-35h-48a13.51,13.51,0,0,0-13.5,13.5v23a13.52,13.52,0,0,0,13.5,13.5h48v15h-48a13.51,13.51,0,0,0-13.5,13.5v23a13.52,13.52,0,0,0,13.5,13.5h48V497H101.76V276.07a1.44,1.44,0,0,1,.62-1.21,1.41,1.41,0,0,1,1.34-.22L132.85,284l.33.11,47.07,15.11Zm0-35.93v3.14l-15.1-4.84c3.76-4.5,7.33-9.16,10.67-13.93,15.67-22.4,31.87-45.56,26.43-68.7-3.21-13.66-12-19.09-19.71-23.89-6.71-4.16-13-8.09-17.31-18-4.69-10.88-3.37-20.75-2-31.21,1.61-12,3.42-25.53-5.48-39.22A50,50,0,0,0,140.17,67.5a155.47,155.47,0,0,1,43-34.21A92.39,92.39,0,0,1,209.27,51.4c13.45,13.46,18.25,27.32,22.49,39.54,4.7,13.59,9.15,26.41,23.59,34.33a53.47,53.47,0,0,0,25.56,6.09c16.18,0,32.61-6.27,41.65-17.51,6.64-8.26,7.33-17,7.83-23.39.4-5.2.7-8,2.61-9.78,9.4-8.79,45.14,8.38,58.79,15.46a154.15,154.15,0,0,1,8.7,127.08c-54.53-39.49-84-51.22-97.95-39.16-8.6,7.45-6.46,19.15-4.18,31.53a121.49,121.49,0,0,1,2.35,17.75,16.49,16.49,0,0,0-11.86-6.78V211a17.48,17.48,0,0,0-14.37-17.22l-11-2V177.56a7.5,7.5,0,0,0-15,0v14.23l-11,2A17.48,17.48,0,0,0,223.15,211v15.55a16.52,16.52,0,0,0-15,16.42V257.8h-5.4A22.52,22.52,0,0,0,180.25,280.3Zm107.1-38.82a1.5,1.5,0,0,1,1.5,1.5V257.8h-65.7V243a1.5,1.5,0,0,1,1.5-1.5Zm-49.2-15V211a2.5,2.5,0,0,1,2.06-2.46L256,205.67l15.8,2.88a2.5,2.5,0,0,1,2.05,2.46v15.47ZM279.25,497h-46.5V433.3a.5.5,0,0,1,.5-.5h45.5a.5.5,0,0,1,.5.5Zm37.5,0h-22.5V433.3a15.51,15.51,0,0,0-15.5-15.5h-45.5a15.51,15.51,0,0,0-15.5,15.5V497h-22.5V280.3a7.5,7.5,0,0,1,7.5-7.5H296l.32,0,.34,0h12.55a7.5,7.5,0,0,1,7.5,7.5Zm-5.86-239.13c7.6-15.64,4.54-32.37,2.22-45-1.28-7-2.87-15.66-.75-17.49,1.17-1,13.25-8.22,82,41.94a153.68,153.68,0,0,1-22,33.07l-40.62,13V280.3A22.52,22.52,0,0,0,310.89,257.87Zm20.86,73.36h46.5v20h-46.5Zm0,65h46.5v20h-46.5ZM410.24,497H331.75V431.23h48a13.52,13.52,0,0,0,13.5-13.5v-23a13.51,13.51,0,0,0-13.5-13.5h-48v-15h48a13.52,13.52,0,0,0,13.5-13.5v-23a13.51,13.51,0,0,0-13.5-13.5h-48v-17l76.53-24.56a1.41,1.41,0,0,1,1.34.22,1.44,1.44,0,0,1,.62,1.21Zm-122-209.2h-64.5a13.52,13.52,0,0,0-13.5,13.5v23a13.52,13.52,0,0,0,13.5,13.5h64.5a13.52,13.52,0,0,0,13.5-13.5v-23A13.52,13.52,0,0,0,288.25,287.8Zm-1.5,35h-61.5v-20h61.5Zm1.5,30h-64.5a13.52,13.52,0,0,0-13.5,13.5v23a13.52,13.52,0,0,0,13.5,13.5h64.5a13.52,13.52,0,0,0,13.5-13.5v-23A13.52,13.52,0,0,0,288.25,352.8Zm-1.5,35h-61.5v-20h61.5Z"/></svg>