<svg xmlns="http://www.w3.org/2000/svg" data-name="Layer 1" viewBox="0 0 512 512"><path fill="#eee" d="M436.25 145.31a7.5 7.5 0 0 1-7.5-7.5V117.56a7.5 7.5 0 1 1 15 0v20.25A7.5 7.5 0 0 1 436.25 145.31zM75.75 145.31a7.5 7.5 0 0 1-7.5-7.5V117.56a7.5 7.5 0 0 1 15 0v20.25A7.5 7.5 0 0 1 75.75 145.31zM256 60.14a7.5 7.5 0 0 1-7.5-7.5V7.5a7.5 7.5 0 0 1 15 0V52.64A7.5 7.5 0 0 1 256 60.14zM159 143.5H353a15 15 0 0 1 15 15v346a0 0 0 0 1 0 0H144a0 0 0 0 1 0 0v-346A15 15 0 0 1 159 143.5z"/><path fill="#595f74" d="M182.23,105.57H329.77a15,15,0,0,1,15,15V143.5a0,0,0,0,1,0,0H167.23a0,0,0,0,1,0,0V120.57A15,15,0,0,1,182.23,105.57Z"/><path fill="#676e87" d="M329.77,105.57H182.23V79.9a15,15,0,0,1,12-14.7L256,52.64,317.76,65.2a15,15,0,0,1,12,14.7Z"/><circle cx="256" cy="259.08" r="70.58" fill="#66c1ff"/><path fill="#63ea86" d="M256 188.5a70.3 70.3 0 0 0-31.89 7.6 49.2 49.2 0 0 1 6.21 3.28 54 54 0 0 1 7.61 6c8.83 8.5 10.05 27.5 19.37 31.68 6.73 3 12.07-4.2 28.06-9.11a83.58 83.58 0 0 1 32.3-3.18A70.52 70.52 0 0 0 256 188.5zM246.9 329.08a72 72 0 0 0 9.1.58 70.59 70.59 0 0 0 64.51-41.9 57.82 57.82 0 0 1-17.06-7.21c-7-4.4-7.6-7-11.83-9.28-11.29-6.14-31.95-1.47-37.63 9.67-4.88 9.59 4.47 17.59.07 34A40.13 40.13 0 0 1 246.9 329.08zM213.38 253.78c-5-11.57 3.24-20.67-3-30.25a20.61 20.61 0 0 0-10.17-7.69 70.57 70.57 0 0 0 7.9 95.09 87.07 87.07 0 0 0 10.21-12.08c6.64-9.5 13.07-18.68 11-27.35C227.19 262.26 217.94 264.35 213.38 253.78z"/><path fill="#676e87" d="M219.7,373.76H292.3a8,8,0,0,1,8,8V504.5a0,0,0,0,1,0,0H211.7a0,0,0,0,1,0,0V381.76A8,8,0,0,1,219.7,373.76Z"/><path fill="#f7f7f7" d="M368 205.3H489.5a15 15 0 0 1 15 15V504.5a0 0 0 0 1 0 0H368a0 0 0 0 1 0 0V205.3A0 0 0 0 1 368 205.3zM22.5 205.3H144a0 0 0 0 1 0 0V504.5a0 0 0 0 1 0 0H7.5a0 0 0 0 1 0 0V220.3A15 15 0 0 1 22.5 205.3z"/><path fill="#676e87" d="M476.6,205.3H395.9V183a9,9,0,0,1,9-9h62.7a9,9,0,0,1,9,9Z"/><path fill="#595f74" d="M461.6,174H410.9V151a10,10,0,0,1,8.21-9.84L436.25,138l17.14,3.13A10,10,0,0,1,461.6,151Z"/><path fill="#676e87" d="M116.1,205.3H35.4V183a9,9,0,0,1,9-9h62.7a9,9,0,0,1,9,9Z"/><path fill="#595f74" d="M101.1,174H50.4V151a10,10,0,0,1,8.21-9.84L75.75,138l17.14,3.13A10,10,0,0,1,101.1,151Z"/><rect width="61.5" height="56.7" x="405.5" y="250.3" fill="#b3e0ff" rx="10"/><rect width="61.5" height="56.7" x="405.5" y="402.8" fill="#b3e0ff" rx="10"/><rect width="61.5" height="56.7" x="45" y="250.3" fill="#b3e0ff" rx="10"/><rect width="61.5" height="56.7" x="45" y="402.8" fill="#b3e0ff" rx="10"/><rect width="15" height="130.74" x="248.5" y="373.76" fill="#595f74"/><path fill="#676e87" d="M106.5 362.4H45a7.5 7.5 0 0 1 0-15h61.5a7.5 7.5 0 0 1 0 15zM467 362.4H405.5a7.5 7.5 0 0 1 0-15H467a7.5 7.5 0 0 1 0 15z"/><path fill="#272a33" d="M45,362.4h61.5a7.5,7.5,0,0,0,0-15H45a7.5,7.5,0,0,0,0,15Zm10-47.89H96.5A17.52,17.52,0,0,0,114,297V260.3a17.52,17.52,0,0,0-17.5-17.5H55a17.52,17.52,0,0,0-17.5,17.5V297A17.52,17.52,0,0,0,55,314.51ZM52.5,260.3a2.5,2.5,0,0,1,2.5-2.5H96.5a2.5,2.5,0,0,1,2.5,2.5V297a2.51,2.51,0,0,1-2.5,2.5H55a2.51,2.51,0,0,1-2.5-2.5Zm271.35-39.79A78,78,0,0,0,221.43,189.1a7.71,7.71,0,0,0-1.43.73,78.64,78.64,0,0,0-25.11,20.74,6.91,6.91,0,0,0-1,1.34,77.88,77.88,0,0,0,8.59,103.9c.11.13.22.26.34.38a7.7,7.7,0,0,0,.75.66,77.87,77.87,0,0,0,42,19.59c.22,0,.44.06.66.08a77.84,77.84,0,0,0,80.85-45,7.19,7.19,0,0,0,.59-1.29,77.88,77.88,0,0,0-3.23-68.76A7.52,7.52,0,0,0,323.85,220.51ZM256,196a62.92,62.92,0,0,1,47,21.11,87.82,87.82,0,0,0-19.88,3.64,98.27,98.27,0,0,0-16.39,6.85c-2.67,1.35-5.71,2.89-6.4,2.58-2.3-1-4.71-7-6.64-11.82-2.54-6.29-5.4-13.41-10.6-18.42-.76-.73-1.54-1.43-2.31-2.08A62.88,62.88,0,0,1,256,196ZM208,300a62.91,62.91,0,0,1-5.54-74.23,9.46,9.46,0,0,1,1.62,1.88c1.64,2.52,1.4,5,.75,9.81-.7,5.27-1.58,11.83,1.64,19.31s8.36,10.63,11.78,12.74c3.06,1.9,3.45,2.28,3.79,3.73,1.27,5.41-4.4,13.51-9.88,21.34Q210.23,297.34,208,300Zm51.52,22.09a46.31,46.31,0,0,0,1.77-5.21c2.75-10.26,1-18-.27-23.66-1.11-4.91-1.4-6.81-.37-8.84,1.45-2.85,5.24-5.46,10.14-7,6.22-1.94,13.14-1.74,17.23.48a13.37,13.37,0,0,1,3,2.41,49.2,49.2,0,0,0,8.41,6.62,62.66,62.66,0,0,0,10.26,5.23A63.12,63.12,0,0,1,259.54,322.06ZM316,278.49a49.14,49.14,0,0,1-8.55-4.28,33.91,33.91,0,0,1-6.07-4.8,27.36,27.36,0,0,0-6.19-4.73c-7.64-4.15-18.69-4.78-28.84-1.63-8.94,2.77-15.7,7.92-19.05,14.49-3.59,7-2.16,13.37-.9,18.95,1.13,5,2.21,9.79.41,16.47a31.38,31.38,0,0,1-3.41,7.94,62.72,62.72,0,0,1-24.36-10.74q2.88-3.37,5.42-7c7.37-10.53,15-21.43,12.19-33.37-1.8-7.66-6.82-10.78-10.49-13-2.75-1.7-4.57-2.83-5.9-5.92-1.58-3.67-1.13-7.08-.55-11.39.76-5.65,1.7-12.69-3-20a24.74,24.74,0,0,0-4.79-5.39,63.5,63.5,0,0,1,12.42-9.48c.68.38,1.35.75,2,1.16a46,46,0,0,1,6.41,5c2.88,2.77,5,8.08,7.08,13.21,3.24,8.07,6.6,16.4,14.42,19.91a15.12,15.12,0,0,0,6.25,1.37c4.65,0,8.9-2.15,13.06-4.25a83.58,83.58,0,0,1,14-5.91,75.06,75.06,0,0,1,25.37-3.14A62.93,62.93,0,0,1,316,278.49ZM55,467H96.5A17.52,17.52,0,0,0,114,449.5V412.79a17.53,17.53,0,0,0-17.5-17.5H55a17.53,17.53,0,0,0-17.5,17.5V449.5A17.52,17.52,0,0,0,55,467Zm-2.5-54.21a2.51,2.51,0,0,1,2.5-2.5H96.5a2.51,2.51,0,0,1,2.5,2.5V449.5a2.5,2.5,0,0,1-2.5,2.5H55a2.5,2.5,0,0,1-2.5-2.5ZM457,242.8H415.5A17.52,17.52,0,0,0,398,260.3V297a17.52,17.52,0,0,0,17.5,17.5H457A17.52,17.52,0,0,0,474.5,297V260.3A17.52,17.52,0,0,0,457,242.8ZM459.5,297a2.51,2.51,0,0,1-2.5,2.5H415.5A2.51,2.51,0,0,1,413,297V260.3a2.5,2.5,0,0,1,2.5-2.5H457a2.5,2.5,0,0,1,2.5,2.5Zm30-99.21h-5.4V183a16.52,16.52,0,0,0-15-16.42V151a17.5,17.5,0,0,0-14.37-17.22l-11-2V117.56a7.5,7.5,0,1,0-15,0v14.23l-11,2A17.5,17.5,0,0,0,403.4,151v15.55a16.52,16.52,0,0,0-15,16.42V197.8H375.5V158.5A22.52,22.52,0,0,0,353,136h-.73V120.57a22.54,22.54,0,0,0-15-21.21V79.9a22.57,22.57,0,0,0-18-22.05L263.5,46.51V7.5a7.5,7.5,0,0,0-15,0v39L192.75,57.85a22.57,22.57,0,0,0-18,22.05V99.36a22.54,22.54,0,0,0-15,21.21V136H159a22.52,22.52,0,0,0-22.5,22.5v39.3H123.6V183a16.52,16.52,0,0,0-15-16.42V151a17.5,17.5,0,0,0-14.37-17.22l-11-2V117.56a7.5,7.5,0,0,0-15,0v14.23l-11,2A17.5,17.5,0,0,0,42.9,151v15.55A16.52,16.52,0,0,0,27.9,183V197.8H22.5A22.52,22.52,0,0,0,0,220.3V504.5A7.5,7.5,0,0,0,7.5,512h497a7.5,7.5,0,0,0,7.5-7.5V220.3A22.52,22.52,0,0,0,489.5,197.8ZM57.9,151A2.5,2.5,0,0,1,60,148.55l15.79-2.88,15.79,2.88A2.5,2.5,0,0,1,93.6,151v15.47H57.9Zm-15,32a1.5,1.5,0,0,1,1.5-1.5h62.7a1.5,1.5,0,0,1,1.5,1.5V197.8H42.9Zm93.6,314H15V220.3a7.51,7.51,0,0,1,7.5-7.5h114ZM189.73,79.9a7.52,7.52,0,0,1,6-7.35L256,60.3l60.27,12.25a7.52,7.52,0,0,1,6,7.35V98.07H189.73Zm-15,40.67a7.51,7.51,0,0,1,7.5-7.5H329.77a7.51,7.51,0,0,1,7.5,7.5V136H174.73ZM248.5,497H219.2V381.76a.5.5,0,0,1,.5-.5h28.8Zm44.3,0H263.5V381.26h28.8a.5.5,0,0,1,.5.5Zm67.7,0H307.8V381.76a15.52,15.52,0,0,0-15.5-15.5H219.7a15.52,15.52,0,0,0-15.5,15.5V497H151.5V158.5A7.5,7.5,0,0,1,159,151H353a7.5,7.5,0,0,1,7.5,7.5Zm57.9-346a2.5,2.5,0,0,1,2.06-2.46l15.79-2.88L452,148.55A2.5,2.5,0,0,1,454.1,151v15.47H418.4Zm-15,32a1.5,1.5,0,0,1,1.5-1.5h62.7a1.5,1.5,0,0,1,1.5,1.5V197.8H403.4ZM497,497H375.5V212.8h114a7.51,7.51,0,0,1,7.5,7.5ZM467,347.4H405.5a7.5,7.5,0,0,0,0,15H467a7.5,7.5,0,0,0,0-15Zm-10,47.89H415.5a17.53,17.53,0,0,0-17.5,17.5V449.5A17.52,17.52,0,0,0,415.5,467H457a17.52,17.52,0,0,0,17.5-17.5V412.79A17.53,17.53,0,0,0,457,395.29Zm2.5,54.21A2.5,2.5,0,0,1,457,452H415.5a2.5,2.5,0,0,1-2.5-2.5V412.79a2.51,2.51,0,0,1,2.5-2.5H457a2.51,2.51,0,0,1,2.5,2.5Z"/></svg>