<svg xmlns="http://www.w3.org/2000/svg" data-name="Layer 1" viewBox="0 0 512 512"><path fill="#66c1ff" d="M409.05,449v31.91a23.58,23.58,0,0,1-23.58,23.58H126.53A23.58,23.58,0,0,1,103,480.92V449l1.77-18.27q.07-.8.18-1.59c2.94-23.68,20.62-42.9,43.8-48.61L206.39,370,256,295.2l50.2,74.25,57.1,11.09c23.18,5.71,40.86,24.93,43.8,48.61q.11.8.18,1.59Z"/><polygon fill="#ffcd85" points="211.73 361.91 256 295.2 300.81 361.47 256 401.24 211.73 361.91"/><path fill="#ffc166" d="M256,295.2l-9.39,14.16L273.38,349a17.24,17.24,0,0,1-2.84,22.55l-24,21.32,9.48,8.42,44.8-39.77Z"/><path fill="#4eb7ff" d="M292,427.7l34.26-51.22a5,5,0,0,0-1.23-6.83L309.81,358.7a5,5,0,0,0-6.24.32L256,401.24l28.36,27.29A5,5,0,0,0,292,427.7Z"/><path fill="#4eb7ff" d="M220.06,427.7,185.8,376.48a5,5,0,0,1,1.23-6.83l15.21-10.95a5,5,0,0,1,6.24.32l47.57,42.22-28.37,27.29A5,5,0,0,1,220.06,427.7Z"/><path fill="#676e87" d="M292.06,245.53l-96.18,22.56V200.76c0-12.46,10.78-25.78,24.06-25.78h92.25a3.93,3.93,0,0,1,3.93,3.93V223C316.12,235.43,305.34,245.53,292.06,245.53Z"/><path fill="#595f74" d="M312.19,175H290.36a3.92,3.92,0,0,1,3.92,3.93V223c0,12.45-10.77,22.55-24,22.55L195.88,263v5.12l96.18-22.56c13.28,0,24.06-10.1,24.06-22.55V178.91A3.93,3.93,0,0,0,312.19,175Z"/><path fill="#ffcd85" d="M205.88,233.75H306.12a10,10,0,0,1,10,10V299a55.89,55.89,0,0,1-55.89,55.89h-8.46A55.89,55.89,0,0,1,195.88,299V243.75A10,10,0,0,1,205.88,233.75Z"/><path fill="#ffc166" d="M306.12,233.75H281.55a10,10,0,0,1,10,10V299a55.89,55.89,0,0,1-47.83,55.3,56.18,56.18,0,0,0,8.05.59h8.46A55.89,55.89,0,0,0,316.12,299V243.75A10,10,0,0,0,306.12,233.75Z"/><rect width="112.46" height="74.82" x="199.77" y="31.97" fill="#ffc166" rx="7.38"/><path fill="#ffb74e" d="M304.85,32h-30a7.39,7.39,0,0,1,7.38,7.39V99.41a7.39,7.39,0,0,1-7.38,7.39h30a7.39,7.39,0,0,0,7.38-7.39v-60A7.39,7.39,0,0,0,304.85,32Z"/><path fill="#ffae36" d="M312.23,54.43,260.88,76.77a12.18,12.18,0,0,1-9.76,0L199.77,54.43V39.35A7.39,7.39,0,0,1,207.15,32h97.7a7.39,7.39,0,0,1,7.38,7.38Z"/><path fill="#ffa41f" d="M274.85,32a7.39,7.39,0,0,1,7.38,7.39V67.48l30-13.05V39.36a7.37,7.37,0,0,0-2.16-5.22,6,6,0,0,0-.53-.48A7.35,7.35,0,0,0,304.85,32Z"/><rect width="112.46" height="74.82" x="392.04" y="31.97" fill="#ffc166" rx="7.38"/><path fill="#ffb74e" d="M497.12,32h-30a7.38,7.38,0,0,1,7.38,7.39V99.41a7.38,7.38,0,0,1-7.38,7.39h30a7.38,7.38,0,0,0,7.38-7.39v-60A7.38,7.38,0,0,0,497.12,32Z"/><path fill="#ffae36" d="M504.5,54.43,453.15,76.77a12.18,12.18,0,0,1-9.76,0L392,54.43V39.35A7.39,7.39,0,0,1,399.42,32h97.7a7.38,7.38,0,0,1,7.38,7.38Z"/><path fill="#ffa41f" d="M467.12,32a7.38,7.38,0,0,1,7.38,7.39V67.48l30-13.05V39.36a7.37,7.37,0,0,0-2.16-5.22,6,6,0,0,0-.53-.48A7.35,7.35,0,0,0,497.12,32Z"/><rect width="112.46" height="74.82" x="7.5" y="31.97" fill="#ffc166" rx="7.38"/><path fill="#ffb74e" d="M112.58,32h-30A7.39,7.39,0,0,1,90,39.36V99.41a7.39,7.39,0,0,1-7.38,7.39h30A7.39,7.39,0,0,0,120,99.41v-60A7.39,7.39,0,0,0,112.58,32Z"/><path fill="#ffae36" d="M120,54.43,68.61,76.77a12.18,12.18,0,0,1-9.76,0L7.5,54.43V39.35A7.38,7.38,0,0,1,14.88,32h97.7A7.39,7.39,0,0,1,120,39.35Z"/><path fill="#ffa41f" d="M82.58,32A7.39,7.39,0,0,1,90,39.36V67.48l30-13.05V39.36a7.37,7.37,0,0,0-2.16-5.22c-.17-.17-.35-.33-.53-.48A7.35,7.35,0,0,0,112.58,32Z"/><path fill="#272a33" d="M497.12,24.47H481.54V15.66A15.67,15.67,0,0,0,465.89,0H430.66A15.67,15.67,0,0,0,415,15.66v8.81H399.42a14.91,14.91,0,0,0-14.88,14.89V99.41a14.91,14.91,0,0,0,14.88,14.89h41.35v15.37a7.51,7.51,0,0,1-7.5,7.5H263.5V114.3h41.35a14.91,14.91,0,0,0,14.88-14.89v-60a14.91,14.91,0,0,0-14.88-14.89H289.27V15.66A15.67,15.67,0,0,0,273.62,0H238.38a15.67,15.67,0,0,0-15.65,15.66v8.81H207.15a14.91,14.91,0,0,0-14.88,14.89V99.41a14.91,14.91,0,0,0,14.88,14.89H248.5v22.87H78.73a7.51,7.51,0,0,1-7.5-7.5V114.3h41.35a14.91,14.91,0,0,0,14.88-14.89v-60a14.91,14.91,0,0,0-14.88-14.89H97V15.66A15.67,15.67,0,0,0,81.34,0H46.11A15.67,15.67,0,0,0,30.46,15.66v8.81H14.88A14.91,14.91,0,0,0,0,39.36V99.41A14.91,14.91,0,0,0,14.88,114.3H56.23v15.37a22.53,22.53,0,0,0,22.5,22.5H248.5v16.71H219.94c-18.06,0-31.56,17.57-31.56,33.28v98.22a63.28,63.28,0,0,0,22.87,48.7l-2.38,3.59a12.53,12.53,0,0,0-11.16,2.54l-12.85,10.87c-.1.08-.18.17-.28.26l-37.24,6.83-.44.09c-26.29,6.47-46.16,28.56-49.44,55-.08.6-.14,1.19-.2,1.79l-1.77,18.27c0,.24,0,.48,0,.72v31.92A31.11,31.11,0,0,0,126.53,512H385.47a31.11,31.11,0,0,0,31.08-31.07V449c0-.24,0-.48,0-.72L414.74,430c-.06-.6-.12-1.19-.2-1.79-3.28-26.41-23.15-48.5-49.44-55l-.37-.08-30.18-5.86a12.47,12.47,0,0,0-2.29-1.92l-18.44-11.89a12.58,12.58,0,0,0-10.33-1.46l-2.28-3.37a63.25,63.25,0,0,0,22.41-48.3V245.15a17.37,17.37,0,0,0-2.53-9,28.77,28.77,0,0,0,2.53-11.76V180.31a11.45,11.45,0,0,0-11.43-11.43H263.5V152.17H433.27a22.53,22.53,0,0,0,22.5-22.5V114.3h41.35A14.91,14.91,0,0,0,512,99.41v-60A14.91,14.91,0,0,0,497.12,24.47ZM304.85,99.3h0v0Zm-192.27,0h0v0ZM45.46,15.66a.65.65,0,0,1,.65-.66H81.34a.65.65,0,0,1,.66.66v8.81H45.46ZM15,39.47h97.46v10L65.62,69.9a4.77,4.77,0,0,1-3.78,0L15,49.51ZM15,99.3V65.87L55.85,83.65a19.86,19.86,0,0,0,15.76,0l40.85-17.78V99.3ZM237.73,15.66a.65.65,0,0,1,.65-.66h35.24a.65.65,0,0,1,.65.66v8.81H237.73ZM207.27,39.47h97.46v10L257.89,69.9a4.77,4.77,0,0,1-3.78,0L207.27,49.51Zm-1.53,328.59L245,402.86l-20.13,19.38-28.66-46.1ZM221,361.53l2.83-4.27a63,63,0,0,0,28,6.51h8.46A63,63,0,0,0,288.71,357l2.79,4.12L256,392.59Zm5.5,63.33Zm109.05-41.51c.12-.16.22-.33.32-.49l25.82,5c20.21,5.05,35.47,22,38,42.21.06.46.11.93.15,1.39l1.74,17.9v31.56A16.1,16.1,0,0,1,385.47,497H363V467.73a7.5,7.5,0,0,0-15,0V497H164V467.73a7.5,7.5,0,0,0-15,0V497H126.53a16.1,16.1,0,0,1-16.08-16.07V449.37l1.74-17.9c0-.46.09-.93.15-1.39,2.51-20.21,17.75-37.14,37.94-42.2L182.21,382l.11.21,31.43,50.55h0a12.46,12.46,0,0,0,9.07,5.81,13.6,13.6,0,0,0,1.56.09,12.45,12.45,0,0,0,8.65-3.49l23-22.12,23.35,22.46A12.46,12.46,0,0,0,288,439c.35,0,.7,0,1.05,0a12.5,12.5,0,0,0,9-5Zm-28.26-16.2,14.62,9.42-34.19,46.18-20.66-19.89Zm1.34-66.77a48.45,48.45,0,0,1-48.39,48.39h-8.46a48.45,48.45,0,0,1-48.39-48.39V245.15a2.5,2.5,0,0,1,2.5-2.5H306.12a2.5,2.5,0,0,1,2.5,2.5Zm0-116.5v40.5a13.44,13.44,0,0,1-.44,3.4,17.53,17.53,0,0,0-2.06-.13H205.88a17.21,17.21,0,0,0-2.5.2V202.16c0-8.28,7.39-18.28,16.56-18.28ZM207.27,99.3V65.87l40.85,17.78a19.86,19.86,0,0,0,15.76,0l40.85-17.78V99.3ZM430,15.66a.65.65,0,0,1,.66-.66h35.23a.65.65,0,0,1,.65.66v8.81H430ZM497,99.3H399.54V65.87l40.85,17.78a19.86,19.86,0,0,0,15.76,0L497,65.87Zm0-49.79L450.16,69.9a4.77,4.77,0,0,1-3.78,0L399.54,49.51v-10H497Zm.12,57.29V99.3h0ZM237.3,269.71V262.1a7.5,7.5,0,1,0-15,0v7.61a7.5,7.5,0,0,0,15,0Zm44.9-15.11a7.5,7.5,0,0,0-7.5,7.5v7.61a7.5,7.5,0,0,0,15,0V262.1A7.5,7.5,0,0,0,282.2,254.6ZM256,432.8a7.5,7.5,0,1,0,7.5,7.5A7.5,7.5,0,0,0,256,432.8Zm0,34.93a7.5,7.5,0,1,0,7.5,7.5A7.5,7.5,0,0,0,256,467.73Zm10.29-159.38a18.51,18.51,0,0,1-20.49,0,7.5,7.5,0,1,0-8.26,12.52,33.5,33.5,0,0,0,17.9,5.56H256a34,34,0,0,0,18.53-5.57,7.5,7.5,0,0,0-8.26-12.52Z"/></svg>