<svg xmlns="http://www.w3.org/2000/svg" data-name="Layer 1" viewBox="0 0 512 512"><path fill="#eee" d="M331.22,320.85,263.5,266.23V189a7.5,7.5,0,1,0-15,0v77.21l-67.72,54.62a7.5,7.5,0,0,0,9.41,11.67L256,279.45l65.81,53.07a7.5,7.5,0,1,0,9.41-11.67Z"/><path fill="#66c1ff" d="M341,504.5H484A20.55,20.55,0,0,0,504.5,484V467.33a54.65,54.65,0,0,0-44.42-53.68l-47.61-9.07-47.61,9.07a54.65,54.65,0,0,0-44.42,53.68V484A20.55,20.55,0,0,0,341,504.5Z"/><path fill="#4eb7ff" d="M460.08,413.65l-47.61-9.07-15,2.86,32.61,6.21a54.65,54.65,0,0,1,44.42,53.68V484A20.55,20.55,0,0,1,454,504.5h30A20.55,20.55,0,0,0,504.5,484V467.33A54.65,54.65,0,0,0,460.08,413.65Z"/><path fill="#ffcd85" d="M412.47,396.15h0a20.16,20.16,0,0,1,20.16,20.16v20.16a0,0,0,0,1,0,0H392.31a0,0,0,0,1,0,0V416.31A20.16,20.16,0,0,1,412.47,396.15Z" transform="rotate(-180 412.47 416.305)"/><path fill="#ffc166" d="M413.81,396.15v20.16a20.15,20.15,0,0,1-10.75,17.82,20.14,20.14,0,0,0,9.41,2.33h0a20.16,20.16,0,0,0,20.16-20.15V396.15Z"/><path fill="#676e87" d="M379.56,307.59l81.12,15.29V285.22c0-8.45-6.85-17.48-15.3-17.48H364.26v24.55A15.3,15.3,0,0,0,379.56,307.59Z"/><path fill="#595f74" d="M445.38,267.74h-30c8.45,0,15.3,9,15.3,17.48v32l30,5.66V285.22C460.68,276.77,453.83,267.74,445.38,267.74Z"/><path fill="#ffcd85" d="M412.47,307.59h0a48.21,48.21,0,0,1,48.21,48.21v37.62A10.58,10.58,0,0,1,450.09,404H374.85a10.58,10.58,0,0,1-10.58-10.58V355.79A48.21,48.21,0,0,1,412.47,307.59Z" transform="rotate(180 412.47 355.79)"/><path fill="#ffc166" d="M450.09,307.59H423.91a10.58,10.58,0,0,1,10.59,10.58v37.62a48.21,48.21,0,0,1-35.12,46.39A47.9,47.9,0,0,0,412.47,404h0a48.21,48.21,0,0,0,48.21-48.21V318.17A10.58,10.58,0,0,0,450.09,307.59Z"/><path fill="#63ea86" d="M28,504.5H171A20.55,20.55,0,0,0,191.56,484V467.33a54.65,54.65,0,0,0-44.42-53.68l-47.61-9.07-47.61,9.07A54.65,54.65,0,0,0,7.5,467.33V484A20.55,20.55,0,0,0,28,504.5Z"/><path fill="#3ce568" d="M147.14,413.65l-47.61-9.07-15,2.86,32.61,6.21a54.65,54.65,0,0,1,44.42,53.68V484A20.55,20.55,0,0,1,141,504.5h30A20.55,20.55,0,0,0,191.56,484V467.33A54.65,54.65,0,0,0,147.14,413.65Z"/><path fill="#ffcd85" d="M99.53,396.15h0a20.16,20.16,0,0,1,20.16,20.16v20.16a0,0,0,0,1,0,0H79.37a0,0,0,0,1,0,0V416.31A20.16,20.16,0,0,1,99.53,396.15Z" transform="rotate(-180 99.53 416.305)"/><path fill="#ffc166" d="M100.87,396.15v20.16a20.15,20.15,0,0,1-10.75,17.82,20.14,20.14,0,0,0,9.41,2.33h0a20.16,20.16,0,0,0,20.16-20.15V396.15Z"/><path fill="#676e87" d="M66.62,307.59l81.12,15.29V285.22c0-8.45-6.85-17.48-15.3-17.48H51.32v24.55A15.3,15.3,0,0,0,66.62,307.59Z"/><path fill="#595f74" d="M132.44,267.74h-30c8.45,0,15.3,9,15.3,17.48v32l30,5.66V285.22C147.74,276.77,140.89,267.74,132.44,267.74Z"/><path fill="#ffcd85" d="M99.53,307.59h0a48.21,48.21,0,0,1,48.21,48.21v37.62A10.58,10.58,0,0,1,137.15,404H61.91a10.58,10.58,0,0,1-10.58-10.58V355.79A48.21,48.21,0,0,1,99.53,307.59Z" transform="rotate(180 99.53 355.79)"/><path fill="#ffc166" d="M137.15,307.59H111a10.58,10.58,0,0,1,10.59,10.58v37.62a48.21,48.21,0,0,1-35.12,46.39A47.9,47.9,0,0,0,99.53,404h0a48.21,48.21,0,0,0,48.21-48.21V318.17A10.58,10.58,0,0,0,137.15,307.59Z"/><rect width="155.01" height="116.74" x="178.49" y="35.46" fill="#ffc166" rx="11.52"/><path fill="#ffb74e" d="M322,35.46H292A11.52,11.52,0,0,1,303.51,47v93.7A11.52,11.52,0,0,1,292,152.2h30a11.52,11.52,0,0,0,11.52-11.52V47A11.52,11.52,0,0,0,322,35.46Z"/><path fill="#676e87" d="M296.21,58H215.79a7.5,7.5,0,0,1-7.5-7.5V20.23A20.25,20.25,0,0,1,228.52,0h55a20.25,20.25,0,0,1,20.23,20.23V50.46A7.5,7.5,0,0,1,296.21,58ZM223.29,43h65.42V20.23A5.23,5.23,0,0,0,283.48,15h-55a5.23,5.23,0,0,0-5.23,5.23Z"/><path fill="#ffae36" d="M333.51,70.49l-69.89,34.87a19.05,19.05,0,0,1-15.24,0L178.49,70.49V47A11.52,11.52,0,0,1,190,35.46H322A11.52,11.52,0,0,1,333.51,47Z"/><path fill="#ffa41f" d="M332.12,41.49a11.62,11.62,0,0,0-1.24-1.84c-.24-.28-.49-.56-.75-.82A11.53,11.53,0,0,0,322,35.46H292A11.52,11.52,0,0,1,303.51,47V85.46l30-15V47a11.48,11.48,0,0,0-1.39-5.49Z"/><rect width="31.35" height="31.35" x="240.32" y="91.27" fill="#676e87" rx="7"/><path fill="#595f74" d="M264.68,91.27H253.19a7,7,0,0,1,7,7v17.35a7,7,0,0,1-7,7h11.49a7,7,0,0,0,7-7V98.27A7,7,0,0,0,264.68,91.27Z"/><path fill="#272a33" d="M148.54,406.28l-19-3.61a55.71,55.71,0,0,0,25.67-46.88V285.22c0-14.72-12-25-22.8-25H51.32a7.5,7.5,0,0,0-7.5,7.5v24.55a22.71,22.71,0,0,0,4.67,13.8,18,18,0,0,0-4.67,12.08v37.62a55.71,55.71,0,0,0,25.67,46.88l-19,3.61A62.22,62.22,0,0,0,0,467.33V484a28.07,28.07,0,0,0,28,28H171a28.07,28.07,0,0,0,28-28V467.33A62.22,62.22,0,0,0,148.54,406.28Zm-89.72-131h73.62c3.79,0,7.8,5.13,7.8,10v15.15a18.49,18.49,0,0,0-3.09-.28H66.62a7.81,7.81,0,0,1-7.8-7.8Zm0,80.55V318.17a3.09,3.09,0,0,1,3.09-3.08h75.24a3.09,3.09,0,0,1,3.09,3.08v37.62a40.71,40.71,0,0,1-81.42,0ZM112.19,410v6.28a12.66,12.66,0,0,1-25.32,0V410a55.25,55.25,0,0,0,25.32,0ZM184.06,484a13.06,13.06,0,0,1-13,13H28a13.06,13.06,0,0,1-13-13V467.33A47.2,47.2,0,0,1,53.33,421l18.57-3.54a27.65,27.65,0,0,0,55.26,0L145.73,421a47.2,47.2,0,0,1,38.33,46.31Zm277.42-77.68-19-3.61a55.71,55.71,0,0,0,25.67-46.88V285.22c0-14.72-12-25-22.8-25H364.26a7.5,7.5,0,0,0-7.5,7.5v24.55a22.71,22.71,0,0,0,4.67,13.8,18,18,0,0,0-4.67,12.08v37.62a55.71,55.71,0,0,0,25.67,46.88l-19,3.61a62.22,62.22,0,0,0-50.52,61.05V484a28.07,28.07,0,0,0,28,28H484a28.07,28.07,0,0,0,28-28V467.33A62.22,62.22,0,0,0,461.48,406.28Zm-89.72-131h73.62c3.79,0,7.8,5.13,7.8,10v15.15a18.49,18.49,0,0,0-3.09-.28H379.56a7.81,7.81,0,0,1-7.8-7.8Zm0,80.55V318.17a3.09,3.09,0,0,1,3.09-3.08h75.24a3.09,3.09,0,0,1,3.09,3.08v37.62a40.74,40.74,0,0,1-23.11,36.7,7.27,7.27,0,0,0-1.1.5,40.68,40.68,0,0,1-57.21-37.2ZM425.13,410v6.28a12.66,12.66,0,0,1-25.32,0V410a55.25,55.25,0,0,0,25.32,0ZM497,484a13.06,13.06,0,0,1-13,13H341a13.06,13.06,0,0,1-13-13V467.33A47.2,47.2,0,0,1,366.27,421l18.57-3.54a27.65,27.65,0,0,0,55.26,0L458.67,421A47.2,47.2,0,0,1,497,467.33ZM190,159.7H322a19,19,0,0,0,19-19V47a19,19,0,0,0-19-19H303.71V20.23A20.25,20.25,0,0,0,283.48,0h-55a20.25,20.25,0,0,0-20.23,20.23V28H190a19,19,0,0,0-19,19v93.7A19,19,0,0,0,190,159.7ZM223.29,20.23A5.23,5.23,0,0,1,228.52,15h55a5.23,5.23,0,0,1,5.23,5.23V28H223.29ZM186,47a4,4,0,0,1,4-4H322a4,4,0,0,1,4,4V65.85L276.83,90.39a14.49,14.49,0,0,0-12.15-6.62H247.32a14.49,14.49,0,0,0-12.15,6.62L186,65.85Zm78.19,51.79v16.35H247.82V98.77ZM186,82.61,232.82,106v9.64a14.52,14.52,0,0,0,14.5,14.5h17.36a14.52,14.52,0,0,0,14.5-14.5V106L326,82.61v58.07a4,4,0,0,1-4,4H190a4,4,0,0,1-4-4ZM326.51,334.18a7.5,7.5,0,0,0,4.71-13.33L263.5,266.23V189a7.5,7.5,0,1,0-15,0v77.21l-67.72,54.62a7.5,7.5,0,0,0,9.41,11.67L256,279.45l65.81,53.07A7.46,7.46,0,0,0,326.51,334.18Z"/></svg>