<svg xmlns="http://www.w3.org/2000/svg" data-name="Layer 1" viewBox="0 0 512 512"><path fill="#fff8cc" d="M134.75,110.37V37.5a30,30,0,0,1,30-30h276a30,30,0,0,1,30,30v437a30,30,0,0,1-30,30h-351"/><path fill="#fff099" d="M66.25,110.37h68.5V457.75A46.75,46.75,0,0,1,88,504.5h0a46.75,46.75,0,0,1-46.75-46.75V135.37A25,25,0,0,1,66.25,110.37Z"/><path fill="#ffe64e" d="M87,474.53a7.5,7.5,0,0,1-7.5-7.5V148.41a7.5,7.5,0,0,1,15,0V467A7.5,7.5,0,0,1,87,474.53Z"/><rect width="155.01" height="116.74" x="225.24" y="162.39" fill="#ffc166" rx="11.52"/><path fill="#ffb74e" d="M368.74,162.39h-30a11.51,11.51,0,0,1,11.52,11.51v93.71a11.52,11.52,0,0,1-11.52,11.52h30a11.52,11.52,0,0,0,11.52-11.52V173.9A11.51,11.51,0,0,0,368.74,162.39Z"/><path fill="#676e87" d="M343,184.89H262.54a7.5,7.5,0,0,1-7.5-7.5V147.15a20.24,20.24,0,0,1,20.23-20.22h55a20.24,20.24,0,0,1,20.23,20.22v30.24A7.5,7.5,0,0,1,343,184.89Zm-72.92-15h65.42V147.15a5.23,5.23,0,0,0-5.23-5.22h-55a5.23,5.23,0,0,0-5.23,5.22Z"/><path fill="#ffae36" d="M380.26,197.42l-69.89,34.87a19.14,19.14,0,0,1-15.24,0l-69.89-34.87V173.9a11.51,11.51,0,0,1,11.52-11.51h132a11.51,11.51,0,0,1,11.52,11.51Z"/><path fill="#ffa41f" d="M379.35,169.42a11.4,11.4,0,0,0-1.72-2.84,12.1,12.1,0,0,0-1.56-1.56c-.29-.24-.58-.46-.89-.67a11.47,11.47,0,0,0-6.44-2h-30a11.51,11.51,0,0,1,11.52,11.51v38.49l30-15V173.9A11.53,11.53,0,0,0,379.35,169.42Z"/><rect width="31.35" height="31.35" x="287.07" y="218.2" fill="#676e87" rx="7"/><path fill="#595f74" d="M311.43,218.2h-15a7,7,0,0,1,7,7v17.35a7,7,0,0,1-7,7h15a7,7,0,0,0,7-7V225.2A7,7,0,0,0,311.43,218.2Z"/><rect width="246" height="45" x="179.75" y="52.5" fill="#ffed80" rx="10"/><path fill="#ffed80" d="M425.75 331.63h-246a7.5 7.5 0 0 1 0-15h246a7.5 7.5 0 0 1 0 15zM425.75 376.63h-246a7.5 7.5 0 0 1 0-15h246a7.5 7.5 0 0 1 0 15zM272.75 421.63h-93a7.5 7.5 0 0 1 0-15h93a7.5 7.5 0 0 1 0 15zM425.75 421.63h-108a7.5 7.5 0 0 1 0-15h108a7.5 7.5 0 0 1 0 15zM272.75 466.63h-93a7.5 7.5 0 0 1 0-15h93a7.5 7.5 0 0 1 0 15zM425.75 466.63h-108a7.5 7.5 0 0 1 0-15h108a7.5 7.5 0 0 1 0 15z"/><path fill="#272a33" d="M272.75,451.63h-93a7.5,7.5,0,0,0,0,15h93a7.5,7.5,0,0,0,0-15Zm153,0h-108a7.5,7.5,0,0,0,0,15h108a7.5,7.5,0,0,0,0-15Zm-153-45h-93a7.5,7.5,0,0,0,0,15h93a7.5,7.5,0,0,0,0-15Zm153,0h-108a7.5,7.5,0,0,0,0,15h108a7.5,7.5,0,0,0,0-15ZM415.75,45h-226a17.52,17.52,0,0,0-17.5,17.5v25a17.52,17.52,0,0,0,17.5,17.5h226a17.52,17.52,0,0,0,17.5-17.5v-25A17.52,17.52,0,0,0,415.75,45Zm2.5,42.5a2.5,2.5,0,0,1-2.5,2.5h-226a2.5,2.5,0,0,1-2.5-2.5v-25a2.5,2.5,0,0,1,2.5-2.5h226a2.5,2.5,0,0,1,2.5,2.5ZM440.75,0h-276a37.54,37.54,0,0,0-37.5,37.5v65.37H64.12a30.41,30.41,0,0,0-30.37,30.38V454.54a7.16,7.16,0,0,0,.18,1.61,7,7,0,0,0-.18,1.6A54.32,54.32,0,0,0,88,512c.39,0,.78,0,1.16,0a5.83,5.83,0,0,0,.59,0h351a37.54,37.54,0,0,0,37.5-37.5V37.5A37.54,37.54,0,0,0,440.75,0ZM88,497a39.3,39.3,0,0,1-39.25-39.25,7,7,0,0,0-.18-1.6,7.16,7.16,0,0,0,.18-1.61V133.25a15.38,15.38,0,1,1,30.75,0V467a7.5,7.5,0,0,0,15,0V133.25a30.19,30.19,0,0,0-4.19-15.38h36.94V457.75A39.3,39.3,0,0,1,88,497Zm375.25-22.5a22.52,22.52,0,0,1-22.5,22.5H125.39a54.07,54.07,0,0,0,16.86-39.25V37.5A22.52,22.52,0,0,1,164.75,15h276a22.52,22.52,0,0,1,22.5,22.5Zm-37.5-112.87h-246a7.5,7.5,0,0,0,0,15h246a7.5,7.5,0,0,0,0-15Zm-95.52-234.7h-55A20.24,20.24,0,0,0,255,147.15v7.74H236.76a19,19,0,0,0-19,19v93.71a19,19,0,0,0,19,19h132a19,19,0,0,0,19-19V173.9a19,19,0,0,0-19-19H350.46v-7.74A20.24,20.24,0,0,0,330.23,126.93ZM270,147.15a5.23,5.23,0,0,1,5.23-5.22h55a5.23,5.23,0,0,1,5.23,5.22v7.74H270ZM372.76,267.61a4,4,0,0,1-4,4h-132a4,4,0,0,1-4-4V209.54l46.83,23.37v9.64a14.52,14.52,0,0,0,14.5,14.5h17.36a14.52,14.52,0,0,0,14.5-14.5v-9.64l46.83-23.37Zm-78.19-25.56V225.7h16.36v16.35Zm74.17-72.16a4,4,0,0,1,4,4v18.88l-49.18,24.53a14.51,14.51,0,0,0-12.15-6.61H294.07a14.51,14.51,0,0,0-12.15,6.61l-49.18-24.53V173.9a4,4,0,0,1,4-4Zm57,146.74h-246a7.5,7.5,0,0,0,0,15h246a7.5,7.5,0,0,0,0-15Z"/></svg>