<svg xmlns="http://www.w3.org/2000/svg" data-name="Layer 1" viewBox="0 0 512 512"><rect width="364.28" height="323.03" x="73.86" y="7.5" fill="#f2f2f2" rx="30"/><path fill="#676e87" d="M438.14,37.5V74.61H73.86V37.5a30,30,0,0,1,30-30H408.14A30,30,0,0,1,438.14,37.5Z"/><path fill="#ffed80" d="M467,263.5v211a30,30,0,0,1-30,30H75a30,30,0,0,1-30-30v-271a30,30,0,0,1,30-30H225.36a30,30,0,0,1,21.47,9.05l40.88,41.91a30,30,0,0,0,21.48,9H437A30,30,0,0,1,467,263.5Z"/><path fill="#ffe966" d="M257.71 224.46a30 30 0 0 0 21.48 9h30a30 30 0 0 1-21.48-9l-40.88-41.91a30 30 0 0 0-21.47-9.05h-30a30 30 0 0 1 21.47 9.05zM437 233.5H407a30 30 0 0 1 30 30v211a30 30 0 0 1-30 30h30a30 30 0 0 0 30-30v-211A30 30 0 0 0 437 233.5z"/><path fill="#ffe236" d="M467,263.5v26.75H45V203.5a30,30,0,0,1,30-30H225.36a30,30,0,0,1,21.47,9.05l40.88,41.91a30,30,0,0,0,21.48,9H437A30,30,0,0,1,467,263.5Z"/><path fill="#ffdf1f" d="M437,233.5H407a30,30,0,0,1,30,30v26.75h30V263.5A30,30,0,0,0,437,233.5Z"/><rect width="155.02" height="116.75" x="178.49" y="353.61" fill="#ffc166" rx="11.52"/><path fill="#ffb74e" d="M322,353.61H292a11.52,11.52,0,0,1,11.52,11.52v93.71A11.53,11.53,0,0,1,292,470.36h30a11.53,11.53,0,0,0,11.52-11.52V365.13A11.52,11.52,0,0,0,322,353.61Z"/><path fill="#ffae36" d="M333.51,365.13v23.52l-61.83,30.84H240.32l-61.83-30.84V365.13A11.52,11.52,0,0,1,190,353.61H322A11.52,11.52,0,0,1,333.51,365.13Z"/><path fill="#ffa41f" d="M322,353.61H292a11.52,11.52,0,0,1,11.52,11.52v38.48l30-15V365.13A11.52,11.52,0,0,0,322,353.61Z"/><rect width="31.35" height="31.35" x="240.32" y="409.42" fill="#676e87" rx="7"/><path fill="#595f74" d="M264.68,409.42h-15a7,7,0,0,1,7,7v17.35a7,7,0,0,1-7,7h15a7,7,0,0,0,7-7V416.42A7,7,0,0,0,264.68,409.42Z"/><path fill="#272a33" d="M164.06,30a7.5,7.5,0,1,0,7.5,7.5A7.5,7.5,0,0,0,164.06,30Zm-30,0a7.5,7.5,0,1,0,7.5,7.5A7.5,7.5,0,0,0,134.06,30ZM445.64,227V37.5A37.54,37.54,0,0,0,408.14,0H103.86a37.54,37.54,0,0,0-37.5,37.5V167A37.56,37.56,0,0,0,37.5,203.5v271A37.54,37.54,0,0,0,75,512H437a37.54,37.54,0,0,0,37.5-37.5v-211A37.56,37.56,0,0,0,445.64,227ZM81.36,37.5A22.52,22.52,0,0,1,103.86,15H408.14a22.52,22.52,0,0,1,22.5,22.5V67.11H81.36Zm0,44.61H430.64V226H309.19a22.61,22.61,0,0,1-16.11-6.79l-40.88-41.9A37.72,37.72,0,0,0,225.36,166h-144ZM459.5,474.5A22.52,22.52,0,0,1,437,497H75a22.52,22.52,0,0,1-22.5-22.5V297.75h407Zm0-191.75H52.5V203.5A22.52,22.52,0,0,1,75,181H225.36a22.61,22.61,0,0,1,16.1,6.79l40.89,41.9A37.69,37.69,0,0,0,309.19,241H437a22.52,22.52,0,0,1,22.5,22.5ZM104.06,30a7.5,7.5,0,1,0,7.5,7.5A7.5,7.5,0,0,0,104.06,30ZM393.14,157.11H298.86a7.5,7.5,0,0,0,0,15h94.28a7.5,7.5,0,0,0,0-15ZM190,477.85H322a19,19,0,0,0,19-19v-93.7a19,19,0,0,0-19-19H303.71v-7.73a20.25,20.25,0,0,0-20.23-20.23h-55a20.25,20.25,0,0,0-20.23,20.23v7.73H190a19,19,0,0,0-19,19v93.7A19,19,0,0,0,190,477.85Zm33.28-139.47a5.23,5.23,0,0,1,5.23-5.23h55a5.23,5.23,0,0,1,5.23,5.23v7.73H223.29ZM186,365.13a4,4,0,0,1,4-4H322a4,4,0,0,1,4,4V384l-49.18,24.54a14.49,14.49,0,0,0-12.15-6.62H247.32a14.49,14.49,0,0,0-12.15,6.62L186,384Zm78.19,51.79v16.35H247.82V416.92ZM186,400.76l46.83,23.37v9.64a14.52,14.52,0,0,0,14.5,14.5h17.36a14.52,14.52,0,0,0,14.5-14.5v-9.64L326,400.76v58.07a4,4,0,0,1-4,4H190a4,4,0,0,1-4-4ZM118.86,112.11H393.14a7.5,7.5,0,0,0,0-15H118.86a7.5,7.5,0,0,0,0,15Zm281.78,22.5a7.5,7.5,0,0,0-7.5-7.5H118.86a7.5,7.5,0,0,0,0,15H393.14A7.5,7.5,0,0,0,400.64,134.61Z"/></svg>