<svg xmlns="http://www.w3.org/2000/svg" data-name="Layer 1" viewBox="0 0 512 512"><path fill="#676e87" d="M64.94,111.49H447.06A25.53,25.53,0,0,1,472.6,137V436.71a0,0,0,0,1,0,0H39.4a0,0,0,0,1,0,0V137A25.53,25.53,0,0,1,64.94,111.49Z"/><rect width="230.22" height="353.19" x="140.89" y="90" fill="#f7f7f7" transform="rotate(90 256 266.6)"/><path fill="#595f74" d="M504.5,442.61V422.56a2.8,2.8,0,0,0-2.8-2.8H315.52a8.48,8.48,0,0,0-8.48,8.47h0a8.48,8.48,0,0,1-8.48,8.48H213.44a8.48,8.48,0,0,1-8.48-8.48h0a8.48,8.48,0,0,0-8.48-8.47H10.3a2.8,2.8,0,0,0-2.8,2.8v20.05a32.25,32.25,0,0,0,32.27,32.23H472.23a32.25,32.25,0,0,0,32.27-32.23"/><path fill="#f66" d="M298.21,381.71H432.6V354.57a39.89,39.89,0,0,0-32.44-39.19l-34.76-6.63-34.76,6.63a39.88,39.88,0,0,0-32.43,39.19Z"/><path fill="#ff4e4e" d="M400.16,315.38l-34.76-6.63-7.5,1.43,27.26,5.2a39.89,39.89,0,0,1,32.44,39.19v27.14h15V354.57A39.89,39.89,0,0,0,400.16,315.38Z"/><path fill="#ffcd85" d="M365.4,302.6h0a14.72,14.72,0,0,1,14.72,14.72V332a0,0,0,0,1,0,0H350.68a0,0,0,0,1,0,0V317.31A14.72,14.72,0,0,1,365.4,302.6Z" transform="rotate(-180 365.4 317.315)"/><path fill="#ffc166" d="M368.79,302.6v14.71a14.72,14.72,0,0,1-9.05,13.59A14.59,14.59,0,0,0,365.4,332h0a14.72,14.72,0,0,0,14.72-14.72V302.6Z"/><path fill="#676e87" d="M341.37,237.94,400.6,249.1V221.61c0-6.17-5-12.77-11.17-12.77H330.21v17.93A11.17,11.17,0,0,0,341.37,237.94Z"/><path fill="#595f74" d="M389.43,208.84h-15c6.17,0,11.17,6.6,11.17,12.77v24.66l15,2.83V221.61C400.6,215.44,395.6,208.84,389.43,208.84Z"/><path fill="#ffcd85" d="M365.4,237.94h0a35.2,35.2,0,0,1,35.2,35.2v22.4a12.8,12.8,0,0,1-12.8,12.8H343a12.8,12.8,0,0,1-12.8-12.8v-22.4a35.2,35.2,0,0,1,35.2-35.2Z" transform="rotate(-180 365.4 273.13)"/><path fill="#ffc166" d="M387.8,237.94h-15a12.8,12.8,0,0,1,12.8,12.79v22.4a35.2,35.2,0,0,1-27.7,34.39,35.68,35.68,0,0,0,7.5.81h0a35.2,35.2,0,0,0,35.2-35.2v-22.4A12.8,12.8,0,0,0,387.8,237.94Z"/><path fill="#66c1ff" d="M213.79,381.71H79.4V354.57a39.89,39.89,0,0,1,32.44-39.19l34.76-6.63,34.76,6.63a39.88,39.88,0,0,1,32.43,39.19Z"/><path fill="#4eb7ff" d="M181.36,315.38l-34.76-6.63-7.5,1.43,27.26,5.2a39.88,39.88,0,0,1,32.43,39.19v27.14h15V354.57A39.88,39.88,0,0,0,181.36,315.38Z"/><path fill="#ffcd85" d="M131.88,302.6h29.44a0,0,0,0,1,0,0v14.72A14.72,14.72,0,0,1,146.6,332h0a14.72,14.72,0,0,1-14.72-14.72V302.6a0,0,0,0,1,0,0Z"/><path fill="#ffc166" d="M149.14,302.6v14.71a14.69,14.69,0,0,1-8.63,13.39A14.58,14.58,0,0,0,146.6,332h0a14.72,14.72,0,0,0,14.72-14.72V302.6Z"/><path fill="#676e87" d="M170.63,237.94,111.4,249.1V221.61c0-6.17,5-12.77,11.17-12.77h59.22v17.93A11.17,11.17,0,0,1,170.63,237.94Z"/><path fill="#595f74" d="M166.79,208.84v17.93a11.17,11.17,0,0,1-11.16,11.17l-44.23,8.33v2.83l59.23-11.16a11.17,11.17,0,0,0,11.16-11.17V208.84Z"/><path fill="#ffcd85" d="M124.2,237.94H169a12.8,12.8,0,0,1,12.8,12.8v22.4a35.2,35.2,0,0,1-35.2,35.2h0a35.2,35.2,0,0,1-35.2-35.2v-22.4a12.8,12.8,0,0,1,12.8-12.8Z"/><path fill="#ffc166" d="M169,237.94H154a12.79,12.79,0,0,1,12.79,12.79v22.4a35.2,35.2,0,0,1-27.69,34.39,35.61,35.61,0,0,0,7.5.81h0a35.19,35.19,0,0,0,35.19-35.2v-22.4A12.79,12.79,0,0,0,169,237.94Z"/><circle cx="256" cy="266.6" r="44.89" fill="#63ea86"/><path fill="#595f74" d="M434,175.45a5,5,0,0,1,3.54-1.46H472.6V137a25.54,25.54,0,0,0-25.54-25.53H331.5"/><path fill="#dedede" d="M331.5,159a15,15,0,0,0,15,15h41.57a5,5,0,0,1,4.49,2.78l10.79,21.85a4,4,0,0,0,6.41,1.06l22.84-22.83V151.49H331.5Z"/><path fill="#ffe966" d="M474.5,37.16h-128a15,15,0,0,0-15,15V144a15,15,0,0,0,15,15h41.57a5,5,0,0,1,4.49,2.78l10.79,21.85a4,4,0,0,0,6.41,1.06L434,160.45a5,5,0,0,1,3.54-1.46h37a15,15,0,0,0,15-15V52.16A15,15,0,0,0,474.5,37.16Z"/><path fill="#ffe236" d="M474.5,37.16H454.14a15,15,0,0,1,15,15V144a15,15,0,0,1-15,15H474.5a15,15,0,0,0,15-15V52.16A15,15,0,0,0,474.5,37.16Z"/><path fill="#595f74" d="M180.5,159v-47.5H64.94A25.54,25.54,0,0,0,39.4,137v37h40"/><path fill="#dedede" d="M79.4,151.49V174H89.47A5,5,0,0,1,93,175.45l24.23,24.23a4,4,0,0,0,6.41-1.06l10.79-21.85a5,5,0,0,1,4.49-2.78H165.5a15,15,0,0,0,15-15v-7.5Z"/><path fill="#ffe966" d="M22.5,37.16h128a15,15,0,0,1,15,15V144a15,15,0,0,1-15,15H123.93a5,5,0,0,0-4.49,2.78l-10.79,21.85a4,4,0,0,1-6.41,1.06L78,160.45A5,5,0,0,0,74.47,159h-52a15,15,0,0,1-15-15V52.16A15,15,0,0,1,22.5,37.16Z"/><path fill="#ffe236" d="M150.5,37.16H128.37a15,15,0,0,1,15,15V144a15,15,0,0,1-15,15H150.5a15,15,0,0,0,15-15V52.16A15,15,0,0,0,150.5,37.16Z"/><path fill="#272a33" d="M397.64,86.66a7.5,7.5,0,0,0,7.5-7.5,4.07,4.07,0,0,1,4.06-4.07h9.7A4.07,4.07,0,0,1,423,79.16v5.22a4.07,4.07,0,0,1-4.07,4.07,15.79,15.79,0,0,0-15.78,15.78v8.48a7.5,7.5,0,1,0,15,0v-8.48a.78.78,0,0,1,.78-.78A19.09,19.09,0,0,0,438,84.38V79.16A19.09,19.09,0,0,0,418.9,60.09h-9.7a19.08,19.08,0,0,0-19.06,19.07A7.5,7.5,0,0,0,397.64,86.66Zm13.81,42.25a7.5,7.5,0,1,0,7.5,7.5A7.5,7.5,0,0,0,411.45,128.91ZM501.7,412.26H480.1V165.78A22.54,22.54,0,0,0,497,144V52.16a22.53,22.53,0,0,0-22.5-22.5h-128A22.53,22.53,0,0,0,324,52.16V104H173V52.16a22.53,22.53,0,0,0-22.5-22.5H22.5A22.53,22.53,0,0,0,0,52.16V144a22.52,22.52,0,0,0,22.5,22.5h9.4V412.26H10.3A10.31,10.31,0,0,0,0,422.56v20.05a39.8,39.8,0,0,0,39.77,39.73H472.23A39.8,39.8,0,0,0,512,442.61V422.56A10.31,10.31,0,0,0,501.7,412.26ZM339,52.16a7.51,7.51,0,0,1,7.5-7.5h128a7.51,7.51,0,0,1,7.5,7.5V144a7.51,7.51,0,0,1-7.5,7.5h-37a12.42,12.42,0,0,0-8.84,3.66l-20.78,20.78-8.63-17.48a12.42,12.42,0,0,0-11.21-7H346.5A7.51,7.51,0,0,1,339,144Zm-259.6,337H432.6a7.5,7.5,0,0,0,7.5-7.5V166.49h25V412.26H315.52a16,16,0,0,0-16,16,1,1,0,0,1-1,1H213.44a1,1,0,0,1-1-1,16,16,0,0,0-16-16H46.9V166.49h25V381.71A7.5,7.5,0,0,0,79.4,389.21Zm44.8-143.77H169a5.29,5.29,0,0,1,5.29,5.29v22.4a27.7,27.7,0,1,1-55.39,0v-22.4A5.3,5.3,0,0,1,124.2,245.44Zm-5.3-14.28v-9.55c0-2.49,2.19-5.27,3.67-5.27h51.72v10.43a3.67,3.67,0,0,1-3.66,3.67,6.85,6.85,0,0,0-.79,0c-.29,0-.56,0-.84,0H124.2A20.12,20.12,0,0,0,118.9,231.16Zm34.92,86.25a7.22,7.22,0,0,1-14.44-.1v-2.1a42.28,42.28,0,0,0,14.37,0Zm-7.22,22.12a22.24,22.24,0,0,0,22-18.95L180,322.74a32.45,32.45,0,0,1,26.34,31.83v19.64H86.9V354.57a32.45,32.45,0,0,1,26.34-31.83l11.38-2.16A22.24,22.24,0,0,0,146.6,339.53ZM343,245.44h44.8a5.3,5.3,0,0,1,5.3,5.29v22.4a27.7,27.7,0,1,1-55.39,0v-22.4A5.29,5.29,0,0,1,343,245.44Zm-5.29-18.67V216.34h51.72c1.48,0,3.67,2.78,3.67,5.27v9.55a20.12,20.12,0,0,0-5.3-.72H343c-.28,0-.55,0-.84,0a6.85,6.85,0,0,0-.79,0A3.67,3.67,0,0,1,337.71,226.77Zm34.91,90.54a7.22,7.22,0,0,1-14.44,0v-2.1a42.35,42.35,0,0,0,14.44,0Zm-7.22,22.22a22.25,22.25,0,0,0,22-18.95l11.38,2.16a32.45,32.45,0,0,1,26.34,31.83v19.64H305.71V354.57a32.45,32.45,0,0,1,26.34-31.83l11.38-2.16A22.24,22.24,0,0,0,365.4,339.53ZM173,119H324v25H173Zm-5.75,40h162.5a22.43,22.43,0,0,0,16.75,7.5h40l10.1,20.45a11.54,11.54,0,0,0,8.44,6.26,11.79,11.79,0,0,0,1.87.15,11.54,11.54,0,0,0,8.14-3.37l10-10V320a47.3,47.3,0,0,0-23.53-12l-9.25-1.76a42.65,42.65,0,0,0,15.78-33.12v-22.4c0-.28,0-.56,0-.84s0-.52,0-.79V221.61c0-9.59-7.67-20.27-18.67-20.27H330.21a7.5,7.5,0,0,0-7.5,7.5v17.93a18.57,18.57,0,0,0,4.15,11.71,20.2,20.2,0,0,0-4.15,12.25v22.4a42.65,42.65,0,0,0,15.78,33.12L329.24,308a47.44,47.44,0,0,0-38.53,46.56v19.64H221.29V354.57A47.44,47.44,0,0,0,182.76,308l-9.25-1.76a42.65,42.65,0,0,0,15.78-33.12v-22.4a20.2,20.2,0,0,0-4.15-12.25,18.57,18.57,0,0,0,4.15-11.71V208.84a7.5,7.5,0,0,0-7.5-7.5H122.57c-11,0-18.67,10.68-18.67,20.27V249.1c0,.27,0,.53,0,.79s0,.56,0,.84v22.4a42.65,42.65,0,0,0,15.78,33.12L110.43,308A47.3,47.3,0,0,0,86.9,320V180l10,10a11.54,11.54,0,0,0,8.14,3.37,11.79,11.79,0,0,0,1.87-.15,11.54,11.54,0,0,0,8.44-6.26l10.1-20.45h25A22.43,22.43,0,0,0,167.25,159ZM22.5,151.49A7.51,7.51,0,0,1,15,144V52.16a7.51,7.51,0,0,1,7.5-7.5h128a7.51,7.51,0,0,1,7.5,7.5V144a7.51,7.51,0,0,1-7.5,7.5H123.93a12.42,12.42,0,0,0-11.21,7l-8.63,17.48L84.71,156.55h0l-1.39-1.39a12.42,12.42,0,0,0-8.84-3.66ZM497,442.61a24.78,24.78,0,0,1-24.77,24.73H39.77A24.78,24.78,0,0,1,15,442.61V427.26H196.48a1,1,0,0,1,1,1,16,16,0,0,0,16,16h85.12a16,16,0,0,0,16-16,1,1,0,0,1,1-1H497ZM59.4,92h54.2a7.5,7.5,0,0,0,0-15H59.4a7.5,7.5,0,1,0,0,15ZM256,319a52.39,52.39,0,1,0-52.39-52.39A52.45,52.45,0,0,0,256,319Zm0-89.78a37.39,37.39,0,1,1-37.39,37.39A37.43,37.43,0,0,1,256,229.21ZM121.1,114.51a7.5,7.5,0,0,0-7.5-7.5H59.4a7.5,7.5,0,1,0,0,15h54.2A7.5,7.5,0,0,0,121.1,114.51ZM247.23,281.33a18.61,18.61,0,0,0,26.3,0l.45-.45a7.5,7.5,0,0,0-10.61-10.61l-.44.45a3.61,3.61,0,0,1-5.09,0l-6-6a3.61,3.61,0,0,1,0-5.09l.44-.44a7.5,7.5,0,0,0-10.6-10.61l-.45.45a18.62,18.62,0,0,0,0,26.3Z"/></svg>