<svg xmlns="http://www.w3.org/2000/svg" data-name="Layer 1" viewBox="0 0 512 512"><rect width="272.71" height="497" x="119.65" y="7.5" fill="#f7f7f7" rx="30"/><path fill="#dedede" d="M176.15 122.65h-56.5l-7.5 116.79v16l15.73 14.7a4 4 0 0 0 6.42-1.05l10.79-21.85a5 5 0 0 1 4.48-2.79h26.58a15 15 0 0 0 15-15V137.65A15 15 0 0 0 176.15 122.65zM399.85 256.35V239.44l-7.5-116.79h-56.5a15 15 0 0 0-15 15v91.83a15 15 0 0 0 15 15h26.58a5 5 0 0 1 4.48 2.79l10.79 21.85a4 4 0 0 0 6.42 1.05z"/><path fill="#595f74" d="M299.31,36.5H212.69a11,11,0,0,1-9.77-5.95L191,7.5H321L309.08,30.55A11,11,0,0,1,299.31,36.5Z"/><circle cx="256" cy="421" r="44.89" fill="#63ea86"/><polygon fill="#595f74" points="127.15 122.66 119.65 122.66 112.15 239.44 112.15 255.47 127.15 269.49 127.15 122.66"/><polygon fill="#595f74" points="399.85 239.43 392.35 122.66 384.85 122.66 384.85 269.53 399.85 256.35 399.85 239.43"/><path fill="#f66" d="M347.66,459.5H452.05a15,15,0,0,0,15-15V432.36a39.9,39.9,0,0,0-32.44-39.19l-34.76-6.62-34.76,6.62a39.9,39.9,0,0,0-32.43,39.19V444.5A15,15,0,0,0,347.66,459.5Z"/><path fill="#ff4e4e" d="M434.61,393.17l-34.76-6.62-7.5,1.43,27.26,5.19a39.9,39.9,0,0,1,32.44,39.19V444.5a15,15,0,0,1-15,15h15a15,15,0,0,0,15-15V432.36A39.9,39.9,0,0,0,434.61,393.17Z"/><path fill="#ffcd85" d="M399.85,380.39h0a14.72,14.72,0,0,1,14.72,14.72v14.72a0,0,0,0,1,0,0H385.14a0,0,0,0,1,0,0V395.11A14.72,14.72,0,0,1,399.85,380.39Z" transform="rotate(-180 399.855 395.105)"/><path fill="#ffc166" d="M403.8,380.39v14.72a14.71,14.71,0,0,1-9.33,13.68,14.67,14.67,0,0,0,20.1-13.68V380.39Z"/><path fill="#676e87" d="M375.82,315.73l59.23,11.16V299.4c0-6.17-5-12.76-11.17-12.76H364.66v17.92A11.17,11.17,0,0,0,375.82,315.73Z"/><path fill="#595f74" d="M423.88,286.64h-15c6.17,0,11.17,6.59,11.17,12.76v24.67l15,2.82V299.4C435.05,293.23,430.05,286.64,423.88,286.64Z"/><path fill="#ffcd85" d="M399.85,315.73h0a35.2,35.2,0,0,1,35.2,35.2v22.4a12.8,12.8,0,0,1-12.8,12.8h-44.8a12.8,12.8,0,0,1-12.8-12.8v-22.4a35.2,35.2,0,0,1,35.2-35.2Z" transform="rotate(-180 399.855 350.925)"/><path fill="#ffc166" d="M422.25,315.73h-15a12.8,12.8,0,0,1,12.8,12.8v22.39a35.2,35.2,0,0,1-27.7,34.39,35,35,0,0,0,7.5.81h0a35.2,35.2,0,0,0,35.2-35.2V328.53A12.8,12.8,0,0,0,422.25,315.73Z"/><path fill="#63ea86" d="M463.85,107.65h-128a15,15,0,0,0-15,15v91.83a15,15,0,0,0,15,15h26.58a5,5,0,0,1,4.48,2.79l10.79,21.85a4,4,0,0,0,6.42,1L408.34,231a5,5,0,0,1,3.54-1.47h52a15,15,0,0,0,15-15V122.65A15,15,0,0,0,463.85,107.65Z"/><path fill="#3ce568" d="M463.85,107.65H443.49a15,15,0,0,1,15,15v91.83a15,15,0,0,1-15,15h20.36a15,15,0,0,0,15-15V122.65A15,15,0,0,0,463.85,107.65Z"/><path fill="#66c1ff" d="M164.34,459.5H60a15,15,0,0,1-15-15V432.36a39.9,39.9,0,0,1,32.44-39.19l34.76-6.62,34.76,6.62a39.9,39.9,0,0,1,32.43,39.19V444.5A15,15,0,0,1,164.34,459.5Z"/><path fill="#4eb7ff" d="M146.91,393.17l-34.76-6.62-7.5,1.43,27.26,5.19a39.9,39.9,0,0,1,32.43,39.19V444.5a15,15,0,0,1-15,15h15a15,15,0,0,0,15-15V432.36A39.9,39.9,0,0,0,146.91,393.17Z"/><path fill="#ffcd85" d="M97.43,380.39h29.44a0,0,0,0,1,0,0v14.72a14.72,14.72,0,0,1-14.72,14.72h0a14.72,14.72,0,0,1-14.72-14.72V380.39A0,0,0,0,1,97.43,380.39Z"/><path fill="#ffc166" d="M115,380.39v14.72a14.72,14.72,0,0,1-8.78,13.46,14.7,14.7,0,0,0,20.65-13.46V380.39Z"/><path fill="#676e87" d="M136.18,315.73,77,326.89V299.4c0-6.17,5-12.76,11.17-12.76h59.22v17.92A11.17,11.17,0,0,1,136.18,315.73Z"/><path fill="#595f74" d="M132.34,286.64v17.92a11.17,11.17,0,0,1-11.16,11.17L77,324.07v2.82l59.23-11.16a11.17,11.17,0,0,0,11.16-11.17V286.64Z"/><path fill="#ffcd85" d="M89.75,315.73h44.8a12.8,12.8,0,0,1,12.8,12.8v22.4a35.2,35.2,0,0,1-35.2,35.2h0a35.2,35.2,0,0,1-35.2-35.2v-22.4A12.8,12.8,0,0,1,89.75,315.73Z"/><path fill="#ffc166" d="M134.54,315.73h-15a12.8,12.8,0,0,1,12.8,12.8v22.39a35.2,35.2,0,0,1-27.69,34.39,34.89,34.89,0,0,0,7.5.81h0a35.2,35.2,0,0,0,35.19-35.2V328.53A12.8,12.8,0,0,0,134.54,315.73Z"/><path fill="#63ea86" d="M48.15,107.65h128a15,15,0,0,1,15,15v91.83a15,15,0,0,1-15,15H149.57a5,5,0,0,0-4.48,2.79L134.3,254.12a4,4,0,0,1-6.42,1L103.66,231a5,5,0,0,0-3.54-1.47h-52a15,15,0,0,1-15-15V122.65A15,15,0,0,1,48.15,107.65Z"/><path fill="#3ce568" d="M176.15,107.65H156.49a15,15,0,0,1,15,15v91.83a15,15,0,0,1-15,15h19.66a15,15,0,0,0,15-15V122.65A15,15,0,0,0,176.15,107.65Z"/><path fill="#272a33" d="M146.75,185a7.5,7.5,0,0,0-7.5-7.5H85.05a7.5,7.5,0,0,0,0,15h54.2A7.5,7.5,0,0,0,146.75,185Zm317.1-84.85h-64V37.5A37.54,37.54,0,0,0,362.35,0H149.65a37.54,37.54,0,0,0-37.5,37.5v62.65h-64a22.53,22.53,0,0,0-22.5,22.5v91.83A22.52,22.52,0,0,0,48.15,237H99.08L112.15,250v29.1h-24c-11,0-18.67,10.67-18.67,20.26v27.49a7,7,0,0,0,0,.8c0,.28,0,.55,0,.84v22.39A42.65,42.65,0,0,0,85.23,384L76,385.8a47.46,47.46,0,0,0-38.53,46.56V444.5A22.53,22.53,0,0,0,60,467h52.2v7.5a37.54,37.54,0,0,0,37.5,37.5h212.7a37.54,37.54,0,0,0,37.5-37.5V467h52.2a22.53,22.53,0,0,0,22.5-22.5V432.36A47.46,47.46,0,0,0,436,385.8L426.77,384a42.65,42.65,0,0,0,15.78-33.12V328.53c0-.29,0-.56,0-.84a7,7,0,0,0,0-.8V299.4c0-9.59-7.67-20.26-18.67-20.26h-24V250L412.92,237h50.93a22.52,22.52,0,0,0,22.5-22.5V122.65A22.53,22.53,0,0,0,463.85,100.15ZM308.68,15l-6.26,12.11A3.51,3.51,0,0,1,299.31,29H212.69a3.49,3.49,0,0,1-3.1-1.89L203.32,15ZM109,225.64a12.42,12.42,0,0,0-8.84-3.66h-52a7.5,7.5,0,0,1-7.5-7.5V122.65a7.51,7.51,0,0,1,7.5-7.5h128a7.52,7.52,0,0,1,7.5,7.5v91.83a7.51,7.51,0,0,1-7.5,7.5H149.57a12.44,12.44,0,0,0-11.21,7l-8.63,17.47L125,241.63h0ZM84.45,299.4c0-2.49,2.18-5.26,3.67-5.26h51.72v10.42a3.67,3.67,0,0,1-3.66,3.67,7,7,0,0,0-.8,0c-.28,0-.55,0-.84,0H89.75a20.12,20.12,0,0,0-5.3.72Zm0,51.52V328.53a5.3,5.3,0,0,1,5.3-5.3h44.79a5.3,5.3,0,0,1,5.3,5.3v22.39a27.7,27.7,0,1,1-55.39,0ZM119.36,393v2.11a7.22,7.22,0,1,1-14.43,0V393a42.29,42.29,0,0,0,14.43,0ZM60,452a7.51,7.51,0,0,1-7.5-7.5V432.36a32.43,32.43,0,0,1,26.34-31.82l11.38-2.17a22.21,22.21,0,0,0,44,0l11.38,2.17a32.43,32.43,0,0,1,26.34,31.82V444.5a7.5,7.5,0,0,1-7.5,7.5Zm324.9,22.5a22.52,22.52,0,0,1-22.5,22.5H149.65a22.52,22.52,0,0,1-22.5-22.5V467h37.19a22.52,22.52,0,0,0,22.5-22.5V432.36a47.46,47.46,0,0,0-38.53-46.56L139.06,384a42.65,42.65,0,0,0,15.78-33.12V328.53a20.2,20.2,0,0,0-4.15-12.26,18.55,18.55,0,0,0,4.15-11.71V286.64a7.49,7.49,0,0,0-7.5-7.5H127.15V263.26a11.36,11.36,0,0,0,3.57.58,11.66,11.66,0,0,0,1.86-.15,11.53,11.53,0,0,0,8.44-6.25L151.12,237h25a22.53,22.53,0,0,0,22.5-22.5V122.65a22.53,22.53,0,0,0-22.5-22.5h-49V37.5A22.52,22.52,0,0,1,149.65,15h36.79l9.82,19a18.43,18.43,0,0,0,16.43,10h86.62a18.43,18.43,0,0,0,16.43-10l9.83-19h36.78a22.52,22.52,0,0,1,22.5,22.5v62.65h-49a22.53,22.53,0,0,0-22.5,22.5v91.83a22.53,22.53,0,0,0,22.5,22.5h25L371,257.44a11.53,11.53,0,0,0,8.44,6.25,11.66,11.66,0,0,0,1.86.15,11.36,11.36,0,0,0,3.57-.58v15.88H364.66a7.49,7.49,0,0,0-7.5,7.5v17.92a18.55,18.55,0,0,0,4.15,11.71,20.2,20.2,0,0,0-4.15,12.26v22.39A42.65,42.65,0,0,0,372.94,384l-9.25,1.76a47.46,47.46,0,0,0-38.53,46.56V444.5a22.52,22.52,0,0,0,22.5,22.5h37.19Zm48.36-74a32.43,32.43,0,0,1,26.34,31.82V444.5a7.51,7.51,0,0,1-7.5,7.5H347.66a7.5,7.5,0,0,1-7.5-7.5V432.36a32.43,32.43,0,0,1,26.34-31.82l11.38-2.17a22.21,22.21,0,0,0,43.95,0Zm-40.57-5.43V393a42.29,42.29,0,0,0,14.43,0v2.11a7.22,7.22,0,1,1-14.43,0Zm34.91-44.19a27.7,27.7,0,1,1-55.39,0V328.53a5.3,5.3,0,0,1,5.3-5.3h44.79a5.3,5.3,0,0,1,5.3,5.3Zm-3.67-56.78c1.49,0,3.67,2.77,3.67,5.26V309a20.12,20.12,0,0,0-5.3-.72H377.46c-.29,0-.56,0-.84,0a7,7,0,0,0-.8,0,3.67,3.67,0,0,1-3.66-3.67V294.14Zm47.47-79.66a7.5,7.5,0,0,1-7.5,7.5h-52a12.42,12.42,0,0,0-8.84,3.66l-16,16h0l-4.78,4.79-8.63-17.48a12.44,12.44,0,0,0-11.21-7H335.85a7.51,7.51,0,0,1-7.5-7.5V122.65a7.52,7.52,0,0,1,7.5-7.5h128a7.51,7.51,0,0,1,7.5,7.5Zm-386.3-52h54.2a7.5,7.5,0,0,0,0-15H85.05a7.5,7.5,0,0,0,0,15ZM263.37,424.68l-.44.44a3.59,3.59,0,0,1-5.09,0l-6-6a3.61,3.61,0,0,1,0-5.09l.44-.44A7.5,7.5,0,0,0,241.72,403l-.45.45a18.62,18.62,0,0,0,0,26.3l6,6a18.59,18.59,0,0,0,26.3,0l.45-.45a7.5,7.5,0,0,0-10.61-10.6ZM256,368.61A52.39,52.39,0,1,0,308.39,421,52.45,52.45,0,0,0,256,368.61Zm0,89.78A37.39,37.39,0,1,1,293.39,421,37.43,37.43,0,0,1,256,458.39ZM226.49,89.23h59a7.5,7.5,0,0,0,0-15h-59a7.5,7.5,0,0,0,0,15Zm181.77,41.35h-9.7a19.1,19.1,0,0,0-19.07,19.07,7.5,7.5,0,0,0,15,0,4.08,4.08,0,0,1,4.07-4.07h9.7a4.07,4.07,0,0,1,4.06,4.07v5.22a4.07,4.07,0,0,1-4.06,4.07,15.8,15.8,0,0,0-15.78,15.78v8.48a7.5,7.5,0,1,0,15,0v-8.48a.78.78,0,0,1,.78-.78,19.09,19.09,0,0,0,19.06-19.07v-5.22A19.09,19.09,0,0,0,408.26,130.58ZM400.8,199.4a7.5,7.5,0,1,0,7.5,7.5A7.5,7.5,0,0,0,400.8,199.4Z"/></svg>