<svg xmlns="http://www.w3.org/2000/svg" data-name="Layer 1" viewBox="0 0 512 512"><path fill="#676e87" d="M210.33,207.61h30.44a0,0,0,0,1,0,0V338.67a10,10,0,0,1-10,10H220.33a10,10,0,0,1-10-10V207.61A0,0,0,0,1,210.33,207.61Z"/><path fill="#595f74" d="M210.33,207.61h15.45V338.67a10,10,0,0,1-7.73,9.73,10.16,10.16,0,0,0,2.28.27h10.45a10,10,0,0,0,10-10V207.61Z"/><path fill="#f66" d="M204.2,207.61h21.36a0,0,0,0,1,0,0v65.63a0,0,0,0,1,0,0H204.2a30.35,30.35,0,0,1-30.35-30.35V238A30.35,30.35,0,0,1,204.2,207.61Z"/><path fill="#f2f2f2" d="M324.13,310l-30.07-19.07a113.83,113.83,0,0,0-61-17.7h-7.55V207.61h7.54a113.83,113.83,0,0,0,61-17.7l30.07-19.07a9.13,9.13,0,0,1,14,7.71V302.3A9.13,9.13,0,0,1,324.13,310Z"/><rect width="30.44" height="154.19" x="307.71" y="163.33" fill="#f66" rx="15.22"/><path fill="#ff4e4e" d="M322.93,163.33a15.2,15.2,0,0,0-7.5,2,15.21,15.21,0,0,1,7.72,13.24V302.3a15.21,15.21,0,0,1-7.72,13.24,15.21,15.21,0,0,0,22.72-13.24V178.55A15.21,15.21,0,0,0,322.93,163.33Z"/><circle cx="256" cy="39.5" r="32" fill="#63ea86"/><circle cx="256" cy="472.5" r="32" fill="#63ea86"/><circle cx="72.91" cy="72.91" r="32" fill="#f66"/><circle cx="439.09" cy="439.09" r="32" fill="#f66"/><circle cx="439.09" cy="72.91" r="32" fill="#ffe966"/><circle cx="72.91" cy="439.09" r="32" fill="#ffe966"/><circle cx="472.5" cy="256" r="32" fill="#66c1ff"/><circle cx="39.5" cy="256" r="32" fill="#66c1ff"/><path fill="#272a33" d="M72.91,112.39A39.48,39.48,0,0,0,100.84,45h0a39.5,39.5,0,1,0-27.93,67.41ZM55.59,55.59a24.49,24.49,0,0,1,34.65,0h0a24.51,24.51,0,1,1-34.65,0ZM94,256a7.5,7.5,0,0,0,7.5,7.5h32a7.5,7.5,0,0,0,0-15h-32A7.5,7.5,0,0,0,94,256ZM256,79a39.5,39.5,0,1,0-39.5-39.5A39.55,39.55,0,0,0,256,79Zm0-64a24.5,24.5,0,1,1-24.5,24.5A24.53,24.53,0,0,1,256,15Zm-7.5,86.5v32a7.5,7.5,0,0,0,15,0v-32a7.5,7.5,0,0,0-15,0Zm115.14,54.36a7.52,7.52,0,0,0,5.31-2.2l28.12-28.12a7.5,7.5,0,0,0-10.61-10.61l-28.12,28.12a7.51,7.51,0,0,0,5.3,12.81Zm75.45-43.47a39.47,39.47,0,1,0-27.93-11.55A39.38,39.38,0,0,0,439.09,112.39Zm-17.33-56.8h0a24.52,24.52,0,1,1-7.17,17.32A24.34,24.34,0,0,1,421.76,55.59ZM378.5,248.5a7.5,7.5,0,0,0,0,15h32a7.5,7.5,0,0,0,0-15Zm-115,162v-32a7.5,7.5,0,0,0-15,0v32a7.5,7.5,0,0,0,15,0ZM369,358.34A7.5,7.5,0,0,0,358.34,369l28.12,28.12a7.5,7.5,0,0,0,10.61-10.61Zm-46-202.51a22.74,22.74,0,0,0-22.67,21.26L290,183.57a106.13,106.13,0,0,1-56.94,16.54H204.2A37.89,37.89,0,0,0,166.35,238v4.93a37.88,37.88,0,0,0,36.48,37.81v58a17.52,17.52,0,0,0,17.5,17.5h10.45a17.52,17.52,0,0,0,17.5-17.5V281.83A106,106,0,0,1,290,297.28l10.22,6.47a22.72,22.72,0,0,0,45.39-1.45V178.55A22.74,22.74,0,0,0,322.93,155.83ZM204.2,265.74a22.88,22.88,0,0,1-22.85-22.85V238a22.88,22.88,0,0,1,22.85-22.85h13.86v50.63Zm29.08,72.93a2.5,2.5,0,0,1-2.5,2.5H220.33a2.5,2.5,0,0,1-2.5-2.5V280.74h15.45ZM300.21,286l-2.13-1.35a121.13,121.13,0,0,0-65-18.87h0V215.11h0a121.13,121.13,0,0,0,65-18.87l2.13-1.35Zm30.44,16.34a7.72,7.72,0,1,1-15.44,0V178.55a7.72,7.72,0,1,1,15.44,0ZM472.5,216.5A39.5,39.5,0,1,0,512,256,39.55,39.55,0,0,0,472.5,216.5Zm0,64A24.5,24.5,0,1,1,497,256,24.53,24.53,0,0,1,472.5,280.5ZM79,256a39.5,39.5,0,1,0-39.5,39.5A39.55,39.55,0,0,0,79,256Zm-64,0a24.5,24.5,0,1,1,24.5,24.5A24.53,24.53,0,0,1,15,256ZM439.09,399.59A39.5,39.5,0,1,0,467,411.16,39.24,39.24,0,0,0,439.09,399.59Zm17.32,56.82a24.5,24.5,0,1,1,0-34.65h0A24.52,24.52,0,0,1,456.41,456.41ZM256,433a39.5,39.5,0,1,0,39.5,39.5A39.55,39.55,0,0,0,256,433Zm0,64a24.5,24.5,0,1,1,24.5-24.5A24.53,24.53,0,0,1,256,497ZM143.05,358.34l-28.12,28.12a7.5,7.5,0,0,0,10.61,10.61L153.66,369a7.5,7.5,0,1,0-10.61-10.61ZM72.91,399.59A39.24,39.24,0,0,0,45,411.16h0a39.5,39.5,0,1,0,27.93-11.57Zm17.33,56.82a24.5,24.5,0,1,1-34.65-34.65h0a24.5,24.5,0,0,1,34.65,34.65Zm35.3-341.48a7.5,7.5,0,0,0-10.61,10.61l28.12,28.12a7.5,7.5,0,1,0,10.61-10.61Z"/></svg>