<svg xmlns="http://www.w3.org/2000/svg" data-name="Layer 1" viewBox="0 0 512 512"><path fill="#63ea86" d="M504.5,438.19v38.15a28.17,28.17,0,0,1-28.17,28.16H166.94a28.17,28.17,0,0,1-28.17-28.16V438.19l2.11-21.81c.06-.64.13-1.27.21-1.9,3.52-28.31,24.64-51.27,52.33-58.08l68.94-12.64,59.27-89.35,60,88.74,68.24,13.25c27.69,6.81,48.81,29.77,52.33,58.08.08.63.15,1.26.21,1.9Z"/><path fill="#3ce568" d="M502.39,416.38c-.06-.64-.13-1.27-.21-1.9-3.52-28.31-24.64-51.27-52.33-58.08l-68.24-13.25-60-88.74-14.86,22.4,44.84,66.34,68.24,13.25c27.69,6.81,48.81,29.77,52.33,58.08.08.63.15,1.26.21,1.9l2.11,21.81v38.15a28.17,28.17,0,0,1-28.17,28.16h30a28.17,28.17,0,0,0,28.17-28.16V438.19Z"/><polygon fill="#ffcd85" points="269.26 333.36 321.63 254.41 374.62 332.81 321.63 379.85 269.26 333.36"/><path fill="#ffc166" d="M321.63,254.41l-14.86,22.4,26.41,39.07a23.32,23.32,0,0,1-3.84,30.5l-22.71,20.15,15,13.31,53-47Z"/><path fill="#3ce568" d="M363.94,412.22l38.69-61.08a5,5,0,0,0-.8-6.32l-16.45-15.47a5,5,0,0,0-6.75-.1l-57,50.6,34.62,33.3A5,5,0,0,0,363.94,412.22Z"/><path fill="#3ce568" d="M279.33,412.22l-38.69-61.08a5,5,0,0,1,.8-6.32l16.45-15.47a5,5,0,0,1,6.75-.1l57,50.6L287,413.15A5,5,0,0,1,279.33,412.22Z"/><path fill="#676e87" d="M364.72,196.75,249.8,223.7V143.26c0-14.89,12.88-30.81,28.75-30.81H388.77a4.69,4.69,0,0,1,4.69,4.7V169.8C393.46,184.68,380.59,196.75,364.72,196.75Z"/><path fill="#595f74" d="M388.77,112.45h-30a4.69,4.69,0,0,1,4.69,4.7V169.8c0,14.88-12.87,26.95-28.74,26.95L249.8,216.67v7l114.92-26.95c15.87,0,28.74-12.07,28.74-26.95V117.15A4.69,4.69,0,0,0,388.77,112.45Z"/><path fill="#ffcd85" d="M258.6,182.67h127a7.82,7.82,0,0,1,7.82,7.82V260.1a67.29,67.29,0,0,1-67.29,67.29h-9.08A67.29,67.29,0,0,1,249.8,260.1V191.46A8.8,8.8,0,0,1,258.6,182.67Z"/><path fill="#ffc166" d="M385.64,182.67h-30a7.82,7.82,0,0,1,7.82,7.82V260.1a67.29,67.29,0,0,1-56.83,66.47,66.9,66.9,0,0,0,10.46.82h9.08a67.29,67.29,0,0,0,67.29-67.29V190.49A7.82,7.82,0,0,0,385.64,182.67Z"/><path fill="#676e87" d="M160,258.11h16a10,10,0,0,1,10,10V454.9a0,0,0,0,1,0,0H150a0,0,0,0,1,0,0V268.11a10,10,0,0,1,10-10Z" transform="rotate(166.77 167.964 356.501)"/><path fill="#595f74" d="M205.72,438.43,163,256.6l-14.22,3.34,42,178.49a10,10,0,0,1-7.45,12l-8.69,2.05a10,10,0,0,0,8.12,1.62l15.57-3.67A10,10,0,0,0,205.72,438.43Z"/><path fill="#f66" d="M185.85,252.69h28.8a0,0,0,0,1,0,0v77.6a0,0,0,0,1,0,0h-28.8A32.33,32.33,0,0,1,153.52,298V285a32.33,32.33,0,0,1,32.33-32.33Z" transform="rotate(166.77 184.082 291.493)"/><path fill="#ff4e4e" d="M215.32,290.79l-3-12.59a32.34,32.34,0,0,0-38.87-24.08l-9.05,2.13a32.28,32.28,0,0,1,17.92,21.95l3,12.59a32.32,32.32,0,0,1-23.69,38.77l1.58,6.7,28-6.59A32.34,32.34,0,0,0,215.32,290.79Z"/><path fill="#f2f2f2" d="M59.7,405.26l29.45-30.09a134.56,134.56,0,0,1,65.38-36.87l8.68-2-17.76-75.54-8.68,2a134.65,134.65,0,0,1-75-3.88L22,245.07A10.8,10.8,0,0,0,8,257.74L41.47,400.17A10.8,10.8,0,0,0,59.7,405.26Z"/><path fill="#dedede" d="M145.45,260.72l-8.68,2a134.92,134.92,0,0,1-20.11,3.13l14.51,61.69a8.93,8.93,0,0,1-6.64,10.72h0a134.63,134.63,0,0,0-65.39,36.87l-19,19.41,1.32,5.59a10.8,10.8,0,0,0,18.23,5.09l29.44-30.08a134.57,134.57,0,0,1,65.39-36.88l8.68-2Z"/><rect width="36" height="182.32" x="24.25" y="233.68" fill="#f66" rx="18" transform="rotate(-13.23 42.247 324.832)"/><path fill="#ff4e4e" d="M76.51,391.94,43,249.5a18,18,0,0,0-21.64-13.4,17.49,17.49,0,0,0-3.4,1.17A17.92,17.92,0,0,1,28,249.5L61.51,391.94a18,18,0,0,1-10,20.47,17.9,17.9,0,0,0,11.6,1.17h0A18,18,0,0,0,76.51,391.94Z"/><path fill="#272a33" d="M300.38,283.87A38.73,38.73,0,0,0,321,290.28h.68A39.25,39.25,0,0,0,343,283.87a7.5,7.5,0,0,0-8.26-12.52,23.61,23.61,0,0,1-26.1,0,7.5,7.5,0,1,0-8.26,12.52Zm52.55-52.41a7.5,7.5,0,0,0,7.5-7.5v-9.09a7.5,7.5,0,1,0-15,0V224A7.5,7.5,0,0,0,352.93,231.46Zm-31.3,240a7,7,0,1,0,7.05,7A7.05,7.05,0,0,0,321.63,471.45Zm190.34-34-2.12-21.81c-.07-.71-.14-1.41-.23-2.11-3.85-30.95-27.15-56.85-58-64.44l-.36-.08-43.13-8.37a12,12,0,0,0-1.18-1.3l-16.46-15.47a12.4,12.4,0,0,0-14.23-2l-2.69-4A74.68,74.68,0,0,0,401,260.1V190.49a15.24,15.24,0,0,0-2.44-8.28A33,33,0,0,0,401,169.8V117.15A12.21,12.21,0,0,0,388.77,105H278.55c-20.74,0-36.25,20.22-36.25,38.31V260.1a74.68,74.68,0,0,0,27.93,58.22l-2.58,3.89a12.41,12.41,0,0,0-14.89,1.68L236.3,339.36a13.19,13.19,0,0,0-1.6,1.84L192.39,349l-2.64-11.24L193,337a39.89,39.89,0,0,0,29.66-47.9l-3-12.59a39.85,39.85,0,0,0-47.89-29.66l-28,6.6h0l-8.68,2a126.85,126.85,0,0,1-70.78-3.67l-14.18-4.92A25.5,25.5,0,0,0,.68,259.46L34.17,401.89A25.5,25.5,0,0,0,84,391.15l10.5-10.73a126.87,126.87,0,0,1,45.84-30l6.76,28.74a75,75,0,0,0-13.46,34.35c-.09.7-.17,1.4-.23,2.1l-2.12,21.82c0,.24,0,.49,0,.73v38.13A35.71,35.71,0,0,0,166.94,512H476.33A35.71,35.71,0,0,0,512,476.33V438.2C512,438,512,437.71,512,437.47ZM381.9,336.38l13.29,12.49-35.95,56.75-26.56-25.55Zm-60.27,33.44-42.52-37.75,3.68-5.55a74.31,74.31,0,0,0,34.3,8.37h9.08a74.3,74.3,0,0,0,34.94-8.69l3.62,5.36ZM257.3,143.26c0-10.56,9.48-23.31,21.25-23.31H386V169.8a17.81,17.81,0,0,1-.83,5.37H258.6c-.44,0-.87,0-1.3.06Zm0,116.84V191.46a1.3,1.3,0,0,1,1.3-1.29H385.41a5.86,5.86,0,0,0,.55.3V260.1a59.86,59.86,0,0,1-59.79,59.79h-9.08A59.86,59.86,0,0,1,257.3,260.1Zm4.07,76.28,49.22,43.69L284,405.62l-35.94-56.75ZM175.2,261.43a24.83,24.83,0,0,1,29.86,18.49l3,12.59a24.85,24.85,0,0,1-18.49,29.85l-20.74,4.88L154.46,266.3ZM61.39,406.28a10.51,10.51,0,0,1-12.62-7.82L15.28,256a10.5,10.5,0,1,1,20.44-4.8L69.21,393.65A10.51,10.51,0,0,1,61.39,406.28Zm22.4-36.35L80,373.83,54.18,264.17,59.34,266a141.82,141.82,0,0,0,79.14,4.1l1.38-.33,14.33,60.94-1.38.33A141.86,141.86,0,0,0,83.79,369.93ZM195.2,497H166.94a20.69,20.69,0,0,1-20.67-20.67V438.56l2.08-21.46c.05-.57.11-1.14.18-1.7A59.74,59.74,0,0,1,152.22,401l11.15,47.43a17.54,17.54,0,0,0,17,13.49,17.73,17.73,0,0,0,4-.46l10.79-2.54Zm1.36-53.85L181,446.82a2.5,2.5,0,0,1-3-1.87l-23.27-99,1.53-.39,8.68-2h0l10.22-2.4,4.18,17.74a7.19,7.19,0,0,0,.4,2c0,.1.09.19.13.29l18.57,79A2.5,2.5,0,0,1,196.56,443.15ZM497,476.33A20.69,20.69,0,0,1,476.33,497H448.07V447a7.5,7.5,0,0,0-15,0v50H210.2V450.88A17.43,17.43,0,0,0,213,436.72l-17.2-73.14,39.26-7.2L273,416.24a12.46,12.46,0,0,0,9.06,5.72,12.91,12.91,0,0,0,1.52.09,12.45,12.45,0,0,0,8.65-3.49l29.41-28.31,29.42,28.31a12.45,12.45,0,0,0,8.65,3.49,13,13,0,0,0,1.52-.09,12.46,12.46,0,0,0,9.06-5.72L408.44,356l39.79,7.73c24.75,6.17,43.43,26.91,46.5,51.68.07.56.14,1.13.19,1.7L497,438.56ZM321.63,415.12a7,7,0,1,0,7.05,7A7,7,0,0,0,321.63,415.12Zm0,28.17a7,7,0,1,0,7.05,7A7,7,0,0,0,321.63,443.29ZM290.34,231.46a7.5,7.5,0,0,0,7.5-7.5v-9.09a7.5,7.5,0,0,0-15,0V224A7.5,7.5,0,0,0,290.34,231.46Z"/></svg>