<svg xmlns="http://www.w3.org/2000/svg" data-name="Layer 1" viewBox="0 0 512 512"><path fill="#66c1ff" d="M80.82,504.5H190.69a15.79,15.79,0,0,0,15.79-15.79V475.94a42,42,0,0,0-34.14-41.26l-36.58-7-36.59,7A42,42,0,0,0,65,475.94v12.77A15.79,15.79,0,0,0,80.82,504.5Z"/><path fill="#ffcd85" d="M135.67,421.23h.17a15.41,15.41,0,0,1,15.41,15.41v15.58a0,0,0,0,1,0,0h-31a0,0,0,0,1,0,0V436.64A15.41,15.41,0,0,1,135.67,421.23Z" transform="rotate(180 135.755 436.725)"/><path fill="#676e87" d="M110.46,353.18l62.34,11.75V336c0-6.49-5.26-13.43-11.75-13.43H98.71v18.86A11.76,11.76,0,0,0,110.46,353.18Z"/><path fill="#ffcd85" d="M135.55,353.18H136A36.84,36.84,0,0,1,172.8,390v29.16a8.09,8.09,0,0,1-8.09,8.09H106.8a8.09,8.09,0,0,1-8.09-8.09V390a36.84,36.84,0,0,1,36.84-36.84Z" transform="rotate(-180 135.755 390.22)"/><path fill="#63ea86" d="M321.31,504.5H431.18A15.79,15.79,0,0,0,447,488.71V475.94a42,42,0,0,0-34.14-41.26l-36.59-7-36.58,7a42,42,0,0,0-34.14,41.26v12.77A15.79,15.79,0,0,0,321.31,504.5Z"/><path fill="#3ce568" d="M412.83,434.68l-36.59-7-7.5,1.42,29.09,5.54A42,42,0,0,1,432,475.94v12.77a15.79,15.79,0,0,1-15.79,15.79h15A15.79,15.79,0,0,0,447,488.71V475.94A42,42,0,0,0,412.83,434.68Z"/><path fill="#ffcd85" d="M376.16,421.23h.17a15.41,15.41,0,0,1,15.41,15.41v15.58a0,0,0,0,1,0,0h-31a0,0,0,0,1,0,0V436.64A15.41,15.41,0,0,1,376.16,421.23Z" transform="rotate(180 376.245 436.725)"/><path fill="#ffc166" d="M378.76,421.23v15.58a15.4,15.4,0,0,1-9,14,15.45,15.45,0,0,0,6.41,1.41h.17a15.4,15.4,0,0,0,15.4-15.41V421.23Z"/><path fill="#676e87" d="M351,353.18l62.34,11.75V336c0-6.49-5.26-13.43-11.75-13.43H339.2v18.86A11.76,11.76,0,0,0,351,353.18Z"/><path fill="#595f74" d="M401.54,322.56H383c6.49,0,11.75,6.94,11.75,13.43v25.45l18.51,3.49V336C413.29,329.5,408,322.56,401.54,322.56Z"/><path fill="#ffcd85" d="M376,353.18h.41A36.84,36.84,0,0,1,413.29,390v29.16a8.09,8.09,0,0,1-8.09,8.09H347.29a8.09,8.09,0,0,1-8.09-8.09V390A36.84,36.84,0,0,1,376,353.18Z" transform="rotate(-180 376.245 390.22)"/><path fill="#ffc166" d="M405.2 353.18H387.61a8.08 8.08 0 0 1 8.08 8.08v29.17a36.84 36.84 0 0 1-28.24 35.82 36.79 36.79 0 0 0 8.59 1h.41a36.84 36.84 0 0 0 36.84-36.84V361.26A8.09 8.09 0 0 0 405.2 353.18zM138.27 421.23v15.58a15.41 15.41 0 0 1-9 14 15.37 15.37 0 0 0 6.4 1.41h.17a15.41 15.41 0 0 0 15.41-15.41V421.23z"/><path fill="#595f74" d="M161.05,322.56H142.54c6.5,0,11.76,6.94,11.76,13.43v17.19l18.5,11.75V336C172.8,329.5,167.54,322.56,161.05,322.56Z"/><path fill="#ffc166" d="M164.71,353.18H147.12a8.09,8.09,0,0,1,8.09,8.08v29.17A36.85,36.85,0,0,1,127,426.25a36.86,36.86,0,0,0,8.59,1H136a36.84,36.84,0,0,0,36.84-36.84V361.26A8.09,8.09,0,0,0,164.71,353.18Z"/><path fill="#4eb7ff" d="M206.48,488.71V475.94a42,42,0,0,0-34.14-41.26l-5.31-1A52,52,0,0,0,153.19,469V484.9a19.61,19.61,0,0,0,19.6,19.6h17.9A15.79,15.79,0,0,0,206.48,488.71Z"/><path fill="#f66" d="M187.79,504.5H324.21a19.61,19.61,0,0,0,19.6-19.6V469a52.15,52.15,0,0,0-42.38-51.23L256,409.16l-45.43,8.65A52.15,52.15,0,0,0,168.19,469V484.9A19.61,19.61,0,0,0,187.79,504.5Z"/><path fill="#ff4e4e" d="M301.43,417.81,256,409.16l-7.5,1.43,37.93,7.22A52.15,52.15,0,0,1,328.81,469V484.9a19.61,19.61,0,0,1-19.6,19.6h15a19.61,19.61,0,0,0,19.6-19.6V469A52.15,52.15,0,0,0,301.43,417.81Z"/><path fill="#ffcd85" d="M255.89,401.11h.21a19.13,19.13,0,0,1,19.13,19.13v19.34a0,0,0,0,1,0,0H236.77a0,0,0,0,1,0,0V420.24A19.13,19.13,0,0,1,255.89,401.11Z" transform="rotate(180 256 420.35)"/><path fill="#ffc166" d="M260.23,401.11v19.35A19.13,19.13,0,0,1,248.5,438.1a19.11,19.11,0,0,0,7.39,1.48h.22a19.12,19.12,0,0,0,19.12-19.12V401.11Z"/><path fill="#676e87" d="M224.6,316.61,302,331.2V295.27c0-8.06-6.54-16.68-14.6-16.68H210V302A14.6,14.6,0,0,0,224.6,316.61Z"/><path fill="#595f74" d="M287.4,278.59H265.79c8.06,0,14.6,8.62,14.6,16.68v31.86L302,331.2V295.27C302,287.21,295.46,278.59,287.4,278.59Z"/><path fill="#ffcd85" d="M255.74,316.61h.51A45.74,45.74,0,0,1,302,362.35v38.16a8.09,8.09,0,0,1-8.09,8.09H218.09a8.09,8.09,0,0,1-8.09-8.09V362.35a45.74,45.74,0,0,1,45.74-45.74Z" transform="rotate(180 256 362.61)"/><path fill="#ffc166" d="M293.91,316.61H272.3a8.09,8.09,0,0,1,8.09,8.09v38.16a45.76,45.76,0,0,1-35.19,44.51,45.72,45.72,0,0,0,10.54,1.23h.52A45.74,45.74,0,0,0,302,362.86V324.7A8.09,8.09,0,0,0,293.91,316.61Z"/><circle cx="256" cy="75.12" r="67.62" fill="#f66"/><path fill="#272a33" d="M229.72,101.4a7.5,7.5,0,0,0,10.61,0L256,85.73l15.67,15.67a7.5,7.5,0,1,0,10.61-10.61L266.61,75.12l15.67-15.67a7.5,7.5,0,1,0-10.61-10.61L256,64.51,240.33,48.84a7.5,7.5,0,0,0-10.61,10.61l15.67,15.67L229.72,90.79A7.5,7.5,0,0,0,229.72,101.4ZM256,150.24a75.12,75.12,0,1,0-75.12-75.12A75.21,75.21,0,0,0,256,150.24ZM256,15a60.12,60.12,0,1,1-60.12,60.12A60.19,60.19,0,0,1,256,15ZM414.23,427.32l-10.47-2a44.29,44.29,0,0,0,17-34.89V336c0-12.34-10.15-20.93-19.25-20.93H339.2a7.5,7.5,0,0,0-7.5,7.5v18.86a19.13,19.13,0,0,0,3.14,10.51,15.46,15.46,0,0,0-3.14,9.33v29.17a44.26,44.26,0,0,0,17,34.89l-10.48,2c-1.1.21-2.19.47-3.28.75a59.42,59.42,0,0,0-32.14-17.62l-17.12-3.26a53.23,53.23,0,0,0,23.79-44.33V295.27c0-14.25-11.65-24.18-22.1-24.18H210a7.5,7.5,0,0,0-7.5,7.5V302a22,22,0,0,0,3.86,12.45,15.52,15.52,0,0,0-3.86,10.23v38.16a53.23,53.23,0,0,0,23.79,44.33l-17.12,3.26A59.42,59.42,0,0,0,177,428.07c-1.09-.28-2.18-.54-3.28-.75l-10.48-2a44.26,44.26,0,0,0,17-34.89V336c0-12.34-10.14-20.93-19.25-20.93H98.71a7.5,7.5,0,0,0-7.5,7.5v18.86a19.13,19.13,0,0,0,3.14,10.51,15.46,15.46,0,0,0-3.14,9.33v29.17a44.29,44.29,0,0,0,17,34.89l-10.47,2a49.56,49.56,0,0,0-40.24,48.62v12.77A23.32,23.32,0,0,0,80.82,512H431.18a23.32,23.32,0,0,0,23.29-23.29V475.94A49.56,49.56,0,0,0,414.23,427.32Zm-308-97.26h54.84c1.76,0,4.25,3.07,4.25,5.93v9.72c-.2,0-.39,0-.59,0H110.46a4.26,4.26,0,0,1-4.25-4.26Zm0,60.37V361.26a.59.59,0,0,1,.59-.58h57.91a.58.58,0,0,1,.59.58v29.17A29.37,29.37,0,0,1,136,419.77h-.41A29.37,29.37,0,0,1,106.21,390.43Zm37.54,43.64v2.74a7.92,7.92,0,0,1-7.91,7.91h-.17a7.91,7.91,0,0,1-7.9-7.91v-2.74a44.23,44.23,0,0,0,7.78.7H136A44.43,44.43,0,0,0,143.75,434.07ZM163.55,497H80.82a8.3,8.3,0,0,1-8.29-8.29V475.94a34.55,34.55,0,0,1,28.05-33.89L113,439.69a23,23,0,0,0,22.72,20h.17a22.93,22.93,0,0,0,22.72-20l8.94,1.71A59.4,59.4,0,0,0,160.69,469V484.9A26.89,26.89,0,0,0,163.55,497ZM217.5,286.09h69.9c3.38,0,7.1,4.81,7.1,9.18v13.87c-.2,0-.39,0-.59,0H224.6a7.11,7.11,0,0,1-7.1-7.09Zm0,76.77V324.7a.6.6,0,0,1,.59-.59h75.82a.6.6,0,0,1,.59.59v38.16a38.28,38.28,0,0,1-38.24,38.24h-.52A38.28,38.28,0,0,1,217.5,362.86Zm50.23,52v5.62a11.63,11.63,0,0,1-11.62,11.62h-.22a11.63,11.63,0,0,1-11.62-11.62v-5.62a52.84,52.84,0,0,0,11.47,1.26h.52A52.84,52.84,0,0,0,267.73,414.84Zm68.58,70.06a12.12,12.12,0,0,1-12.1,12.1H187.79a12.12,12.12,0,0,1-12.1-12.1V469A44.55,44.55,0,0,1,185,441.76a6.4,6.4,0,0,0,.65-.81A44.55,44.55,0,0,1,212,425.18l17.32-3.3a26.67,26.67,0,0,0,26.59,25.2h.22a26.67,26.67,0,0,0,26.59-25.2l17.32,3.3A44.69,44.69,0,0,1,336.31,469ZM346.7,330.06h54.84c1.75,0,4.25,3.07,4.25,5.93v9.72c-.2,0-.39,0-.59,0H351a4.26,4.26,0,0,1-4.25-4.26Zm0,60.37V361.26a.58.58,0,0,1,.59-.58H405.2a.59.59,0,0,1,.59.58v29.17a29.37,29.37,0,0,1-29.34,29.34H376A29.37,29.37,0,0,1,346.7,390.43Zm37.53,43.64v2.74a7.91,7.91,0,0,1-7.9,7.91h-.17a7.92,7.92,0,0,1-7.91-7.91v-2.74a44.43,44.43,0,0,0,7.79.7h.41A44.23,44.23,0,0,0,384.23,434.07Zm55.24,54.64a8.3,8.3,0,0,1-8.29,8.29H348.45a26.89,26.89,0,0,0,2.86-12.1V469a59.4,59.4,0,0,0-6.81-27.64l8.94-1.71a22.93,22.93,0,0,0,22.72,20h.17a23,23,0,0,0,22.72-20l12.37,2.36a34.55,34.55,0,0,1,28.05,33.89ZM99.53,249.88a7.5,7.5,0,0,0,7.5-7.5V226.62a7.51,7.51,0,0,1,7.5-7.5h134V244.5a7.5,7.5,0,0,0,15,0V219.12h134a7.51,7.51,0,0,1,7.5,7.5v15.76a7.5,7.5,0,0,0,15,0V226.62a22.53,22.53,0,0,0-22.5-22.5h-134V179.5a7.5,7.5,0,0,0-15,0v24.62h-134A22.53,22.53,0,0,0,92,226.62v15.76A7.5,7.5,0,0,0,99.53,249.88Z"/></svg>