<svg xmlns="http://www.w3.org/2000/svg" data-name="Layer 1" viewBox="0 0 512 512"><path fill="#676e87" d="M473.08 263.6l-26.3 26.3a2 2 0 0 1-2.83 0l-26.3-26.3a2 2 0 0 1 1.41-3.41h52.61A2 2 0 0 1 473.08 263.6zM242.92 472.26L216.62 446a2 2 0 0 1 0-2.83l26.3-26.3a2 2 0 0 1 3.42 1.42v52.6A2 2 0 0 1 242.92 472.26z"/><rect width="170.84" height="135.3" x="170.58" y="35.5" fill="#ffc166" rx="13.35"/><path fill="#ffb74e" d="M328.07,35.5h-30a13.35,13.35,0,0,1,13.35,13.34V157.45a13.35,13.35,0,0,1-13.35,13.34h30a13.35,13.35,0,0,0,13.35-13.34V48.84A13.35,13.35,0,0,0,328.07,35.5Z"/><path fill="#ffae36" d="M341.42,76.1l-76.59,40.41a22.13,22.13,0,0,1-17.66,0L170.58,76.1V48.84A13.35,13.35,0,0,1,183.93,35.5H328.07a13.35,13.35,0,0,1,13.35,13.34Z"/><path fill="#ffa41f" d="M311.42,48.84V91.93l30-15.83V48.84a13.31,13.31,0,0,0-3.91-9.43c-.3-.31-.62-.59-.95-.87a13.3,13.3,0,0,0-8.49-3h-30A13.35,13.35,0,0,1,311.42,48.84Z"/><rect width="30.22" height="30.22" x="240.89" y="100.11" fill="#676e87" rx="7"/><path fill="#595f74" d="M264.11,100.11H251.48a7,7,0,0,1,7,7v16.22a7,7,0,0,1-7,7h12.63a7,7,0,0,0,7-7V107.11A7,7,0,0,0,264.11,100.11Z"/><path fill="#f66" d="M379.78,504.5H488.83a15.65,15.65,0,0,0,15.67-15.62V476.24a41.57,41.57,0,0,0-33.88-40.81l-36.32-6.89L398,435.43a41.57,41.57,0,0,0-33.88,40.81v12.64A15.65,15.65,0,0,0,379.78,504.5Z"/><path fill="#ff4e4e" d="M470.62,435.43l-36.32-6.89-11.47,2.17,24.83,4.72a41.57,41.57,0,0,1,33.88,40.81v12.64a15.64,15.64,0,0,1-15.67,15.62h23a15.65,15.65,0,0,0,15.67-15.62V476.24A41.57,41.57,0,0,0,470.62,435.43Z"/><path fill="#ffcd85" d="M433.8,422.12h1A14.87,14.87,0,0,1,449.68,437v15.78a0,0,0,0,1,0,0H418.93a0,0,0,0,1,0,0V437A14.87,14.87,0,0,1,433.8,422.12Z" transform="rotate(-180 434.305 437.45)"/><path fill="#ffc166" d="M436,422.12V437.9a14.86,14.86,0,0,1-8.53,13.44,14.81,14.81,0,0,0,6.34,1.43h1a14.87,14.87,0,0,0,14.87-14.87V422.12Z"/><path fill="#676e87" d="M409.2,354.79l61.87,11.63V337.79c0-6.42-5.22-13.29-11.66-13.29H397.54v18.66A11.64,11.64,0,0,0,409.2,354.79Z"/><path fill="#595f74" d="M459.41,324.5H436c6.44,0,11.66,6.87,11.66,13.29V362l23.42,4.4V337.79C471.07,331.37,465.85,324.5,459.41,324.5Z"/><path fill="#ffcd85" d="M433.1,354.79h2.4a35.57,35.57,0,0,1,35.57,35.57v29.92a7.81,7.81,0,0,1-7.81,7.81H405.35a7.81,7.81,0,0,1-7.81-7.81V390.36A35.57,35.57,0,0,1,433.1,354.79Z" transform="rotate(180 434.305 391.44)"/><path fill="#ffc166" d="M463.26,354.79H443.19A7.81,7.81,0,0,1,451,362.6v29.92A35.57,35.57,0,0,1,424.27,427a35.2,35.2,0,0,0,8.83,1.11h2.4a35.56,35.56,0,0,0,35.57-35.57V362.6A7.81,7.81,0,0,0,463.26,354.79Z"/><path fill="#676e87" d="M135.66,142.88l2.26-37.12a2,2,0,0,0-1.87-2.12l-37.13-2.26a2,2,0,0,0-1.62,3.32l34.87,39.39A2,2,0,0,0,135.66,142.88Z"/><circle cx="97.5" cy="414.5" r="90" fill="#ffe966"/><path fill="#ffe236" d="M97.5,324.5a90.46,90.46,0,0,0-15,1.25,90,90,0,0,1,0,177.5,90,90,0,1,0,15-178.75Z"/><path fill="#272a33" d="M472,428.06l-9.73-1.85a43,43,0,0,0,16.28-33.69V337.79c0-12.25-10.1-20.79-19.16-20.79H397.54a7.5,7.5,0,0,0-7.5,7.5v18.66a19,19,0,0,0,3,10.31,15.26,15.26,0,0,0-3,9.13v29.92a43,43,0,0,0,16.28,33.69l-9.73,1.85a49.13,49.13,0,0,0-40,48.18v12.64A23.17,23.17,0,0,0,379.78,512H488.83A23.17,23.17,0,0,0,512,488.88V476.24A49.14,49.14,0,0,0,472,428.06ZM405,332h54.37c1.72,0,4.16,3,4.16,5.79v9.52l-.31,0H409.2a4.14,4.14,0,0,1-4.16-4.13Zm0,60.52V362.6a.3.3,0,0,1,.3-.31h57.92a.31.31,0,0,1,.31.31v29.92a28.1,28.1,0,0,1-28.07,28.07h-2.4A28.1,28.1,0,0,1,405,392.52Zm37.14,42.55v2.83a7.38,7.38,0,0,1-7.37,7.37h-1a7.38,7.38,0,0,1-7.37-7.37v-2.83a43.09,43.09,0,0,0,6.67.52h2.4A43.22,43.22,0,0,0,442.18,435.07ZM497,488.88a8.16,8.16,0,0,1-8.17,8.12h-109a8.15,8.15,0,0,1-8.17-8.12V476.24a34.11,34.11,0,0,1,27.78-33.44l12.19-2.32a22.4,22.4,0,0,0,22.22,19.79h1A22.4,22.4,0,0,0,457,440.48l12.19,2.32A34.11,34.11,0,0,1,497,476.24ZM369.51,109.8A184,184,0,0,1,441,252.69h-26.8a7.5,7.5,0,0,0-5.3,12.8l31.13,31.13a7.5,7.5,0,0,0,10.61,0l31.13-31.13a7.5,7.5,0,0,0-5.3-12.8H456A198.86,198.86,0,0,0,378.72,98a7.5,7.5,0,0,0-9.21,11.84Zm88.88,157.89-13,13-13-13ZM97.5,317A97.5,97.5,0,1,0,195,414.5,97.61,97.61,0,0,0,97.5,317Zm0,180A82.5,82.5,0,1,1,180,414.5,82.59,82.59,0,0,1,97.5,497Zm86.43-318.71H328.07a20.87,20.87,0,0,0,20.85-20.84V48.84A20.87,20.87,0,0,0,328.07,28h-18V22.25A22.28,22.28,0,0,0,287.85,0h-63.7a22.28,22.28,0,0,0-22.26,22.25V28h-18a20.87,20.87,0,0,0-20.85,20.84V157.45A20.87,20.87,0,0,0,183.93,178.29Zm33-156A7.26,7.26,0,0,1,224.15,15h63.7a7.26,7.26,0,0,1,7.26,7.25V28H216.89ZM178.08,48.84A5.85,5.85,0,0,1,183.93,43H328.07a5.85,5.85,0,0,1,5.85,5.84V71.57l-56.5,29.81a14.51,14.51,0,0,0-13.31-8.77H247.89a14.51,14.51,0,0,0-13.31,8.77l-56.5-29.81Zm85.53,58.77v15.22H248.39V107.61ZM178.08,88.53l55.31,29.19v5.61a14.51,14.51,0,0,0,14.5,14.5h16.22a14.51,14.51,0,0,0,14.5-14.5v-5.61l55.31-29.19v68.92a5.85,5.85,0,0,1-5.85,5.84H183.93a5.85,5.85,0,0,1-5.85-5.84ZM115.5,358H105v-7.5a7.5,7.5,0,0,0-15,0V358H79.5A17.52,17.52,0,0,0,62,375.5v29A17.52,17.52,0,0,0,79.5,422H90v34H79.5a2.5,2.5,0,0,1-2.5-2.5v-10a7.5,7.5,0,0,0-15,0v10A17.52,17.52,0,0,0,79.5,471H90v7.5a7.5,7.5,0,0,0,15,0V471h10.5A17.52,17.52,0,0,0,133,453.5v-29A17.52,17.52,0,0,0,115.5,407H105V373h10.5a2.5,2.5,0,0,1,2.5,2.5v10a7.5,7.5,0,0,0,15,0v-10A17.52,17.52,0,0,0,115.5,358ZM90,407H79.5a2.5,2.5,0,0,1-2.5-2.5v-29a2.5,2.5,0,0,1,2.5-2.5H90Zm25.5,15a2.5,2.5,0,0,1,2.5,2.5v29a2.5,2.5,0,0,1-2.5,2.5H105V422Zm259.33-15.28a7.5,7.5,0,0,0-10.48-1.6,183.58,183.58,0,0,1-109.65,36h-.86V413.41A7.51,7.51,0,0,0,241,408.1L209.9,439.24a7.49,7.49,0,0,0,0,10.6L241,481a7.5,7.5,0,0,0,12.81-5.3v-19.6h.86A198.47,198.47,0,0,0,373.24,417.2,7.48,7.48,0,0,0,374.83,406.72Zm-136,50.84-13-13,13-13ZM60.64,299.4a7.5,7.5,0,0,0,14.65-3.24A185.46,185.46,0,0,1,115,136.06l14.71,16.62a7.52,7.52,0,0,0,5.62,2.52,7.35,7.35,0,0,0,2.44-.41,7.49,7.49,0,0,0,5.05-6.63l2.67-43.95a7.5,7.5,0,0,0-7-7.94L94.56,93.6a7.51,7.51,0,0,0-6.08,12.46L105,124.73A199.3,199.3,0,0,0,55.92,256,201.4,201.4,0,0,0,60.64,299.4ZM130.1,110.79,129,129.17l-7.76-8.76a7.44,7.44,0,0,0-1-1.17l-.07,0-8.42-9.52Z"/></svg>