<svg xmlns="http://www.w3.org/2000/svg" data-name="Layer 1" viewBox="0 0 512 512"><path fill="#676e87" d="M296.21,225.11H215.79a7.5,7.5,0,0,1-7.5-7.5V187.38a20.25,20.25,0,0,1,20.23-20.23h55a20.25,20.25,0,0,1,20.23,20.23v30.23A7.5,7.5,0,0,1,296.21,225.11Zm-72.92-15h65.42V187.38a5.23,5.23,0,0,0-5.23-5.23h-55a5.23,5.23,0,0,0-5.23,5.23Z"/><path fill="#f66" d="M256,485.91A229.91,229.91,0,0,1,93.43,93.43,229.91,229.91,0,1,1,418.57,418.57,228.37,228.37,0,0,1,256,485.91Zm0-444.82A214.9,214.9,0,0,0,104,408,214.9,214.9,0,1,0,408,104,213.47,213.47,0,0,0,256,41.09Z"/><path fill="#f66" d="M256,443.55C152.59,443.55,68.45,359.41,68.45,256S152.59,68.45,256,68.45,443.55,152.59,443.55,256,359.41,443.55,256,443.55Zm0-360.1C160.86,83.45,83.45,160.86,83.45,256S160.86,428.55,256,428.55,428.55,351.14,428.55,256,351.14,83.45,256,83.45Z"/><path fill="#f66" d="M256,401.18C176,401.18,110.82,336.05,110.82,256S176,110.82,256,110.82,401.18,176,401.18,256,336.05,401.18,256,401.18Zm0-275.36c-71.78,0-130.18,58.4-130.18,130.18S184.22,386.18,256,386.18,386.18,327.78,386.18,256,327.78,125.82,256,125.82Z"/><rect width="155.01" height="116.74" x="178.49" y="202.61" fill="#ffc166" rx="11.52"/><path fill="#ffb74e" d="M322,202.61H292a11.52,11.52,0,0,1,11.52,11.52v93.7A11.52,11.52,0,0,1,292,319.35h30a11.52,11.52,0,0,0,11.52-11.52v-93.7A11.52,11.52,0,0,0,322,202.61Z"/><path fill="#ffae36" d="M333.51,237.64l-69.89,34.87a19.14,19.14,0,0,1-15.24,0l-69.89-34.87V214.13A11.52,11.52,0,0,1,190,202.61H322a11.52,11.52,0,0,1,11.52,11.52Z"/><path fill="#ffa41f" d="M325.91,203.31a11.35,11.35,0,0,0-3.92-.7H292a11.52,11.52,0,0,1,11.52,11.52v38.48l30-15V214.13A11.5,11.5,0,0,0,325.91,203.31Z"/><rect width="31.35" height="31.35" x="240.32" y="258.42" fill="#676e87" rx="7"/><path fill="#595f74" d="M264.68,258.42H251.63a7,7,0,0,1,7,7v17.35a7,7,0,0,1-7,7h13.05a7,7,0,0,0,7-7V265.42A7,7,0,0,0,264.68,258.42Z"/><path fill="#676e87" d="M141 263.5H7.5a7.5 7.5 0 0 1 0-15H141a7.5 7.5 0 0 1 0 15zM504.5 263.5H371a7.5 7.5 0 0 1 0-15H504.5a7.5 7.5 0 0 1 0 15zM256 148.5a7.5 7.5 0 0 1-7.5-7.5V7.5a7.5 7.5 0 0 1 15 0V141A7.5 7.5 0 0 1 256 148.5zM256 512a7.5 7.5 0 0 1-7.5-7.5V371a7.5 7.5 0 0 1 15 0V504.5A7.5 7.5 0 0 1 256 512z"/><path fill="#272a33" d="M341,307.83v-93.7a19,19,0,0,0-19-19H303.71v-7.73a20.25,20.25,0,0,0-20.23-20.23h-55a20.25,20.25,0,0,0-20.23,20.23v7.73H190a19,19,0,0,0-19,19v93.7a19,19,0,0,0,19,19H322A19,19,0,0,0,341,307.83ZM223.29,187.38a5.23,5.23,0,0,1,5.23-5.23h55a5.23,5.23,0,0,1,5.23,5.23v7.73H223.29ZM186,214.13a4,4,0,0,1,4-4H322a4,4,0,0,1,4,4V233l-49.18,24.54a14.49,14.49,0,0,0-12.15-6.62H247.32a14.49,14.49,0,0,0-12.15,6.62L186,233Zm78.19,51.79v16.35H247.82V265.92ZM186,307.83V249.76l46.83,23.37v9.64a14.52,14.52,0,0,0,14.5,14.5h17.36a14.52,14.52,0,0,0,14.5-14.5v-9.64L326,249.76v58.07a4,4,0,0,1-4,4H190A4,4,0,0,1,186,307.83ZM504.5,248.5H485.78A229.89,229.89,0,0,0,263.5,26.22V7.5a7.5,7.5,0,0,0-15,0V26.22A229.89,229.89,0,0,0,26.22,248.5H7.5a7.5,7.5,0,0,0,0,15H26.22A229.89,229.89,0,0,0,248.5,485.78V504.5a7.5,7.5,0,0,0,15,0V485.78A229.89,229.89,0,0,0,485.78,263.5H504.5a7.5,7.5,0,0,0,0-15ZM263.5,83.63c89.19,3.83,161,75.68,164.87,164.87H401C397.2,174.4,337.6,114.8,263.5,111ZM428.37,263.5c-3.83,89.19-75.68,161-164.87,164.87V401C337.6,397.2,397.2,337.6,401,263.5ZM104,104A213.36,213.36,0,0,1,248.5,41.23V68.62C151,72.47,72.47,151,68.62,248.5H41.23A213.36,213.36,0,0,1,104,104ZM248.5,83.63V111C174.4,114.8,114.8,174.4,111,248.5H83.63C87.46,159.31,159.31,87.46,248.5,83.63Zm0,387.14A214.89,214.89,0,0,1,41.23,263.5H68.62C72.47,361,151,439.53,248.5,443.38Zm0-42.4c-89.19-3.83-161-75.68-164.87-164.87H111C114.8,337.6,174.4,397.2,248.5,401ZM256,363.5a7.5,7.5,0,0,0-7.5,7.5v15A130.37,130.37,0,0,1,126,263.5h15a7.5,7.5,0,0,0,0-15H126A130.37,130.37,0,0,1,248.5,126v15a7.5,7.5,0,0,0,15,0V126A130.37,130.37,0,0,1,386,248.5H371a7.5,7.5,0,0,0,0,15h15A130.37,130.37,0,0,1,263.5,386V371A7.5,7.5,0,0,0,256,363.5ZM408,408A213.36,213.36,0,0,1,263.5,470.77V443.38C361,439.53,439.53,361,443.38,263.5h27.39A213.36,213.36,0,0,1,408,408ZM443.38,248.5C439.53,151,361,72.47,263.5,68.62V41.23A214.89,214.89,0,0,1,470.77,248.5Z"/></svg>